<svg width="34" height="28" viewBox="0 0 34 28" fill="none" xmlns="http://www.w3.org/2000/svg">
<path d="M0.482422 13.9219C0.482422 13.5 0.664062 13.1074 1.02734 12.7441L12.6641 1.125C13.0273 0.773438 13.4199 0.597656 13.8418 0.597656C14.2871 0.597656 14.6562 0.744141 14.9492 1.03711C15.2422 1.31836 15.3887 1.67578 15.3887 2.10938C15.3887 2.56641 15.2422 2.94141 14.9492 3.23438L11.0293 7.22461L5.10547 12.6211L9.35938 12.3574H31.5781C32.0352 12.3574 32.4043 12.5039 32.6855 12.7969C32.9785 13.0898 33.125 13.4648 33.125 13.9219C33.125 14.3789 32.9785 14.7598 32.6855 15.0645C32.4043 15.3574 32.0352 15.5039 31.5781 15.5039H9.35938L5.08789 15.2227L11.0293 20.6191L14.9492 24.627C15.2422 24.9199 15.3887 25.2891 15.3887 25.7344C15.3887 26.168 15.2422 26.5312 14.9492 26.8242C14.6562 27.1055 14.2871 27.2461 13.8418 27.2461C13.4316 27.2461 13.0508 27.0879 12.6992 26.7715L1.02734 15.0996C0.664062 14.7598 0.482422 14.3672 0.482422 13.9219Z" fill="#637684"/>
</svg>
