<svg width="19" height="19" viewBox="0 0 19 19" fill="none" xmlns="http://www.w3.org/2000/svg">
<path d="M4.72656 16.3047C3.21875 16.3047 2.49219 15.5703 2.49219 14.0625V12.4219C2.49219 12.2891 2.45312 12.1953 2.35938 12.1016L1.20312 10.9375C0.132812 9.875 0.125 8.84375 1.20312 7.77344L2.35938 6.61719C2.45312 6.52344 2.49219 6.42188 2.49219 6.29688V4.65625C2.49219 3.13281 3.21875 2.41406 4.72656 2.41406H6.36719C6.5 2.41406 6.59375 2.375 6.6875 2.28125L7.85156 1.13281C8.92188 0.0546875 9.94531 0.046875 11.0156 1.125L12.1719 2.28125C12.2734 2.375 12.3672 2.41406 12.5 2.41406H14.1406C15.6484 2.41406 16.375 3.14844 16.375 4.65625V6.29688C16.375 6.42188 16.4062 6.51562 16.5078 6.61719L17.6641 7.77344C18.7344 8.84375 18.7344 9.875 17.6641 10.9375L16.5078 12.1016C16.4141 12.1953 16.375 12.2891 16.375 12.4219V14.0625C16.375 15.5703 15.6484 16.3047 14.1406 16.3047H12.5C12.3672 16.3047 12.2734 16.3359 12.1719 16.4375L11.0156 17.5938C9.94531 18.6562 8.92188 18.6641 7.85156 17.5938L6.6875 16.4375C6.59375 16.3359 6.5 16.3047 6.36719 16.3047H4.72656ZM8.57031 13.2812C8.91406 13.2812 9.21094 13.1016 9.41406 12.8047L13.0469 7.25781C13.1797 7.0625 13.2578 6.84375 13.2578 6.64844C13.2578 6.16406 12.8359 5.82031 12.3672 5.82031C12.0547 5.82031 11.8047 5.99219 11.5938 6.32031L8.55469 11.1562L7.1875 9.48438C6.97656 9.22656 6.76562 9.11719 6.48438 9.11719C6 9.11719 5.60938 9.5 5.60938 9.98438C5.60938 10.2109 5.6875 10.4141 5.86719 10.625L7.69531 12.8203C7.94531 13.1172 8.22656 13.2812 8.57031 13.2812Z" fill="#0F9B81"/>
</svg>
