<svg width="16" height="21" viewBox="0 0 16 21" fill="none" xmlns="http://www.w3.org/2000/svg">
<path d="M3.79688 4.85156V2.97656C3.79688 2.16406 3.9974 1.55208 4.39844 1.14062C4.80469 0.729167 5.41146 0.523438 6.21875 0.523438H9.21094C9.63281 0.523438 10.0104 0.583333 10.3438 0.703125C10.6771 0.817708 10.9818 1.01823 11.2578 1.30469L15.2031 5.3125C15.4948 5.61458 15.6979 5.93229 15.8125 6.26562C15.9271 6.59896 15.9844 7.00521 15.9844 7.48438V13.8281C15.9844 14.6406 15.7812 15.2526 15.375 15.6641C14.974 16.0755 14.3698 16.2812 13.5625 16.2812H11.9531V15.0234H13.4922C13.8984 15.0234 14.2057 14.9193 14.4141 14.7109C14.6224 14.4974 14.7266 14.1953 14.7266 13.8047V7.125H11.0703C10.6224 7.125 10.2865 7.01562 10.0625 6.79688C9.84375 6.57812 9.73438 6.24219 9.73438 5.78906V1.78125H6.28125C5.875 1.78125 5.56771 1.88802 5.35938 2.10156C5.15625 2.3099 5.05469 2.60938 5.05469 3V4.85156H3.79688ZM10.8672 5.60156C10.8672 5.74219 10.8958 5.84375 10.9531 5.90625C11.0156 5.96354 11.1146 5.99219 11.25 5.99219H14.3984L10.8672 2.39844V5.60156ZM0.0078125 17.7266V6.875C0.0078125 6.0625 0.208333 5.45052 0.609375 5.03906C1.01562 4.6276 1.6224 4.42188 2.42969 4.42188H5.1875C5.625 4.42188 5.98698 4.46875 6.27344 4.5625C6.5599 4.65625 6.85156 4.85677 7.14844 5.16406L11.4531 9.54688C11.6615 9.76042 11.8177 9.96354 11.9219 10.1562C12.0312 10.3438 12.1042 10.5521 12.1406 10.7812C12.1771 11.0104 12.1953 11.2917 12.1953 11.625V17.7266C12.1953 18.5391 11.9922 19.151 11.5859 19.5625C11.1849 19.974 10.5807 20.1797 9.77344 20.1797H2.42969C1.6224 20.1797 1.01562 19.974 0.609375 19.5625C0.208333 19.1562 0.0078125 18.5443 0.0078125 17.7266ZM1.26562 17.7031C1.26562 18.0938 1.36719 18.3932 1.57031 18.6016C1.77865 18.8151 2.08333 18.9219 2.48438 18.9219H9.71094C10.112 18.9219 10.4167 18.8151 10.625 18.6016C10.8333 18.3932 10.9375 18.0938 10.9375 17.7031V11.6875H6.52344C6.03906 11.6875 5.67188 11.5651 5.42188 11.3203C5.17708 11.0755 5.05469 10.7057 5.05469 10.2109V5.67969H2.49219C2.08594 5.67969 1.77865 5.78646 1.57031 6C1.36719 6.20833 1.26562 6.50521 1.26562 6.89062V17.7031ZM6.67188 10.5078H10.6953L6.23438 5.96875V10.0703C6.23438 10.2266 6.26823 10.3385 6.33594 10.4062C6.40365 10.474 6.51562 10.5078 6.67188 10.5078Z" fill="#288ED2"/>
</svg>
