<svg width="18" height="16" viewBox="0 0 18 16" fill="none" xmlns="http://www.w3.org/2000/svg">
<path d="M5.875 5.33594C4.42969 5.33594 3.26562 4.17188 3.26562 2.72656C3.26562 1.28125 4.42969 0.117188 5.875 0.117188C7.32031 0.117188 8.48438 1.28125 8.48438 2.72656C8.48438 4.17188 7.32031 5.33594 5.875 5.33594ZM11.6172 5.33594C10.1719 5.33594 9.00781 4.17188 9.00781 2.72656C9.00781 1.28125 10.1719 0.117188 11.6172 0.117188C13.0625 0.117188 14.2266 1.28125 14.2266 2.72656C14.2266 4.17188 13.0625 5.33594 11.6172 5.33594ZM5.875 4.07812C6.61719 4.07812 7.22656 3.47656 7.22656 2.72656C7.22656 1.98438 6.61719 1.375 5.875 1.375C5.13281 1.375 4.52344 1.98438 4.52344 2.72656C4.52344 3.47656 5.13281 4.07812 5.875 4.07812ZM11.6172 4.07812C12.3672 4.07812 12.9688 3.47656 12.9688 2.72656C12.9688 1.98438 12.3672 1.375 11.6172 1.375C10.875 1.375 10.2656 1.98438 10.2656 2.72656C10.2656 3.47656 10.875 4.07812 11.6172 4.07812ZM8.75 10.4688C7.30469 10.4688 6.13281 9.30469 6.13281 7.85938C6.13281 6.41406 7.30469 5.25 8.75 5.25C10.1875 5.25 11.3594 6.41406 11.3594 7.85938C11.3594 9.30469 10.1875 10.4688 8.75 10.4688ZM3.00781 10.4688C1.57031 10.4688 0.398438 9.30469 0.398438 7.85938C0.398438 6.41406 1.57031 5.25 3.00781 5.25C4.45312 5.25 5.625 6.41406 5.625 7.85938C5.625 9.30469 4.45312 10.4688 3.00781 10.4688ZM14.4844 10.4688C13.0391 10.4688 11.8672 9.30469 11.8672 7.85938C11.8672 6.41406 13.0391 5.25 14.4844 5.25C15.9297 5.25 17.0938 6.41406 17.0938 7.85938C17.0938 9.30469 15.9297 10.4688 14.4844 10.4688ZM8.75 9.21094C9.49219 9.21094 10.1016 8.60156 10.1016 7.85938C10.1016 7.10938 9.49219 6.50781 8.75 6.50781C8 6.50781 7.39062 7.10938 7.39062 7.85938C7.39062 8.60156 8 9.21094 8.75 9.21094ZM3.00781 9.21094C3.75781 9.21094 4.36719 8.60156 4.36719 7.85938C4.36719 7.10938 3.75781 6.50781 3.00781 6.50781C2.26562 6.50781 1.65625 7.10938 1.65625 7.85938C1.65625 8.60156 2.26562 9.21094 3.00781 9.21094ZM14.4844 9.21094C15.2266 9.21094 15.8359 8.60156 15.8359 7.85938C15.8359 7.10938 15.2266 6.50781 14.4844 6.50781C13.7344 6.50781 13.125 7.10938 13.125 7.85938C13.125 8.60156 13.7344 9.21094 14.4844 9.21094ZM5.875 15.6094C4.42969 15.6094 3.26562 14.4375 3.26562 13C3.26562 11.5547 4.42969 10.3828 5.875 10.3828C7.32031 10.3828 8.48438 11.5547 8.48438 13C8.48438 14.4375 7.32031 15.6094 5.875 15.6094ZM11.6172 15.6094C10.1719 15.6094 9.00781 14.4375 9.00781 13C9.00781 11.5547 10.1719 10.3828 11.6172 10.3828C13.0625 10.3828 14.2266 11.5547 14.2266 13C14.2266 14.4375 13.0625 15.6094 11.6172 15.6094ZM5.875 14.3516C6.61719 14.3516 7.22656 13.7422 7.22656 13C7.22656 12.25 6.61719 11.6406 5.875 11.6406C5.13281 11.6406 4.52344 12.25 4.52344 13C4.52344 13.7422 5.13281 14.3516 5.875 14.3516ZM11.6172 14.3516C12.3672 14.3516 12.9688 13.7422 12.9688 13C12.9688 12.25 12.3672 11.6406 11.6172 11.6406C10.875 11.6406 10.2656 12.25 10.2656 13C10.2656 13.7422 10.875 14.3516 11.6172 14.3516Z" fill="#272D31"/>
</svg>
