<svg width="15" height="17" viewBox="0 0 15 17" fill="none" xmlns="http://www.w3.org/2000/svg">
<path d="M0.601562 9.9375C0.601562 8.98438 0.778646 8.09115 1.13281 7.25781C1.49219 6.42448 1.98698 5.69271 2.61719 5.0625C3.2526 4.42708 3.98698 3.93229 4.82031 3.57812C5.65365 3.21875 6.54688 3.03906 7.5 3.03906C7.73958 3.03906 7.97396 3.05208 8.20312 3.07812C8.43229 3.09896 8.64583 3.13021 8.84375 3.17188L6.77344 1.10156C6.71615 1.03906 6.67188 0.96875 6.64062 0.890625C6.61458 0.8125 6.60156 0.734375 6.60156 0.65625C6.60156 0.473958 6.65885 0.322917 6.77344 0.203125C6.89323 0.078125 7.03906 0.015625 7.21094 0.015625C7.40365 0.015625 7.55729 0.078125 7.67188 0.203125L10.8828 3.46875C11.0182 3.60417 11.0859 3.76042 11.0859 3.9375C11.0859 4.02604 11.0703 4.10938 11.0391 4.1875C11.0078 4.26562 10.9557 4.33854 10.8828 4.40625L7.66406 7.64062C7.53906 7.76042 7.38802 7.82031 7.21094 7.82031C7.03906 7.82031 6.89323 7.76042 6.77344 7.64062C6.65885 7.52083 6.60156 7.3724 6.60156 7.19531C6.60156 7.11198 6.61458 7.03385 6.64062 6.96094C6.66667 6.88281 6.71354 6.8125 6.78125 6.75L9.10938 4.4375C8.88021 4.38542 8.6276 4.34896 8.35156 4.32812C8.08073 4.30208 7.79688 4.28906 7.5 4.28906C6.72396 4.28906 5.99479 4.4349 5.3125 4.72656C4.63021 5.01823 4.02865 5.42448 3.50781 5.94531C2.99219 6.46094 2.58854 7.0599 2.29688 7.74219C2.00521 8.42448 1.85938 9.15365 1.85938 9.92969C1.85938 10.7109 2.00521 11.4427 2.29688 12.125C2.58854 12.8073 2.99219 13.4062 3.50781 13.9219C4.02865 14.4375 4.63021 14.8411 5.3125 15.1328C5.99479 15.4245 6.72396 15.5703 7.5 15.5703C8.28125 15.5703 9.01302 15.4245 9.69531 15.1328C10.3776 14.8411 10.9766 14.4375 11.4922 13.9219C12.0078 13.4062 12.4115 12.8073 12.7031 12.125C12.9948 11.4427 13.1406 10.7109 13.1406 9.92969C13.1406 9.74219 13.1953 9.58854 13.3047 9.46875C13.4141 9.34375 13.5625 9.28125 13.75 9.28125C13.9427 9.28125 14.099 9.34375 14.2188 9.46875C14.3385 9.58854 14.3984 9.74479 14.3984 9.9375C14.3984 10.8906 14.2188 11.7839 13.8594 12.6172C13.5052 13.4505 13.0104 14.1849 12.375 14.8203C11.7448 15.4505 11.013 15.9427 10.1797 16.2969C9.34635 16.6562 8.45312 16.8359 7.5 16.8359C6.54688 16.8359 5.65365 16.6562 4.82031 16.2969C3.98698 15.9427 3.2526 15.4505 2.61719 14.8203C1.98698 14.1849 1.49219 13.4505 1.13281 12.6172C0.778646 11.7839 0.601562 10.8906 0.601562 9.9375Z" fill="#288ED2"/>
</svg>
