<svg width="14" height="16" viewBox="0 0 14 16" fill="none" xmlns="http://www.w3.org/2000/svg">
<path d="M6.58789 15.3984C6.17643 15.3984 5.8457 15.2656 5.5957 15C5.3457 14.7396 5.2207 14.3932 5.2207 13.9609V6.15625L5.36914 2.89844L6.12695 3.48438L4.14258 5.85938L2.40039 7.60938C2.27539 7.73438 2.13216 7.83854 1.9707 7.92188C1.81445 8.00521 1.63216 8.04688 1.42383 8.04688C1.05924 8.04688 0.751953 7.92708 0.501953 7.6875C0.257161 7.44271 0.134766 7.1276 0.134766 6.74219C0.134766 6.3724 0.275391 6.04688 0.556641 5.76562L5.58789 0.726562C5.70768 0.601562 5.85872 0.505208 6.04102 0.4375C6.22331 0.364583 6.4056 0.328125 6.58789 0.328125C6.77018 0.328125 6.95247 0.364583 7.13477 0.4375C7.31706 0.505208 7.4707 0.601562 7.5957 0.726562L12.627 5.76562C12.9082 6.04688 13.0488 6.3724 13.0488 6.74219C13.0488 7.1276 12.9238 7.44271 12.6738 7.6875C12.429 7.92708 12.1243 8.04688 11.7598 8.04688C11.5514 8.04688 11.3665 8.00521 11.2051 7.92188C11.0488 7.83854 10.9082 7.73438 10.7832 7.60938L9.0332 5.85938L7.04883 3.48438L7.80664 2.89844L7.94727 6.15625V13.9609C7.94727 14.3932 7.82227 14.7396 7.57227 15C7.32227 15.2656 6.99414 15.3984 6.58789 15.3984Z" fill="white"/>
</svg>
