<svg width="15" height="15" viewBox="0 0 15 15" fill="none" xmlns="http://www.w3.org/2000/svg">
<path d="M2.44531 14.5547C0.8125 14.5547 -0.0078125 13.75 -0.0078125 12.1406V2.59375C-0.0078125 0.984375 0.8125 0.171875 2.44531 0.171875H11.9219C13.5625 0.171875 14.375 0.984375 14.375 2.59375V12.1406C14.375 13.75 13.5625 14.5547 11.9219 14.5547H2.44531ZM9.71094 9.35938C10.0625 9.35938 10.3047 9.08594 10.3047 8.71094V4.91406C10.3047 4.4375 10.0391 4.25 9.625 4.25H5.8125C5.42969 4.25 5.1875 4.48438 5.1875 4.84375C5.1875 5.19531 5.4375 5.42969 5.82812 5.42969H7.28125L8.47656 5.30469L7.21875 6.47656L4.25781 9.42969C4.14062 9.54688 4.07031 9.71094 4.07031 9.86719C4.07031 10.2344 4.30469 10.4688 4.65625 10.4688C4.85156 10.4688 5.00781 10.3984 5.125 10.2812L8.07031 7.32812L9.23438 6.08594L9.11719 7.34375V8.72656C9.11719 9.10938 9.35156 9.35938 9.71094 9.35938Z" fill="#288ED2"/>
</svg>
