<svg width="900" height="87" viewBox="0 0 900 87" fill="none" xmlns="http://www.w3.org/2000/svg">
<rect width="900" height="87" rx="14" fill="white"/>
<path d="M884 71L877.71 62.9027C871.42 54.8053 858.841 38.6106 846.261 38.4498C833.681 38.2889 821.101 54.1619 808.522 57.2009C795.942 60.24 783.362 50.445 770.783 40.107C758.203 29.7689 745.623 18.8878 733.043 20.3322C720.464 21.7766 707.884 35.5466 695.304 45.1508C682.725 54.7551 670.145 60.1936 657.565 63.4825C644.986 66.7714 632.406 67.9107 619.826 65.3724C607.246 62.8341 594.667 56.6181 582.087 49.0304C569.507 41.4427 556.928 32.4832 544.348 30.7729C531.768 29.0626 519.188 34.6014 506.609 41.0885C494.029 47.5756 481.449 55.011 468.87 59.1283C456.29 63.2456 443.71 64.0449 431.13 66.8141C418.551 69.5833 405.971 74.3223 393.391 67.3145C380.812 60.3068 368.232 41.5523 355.652 29.3854C343.072 17.2185 330.493 11.6392 317.913 19.9581C305.333 28.277 292.754 50.4941 280.174 56.7118C267.594 62.9295 255.015 53.1477 242.435 51.6722C229.855 50.1967 217.275 57.0275 204.696 62.4748C192.116 67.9222 179.536 71.9861 166.957 70.0762C154.377 68.1663 141.797 60.2827 129.217 56.3694C116.638 52.4561 104.058 52.513 91.4783 50.4294C78.8986 48.3459 66.3188 44.1217 53.7391 44.2357C41.1594 44.3498 28.5797 48.8019 22.2899 51.028L16 53.254" stroke="#007AFF" stroke-width="2"/>
</svg>
