<svg width="734" height="138" viewBox="0 0 734 138" fill="none" xmlns="http://www.w3.org/2000/svg">
<rect width="733" height="138" transform="translate(1)" fill="white"/>
<path d="M80.3691 7V135.988" stroke="#C7C7CC" stroke-width="0.5" stroke-dasharray="2.01 2.01"/>
<path d="M159.738 7V135.988" stroke="#C7C7CC" stroke-width="0.5" stroke-dasharray="2.01 2.01"/>
<path d="M239.107 7V135.988" stroke="#C7C7CC" stroke-width="0.5" stroke-dasharray="2.01 2.01"/>
<path d="M318.477 7V135.988" stroke="#C7C7CC" stroke-width="0.5" stroke-dasharray="2.01 2.01"/>
<path d="M397.848 7V135.988" stroke="#C7C7CC" stroke-width="0.5" stroke-dasharray="2.01 2.01"/>
<path d="M477.217 7V135.988" stroke="#C7C7CC" stroke-width="0.5" stroke-dasharray="2.01 2.01"/>
<path d="M556.586 7V135.988" stroke="#C7C7CC" stroke-width="0.5" stroke-dasharray="2.01 2.01"/>
<path d="M1 29.6895H694" stroke="#C7C7CC" stroke-width="0.5"/>
<path d="M1 52.501H694" stroke="#C7C7CC" stroke-width="0.5"/>
<path d="M1 75.3135H694" stroke="#C7C7CC" stroke-width="0.5"/>
<path d="M1 98.125H694" stroke="#C7C7CC" stroke-width="0.5"/>
<mask id="path-12-outside-1_2371_604" maskUnits="userSpaceOnUse" x="0" y="6.04492" width="695" height="132" fill="black">
<rect fill="white" y="6.04492" width="695" height="132"/>
<path d="M1 7.04492H694V137.878H1V7.04492Z"/>
</mask>
<path d="M1 7.04492V6.54492H0.5V7.04492H1ZM694 7.04492H694.5V6.54492H694V7.04492ZM1 7.54492H694V6.54492H1V7.54492ZM693.5 7.04492V137.878H694.5V7.04492H693.5ZM1.5 137.878V7.04492H0.5V137.878H1.5Z" fill="#C7C7CC" mask="url(#path-12-outside-1_2371_604)"/>
<path opacity="0.3" d="M197 7H223V111.8C223 112.92 223 113.48 222.782 113.908C222.59 114.284 222.284 114.59 221.908 114.782C221.48 115 220.92 115 219.8 115H200.2C199.08 115 198.52 115 198.092 114.782C197.716 114.59 197.41 114.284 197.218 113.908C197 113.48 197 112.92 197 111.8V7Z" fill="#34C759"/>
<path opacity="0.3" d="M190 7H196V111C196 111.92 196 112.38 195.853 112.743C195.648 113.248 195.248 113.648 194.743 113.853C194.38 114 193.92 114 193 114C192.08 114 191.62 114 191.257 113.853C190.752 113.648 190.352 113.248 190.147 112.743C190 112.38 190 111.92 190 111V7Z" fill="#34C759"/>
<path opacity="0.3" d="M180 7H189V110.8C189 111.92 189 112.48 188.782 112.908C188.59 113.284 188.284 113.59 187.908 113.782C187.48 114 186.92 114 185.8 114H183.2C182.08 114 181.52 114 181.092 113.782C180.716 113.59 180.41 113.284 180.218 112.908C180 112.48 180 111.92 180 110.8V7Z" fill="#34C759"/>
<rect x="197" y="110" width="26" height="5" rx="2" fill="#34C759"/>
<rect x="190" y="110.433" width="6" height="4.30492" rx="2" fill="#34C759"/>
<rect x="180" y="110.433" width="9" height="4.30492" rx="2" fill="#34C759"/>
<path d="M207.66 114.5L206.37 119.081C206.37 119.081 206.37 119.081 206.37 119.081C206.37 119.081 206.37 119.081 206.37 119.082C206.284 119.388 206.294 119.717 206.402 120.018C206.51 120.32 206.715 120.593 207.003 120.776C207.293 120.961 207.644 121.038 207.993 120.982C208.341 120.927 208.644 120.747 208.861 120.495L216.18 111.996C216.18 111.996 216.18 111.996 216.18 111.996C216.367 111.779 216.484 111.517 216.527 111.246C216.571 110.974 216.542 110.693 216.44 110.434C216.337 110.175 216.163 109.941 215.924 109.77L215.341 110.582L215.924 109.77C215.685 109.598 215.395 109.5 215.089 109.5C215.089 109.5 215.089 109.5 215.089 109.5H213.37L214.659 104.92C214.659 104.92 214.659 104.92 214.659 104.92C214.659 104.92 214.659 104.919 214.659 104.919C214.746 104.612 214.735 104.283 214.627 103.982L214.627 103.982C214.592 103.882 214.545 103.786 214.489 103.695V103.517L214.024 103.223C213.734 103.039 213.384 102.962 213.036 103.018C212.688 103.073 212.386 103.253 212.169 103.505C212.169 103.505 212.169 103.505 212.169 103.505C212.169 103.505 212.169 103.505 212.169 103.505L204.85 112.004C204.663 112.221 204.546 112.483 204.502 112.754C204.458 113.026 204.488 113.307 204.59 113.566L205.52 113.198L204.59 113.566C204.692 113.825 204.867 114.059 205.105 114.23C205.105 114.23 205.105 114.23 205.105 114.23L207.66 114.5ZM207.66 114.5H205.941H207.66Z" fill="#34C759" stroke="white" stroke-width="2"/>
<path opacity="0.3" d="M14.084 7.04492H81.084V107.845C81.084 108.965 81.084 109.525 80.866 109.953C80.6742 110.329 80.3683 110.635 79.992 110.827C79.5641 111.045 79.0041 111.045 77.884 111.045H17.284C16.1639 111.045 15.6038 111.045 15.176 110.827C14.7997 110.635 14.4937 110.329 14.302 109.953C14.084 109.525 14.084 108.965 14.084 107.845V7.04492Z" fill="#34C759"/>
<rect x="51.3711" y="109.521" width="29.6282" height="4.41167" rx="2" fill="#34C759"/>
<rect x="14" y="109.521" width="37.3719" height="4.41167" rx="2" fill="#34C759"/>
<path d="M63.66 113.5L62.3703 118.081C62.3702 118.081 62.3702 118.081 62.3701 118.081C62.3701 118.081 62.3701 118.081 62.37 118.082C62.2835 118.388 62.2942 118.717 62.4019 119.018C62.5098 119.32 62.7151 119.593 63.003 119.776C63.2932 119.961 63.6435 120.038 63.9927 119.982C64.3406 119.927 64.6439 119.747 64.861 119.495L72.1797 110.996C72.1799 110.996 72.1801 110.996 72.1803 110.996C72.367 110.779 72.4838 110.517 72.5275 110.246C72.5712 109.974 72.5419 109.693 72.4397 109.434C72.3374 109.175 72.1625 108.941 71.9242 108.77L71.3409 109.582L71.9242 108.77C71.6848 108.598 71.3945 108.5 71.0895 108.5C71.0893 108.5 71.0892 108.5 71.089 108.5H69.3696L70.6593 103.92C70.6594 103.92 70.6594 103.92 70.6595 103.92C70.6595 103.92 70.6595 103.919 70.6595 103.919C70.7461 103.612 70.7353 103.283 70.6273 102.982L70.6273 102.982C70.5916 102.882 70.5454 102.786 70.4892 102.695V102.517L70.0245 102.223C69.7342 102.039 69.3843 101.962 69.0356 102.018C68.6883 102.073 68.3856 102.253 68.1688 102.505C68.1687 102.505 68.1687 102.505 68.1686 102.505C68.1686 102.505 68.1686 102.505 68.1686 102.505L60.8499 111.004C60.6628 111.221 60.5458 111.483 60.5021 111.754C60.4583 112.026 60.4877 112.307 60.5899 112.566L61.5199 112.198L60.5899 112.566C60.6922 112.825 60.867 113.059 61.1053 113.23C61.1053 113.23 61.1053 113.23 61.1053 113.23L63.66 113.5ZM63.66 113.5H61.9405H63.66Z" fill="#34C759" stroke="white" stroke-width="2"/>
<path d="M29.66 114.5L28.3703 119.081C28.3702 119.081 28.3702 119.081 28.3701 119.081C28.3701 119.081 28.3701 119.081 28.37 119.082C28.2835 119.388 28.2942 119.717 28.4019 120.018C28.5098 120.32 28.7151 120.593 29.003 120.776C29.2932 120.961 29.6435 121.038 29.9927 120.982C30.3406 120.927 30.6439 120.747 30.861 120.495L38.1797 111.996C38.1799 111.996 38.1801 111.996 38.1803 111.996C38.367 111.779 38.4838 111.517 38.5275 111.246C38.5712 110.974 38.5419 110.693 38.4397 110.434C38.3374 110.175 38.1625 109.941 37.9242 109.77L37.3409 110.582L37.9242 109.77C37.6848 109.598 37.3945 109.5 37.0895 109.5C37.0893 109.5 37.0892 109.5 37.089 109.5H35.3696L36.6593 104.92C36.6594 104.92 36.6594 104.92 36.6595 104.92C36.6595 104.92 36.6595 104.919 36.6595 104.919C36.7461 104.612 36.7353 104.283 36.6273 103.982L36.6273 103.982C36.5916 103.882 36.5454 103.786 36.4892 103.695V103.517L36.0245 103.223C35.7342 103.039 35.3843 102.962 35.0356 103.018C34.6883 103.073 34.3856 103.253 34.1688 103.505C34.1687 103.505 34.1687 103.505 34.1686 103.505C34.1686 103.505 34.1686 103.505 34.1686 103.505L26.8499 112.004C26.6628 112.221 26.5458 112.483 26.5021 112.754C26.4583 113.026 26.4877 113.307 26.5899 113.566L27.5199 113.198L26.5899 113.566C26.6922 113.825 26.867 114.059 27.1053 114.23C27.1053 114.23 27.1053 114.23 27.1053 114.23L29.66 114.5ZM29.66 114.5H27.9405H29.66Z" fill="#34C759" stroke="white" stroke-width="2"/>
<path d="M8.98438 134.211C6.97461 134.211 5.76758 132.506 5.76758 129.775V129.764C5.76758 127.033 6.97461 125.334 8.98438 125.334C10.9941 125.334 12.2129 127.033 12.2129 129.764V129.775C12.2129 132.506 10.9941 134.211 8.98438 134.211ZM8.98438 132.986C10.0625 132.986 10.6895 131.779 10.6895 129.775V129.764C10.6895 127.76 10.0625 126.564 8.98438 126.564C7.90625 126.564 7.29102 127.76 7.29102 129.764V129.775C7.29102 131.779 7.90625 132.986 8.98438 132.986ZM16.9648 134.211C14.9551 134.211 13.748 132.506 13.748 129.775V129.764C13.748 127.033 14.9551 125.334 16.9648 125.334C18.9746 125.334 20.1934 127.033 20.1934 129.764V129.775C20.1934 132.506 18.9746 134.211 16.9648 134.211ZM16.9648 132.986C18.043 132.986 18.6699 131.779 18.6699 129.775V129.764C18.6699 127.76 18.043 126.564 16.9648 126.564C15.8867 126.564 15.2715 127.76 15.2715 129.764V129.775C15.2715 131.779 15.8867 132.986 16.9648 132.986Z" fill="#C7C7CC"/>
<path d="M95.1094 134.211C93.0996 134.211 91.8926 132.506 91.8926 129.775V129.764C91.8926 127.033 93.0996 125.334 95.1094 125.334C97.1191 125.334 98.3379 127.033 98.3379 129.764V129.775C98.3379 132.506 97.1191 134.211 95.1094 134.211ZM95.1094 132.986C96.1875 132.986 96.8145 131.779 96.8145 129.775V129.764C96.8145 127.76 96.1875 126.564 95.1094 126.564C94.0312 126.564 93.416 127.76 93.416 129.764V129.775C93.416 131.779 94.0312 132.986 95.1094 132.986ZM102.99 134.17C101.139 134.17 99.9258 133.162 99.8145 131.715L99.8086 131.645H101.25L101.256 131.709C101.338 132.424 102 132.934 102.99 132.934C103.969 132.934 104.619 132.389 104.619 131.604V131.592C104.619 130.701 103.963 130.209 102.879 130.209H101.883V129.084H102.85C103.781 129.084 104.402 128.557 104.402 127.818V127.807C104.402 127.033 103.881 126.576 102.979 126.576C102.088 126.576 101.473 127.051 101.396 127.807L101.391 127.865H99.9844L99.9902 127.801C100.119 126.336 101.273 125.375 102.979 125.375C104.719 125.375 105.85 126.283 105.85 127.607V127.619C105.85 128.668 105.094 129.365 104.08 129.576V129.605C105.322 129.723 106.148 130.461 106.148 131.633V131.645C106.148 133.133 104.865 134.17 102.99 134.17Z" fill="#C7C7CC"/>
<path d="M181.234 134.211C179.225 134.211 178.018 132.506 178.018 129.775V129.764C178.018 127.033 179.225 125.334 181.234 125.334C183.244 125.334 184.463 127.033 184.463 129.764V129.775C184.463 132.506 183.244 134.211 181.234 134.211ZM181.234 132.986C182.312 132.986 182.939 131.779 182.939 129.775V129.764C182.939 127.76 182.312 126.564 181.234 126.564C180.156 126.564 179.541 127.76 179.541 129.764V129.775C179.541 131.779 180.156 132.986 181.234 132.986ZM189.344 134.211C187.539 134.211 185.969 132.928 185.969 129.881V129.869C185.969 127.021 187.252 125.334 189.379 125.334C190.932 125.334 192.092 126.254 192.361 127.549L192.373 127.613H190.891L190.867 127.555C190.645 126.963 190.123 126.576 189.379 126.576C188.037 126.576 187.469 127.889 187.404 129.506C187.404 129.57 187.398 129.635 187.398 129.699H187.516C187.826 129.031 188.564 128.439 189.725 128.439C191.348 128.439 192.484 129.623 192.484 131.229V131.24C192.484 132.957 191.178 134.211 189.344 134.211ZM187.662 131.258C187.662 132.225 188.395 132.98 189.332 132.98C190.27 132.98 191.008 132.236 191.008 131.293V131.281C191.008 130.303 190.311 129.6 189.35 129.6C188.395 129.6 187.662 130.291 187.662 131.246V131.258Z" fill="#C7C7CC"/>
<path d="M267.359 134.211C265.35 134.211 264.143 132.506 264.143 129.775V129.764C264.143 127.033 265.35 125.334 267.359 125.334C269.369 125.334 270.588 127.033 270.588 129.764V129.775C270.588 132.506 269.369 134.211 267.359 134.211ZM267.359 132.986C268.438 132.986 269.064 131.779 269.064 129.775V129.764C269.064 127.76 268.438 126.564 267.359 126.564C266.281 126.564 265.666 127.76 265.666 129.764V129.775C265.666 131.779 266.281 132.986 267.359 132.986ZM275.24 125.334C277.045 125.334 278.615 126.617 278.615 129.664V129.676C278.615 132.523 277.332 134.211 275.205 134.211C273.652 134.211 272.492 133.291 272.223 131.996L272.211 131.932H273.699L273.717 131.99C273.939 132.582 274.461 132.969 275.205 132.969C276.547 132.969 277.115 131.656 277.18 130.039C277.18 129.975 277.186 129.91 277.186 129.846H277.068C276.758 130.514 276.02 131.105 274.859 131.105C273.236 131.105 272.1 129.922 272.1 128.316V128.305C272.1 126.588 273.406 125.334 275.24 125.334ZM275.234 129.945C276.189 129.945 276.922 129.254 276.922 128.299V128.287C276.922 127.32 276.189 126.564 275.252 126.564C274.32 126.564 273.576 127.309 273.576 128.252V128.264C273.576 129.242 274.273 129.945 275.234 129.945Z" fill="#C7C7CC"/>
<path d="M352.453 134V127.033H352.354L350.25 128.521V127.098L352.459 125.545H353.965V134H352.453ZM356.314 134V132.98L359.092 130.145C360.24 128.984 360.562 128.557 360.562 127.906V127.889C360.562 127.109 360.029 126.547 359.15 126.547C358.254 126.547 357.65 127.139 357.65 128.012L357.645 128.035L356.238 128.029L356.232 128.012C356.232 126.436 357.463 125.334 359.227 125.334C360.873 125.334 362.057 126.336 362.057 127.76V127.777C362.057 128.738 361.594 129.5 360.053 130.982L358.359 132.623V132.746H362.186V134H356.314Z" fill="#C7C7CC"/>
<path d="M438.578 134V127.033H438.479L436.375 128.521V127.098L438.584 125.545H440.09V134H438.578ZM445.492 134.211C443.764 134.211 442.598 133.156 442.486 131.768L442.48 131.691H443.875L443.881 131.732C443.992 132.424 444.631 132.975 445.498 132.975C446.488 132.975 447.168 132.277 447.168 131.281V131.27C447.168 130.285 446.477 129.594 445.51 129.594C445.035 129.594 444.625 129.734 444.314 130.016C444.162 130.145 444.021 130.309 443.922 130.496H442.627L443.037 125.545H448.111V126.787H444.215L443.98 129.359H444.08C444.432 128.791 445.088 128.451 445.885 128.451C447.461 128.451 448.604 129.623 448.604 131.24V131.252C448.604 133.01 447.32 134.211 445.492 134.211Z" fill="#C7C7CC"/>
<path d="M524.703 134V127.033H524.604L522.5 128.521V127.098L524.709 125.545H526.215V134H524.703ZM531.723 134.17C529.777 134.17 528.424 133.162 528.424 131.715V131.703C528.424 130.619 529.215 129.781 530.34 129.553V129.518C529.373 129.26 528.729 128.551 528.729 127.643V127.631C528.729 126.33 529.971 125.375 531.723 125.375C533.475 125.375 534.717 126.33 534.717 127.631V127.643C534.717 128.551 534.072 129.26 533.105 129.518V129.553C534.236 129.781 535.021 130.619 535.021 131.703V131.715C535.021 133.162 533.668 134.17 531.723 134.17ZM531.723 129.037C532.607 129.037 533.223 128.521 533.223 127.783V127.771C533.223 127.033 532.607 126.518 531.723 126.518C530.838 126.518 530.223 127.033 530.223 127.771V127.783C530.223 128.521 530.838 129.037 531.723 129.037ZM531.723 133.016C532.736 133.016 533.457 132.43 533.457 131.615V131.604C533.457 130.783 532.742 130.191 531.723 130.191C530.697 130.191 529.988 130.783 529.988 131.604V131.615C529.988 132.43 530.709 133.016 531.723 133.016Z" fill="#C7C7CC"/>
<path d="M608.76 134V132.98L611.537 130.145C612.686 128.984 613.008 128.557 613.008 127.906V127.889C613.008 127.109 612.475 126.547 611.596 126.547C610.699 126.547 610.096 127.139 610.096 128.012L610.09 128.035L608.684 128.029L608.678 128.012C608.678 126.436 609.908 125.334 611.672 125.334C613.318 125.334 614.502 126.336 614.502 127.76V127.777C614.502 128.738 614.039 129.5 612.498 130.982L610.805 132.623V132.746H614.631V134H608.76ZM618.375 134V127.033H618.275L616.172 128.521V127.098L618.381 125.545H619.887V134H618.375Z" fill="#C7C7CC"/>
<path d="M702.953 13V6.0332H702.854L700.75 7.52148V6.09766L702.959 4.54492H704.465V13H702.953ZM709.914 13.2109C707.904 13.2109 706.697 11.5059 706.697 8.77539V8.76367C706.697 6.0332 707.904 4.33398 709.914 4.33398C711.924 4.33398 713.143 6.0332 713.143 8.76367V8.77539C713.143 11.5059 711.924 13.2109 709.914 13.2109ZM709.914 11.9863C710.992 11.9863 711.619 10.7793 711.619 8.77539V8.76367C711.619 6.75977 710.992 5.56445 709.914 5.56445C708.836 5.56445 708.221 6.75977 708.221 8.76367V8.77539C708.221 10.7793 708.836 11.9863 709.914 11.9863ZM717.895 13.2109C715.885 13.2109 714.678 11.5059 714.678 8.77539V8.76367C714.678 6.0332 715.885 4.33398 717.895 4.33398C719.904 4.33398 721.123 6.0332 721.123 8.76367V8.77539C721.123 11.5059 719.904 13.2109 717.895 13.2109ZM717.895 11.9863C718.973 11.9863 719.6 10.7793 719.6 8.77539V8.76367C719.6 6.75977 718.973 5.56445 717.895 5.56445C716.816 5.56445 716.201 6.75977 716.201 8.76367V8.77539C716.201 10.7793 716.816 11.9863 717.895 11.9863ZM724.557 9.10938C723.373 9.10938 722.658 8.21289 722.658 6.77148V6.76562C722.658 5.32422 723.373 4.42773 724.557 4.42773C725.734 4.42773 726.455 5.32422 726.455 6.76562V6.77148C726.455 8.21289 725.734 9.10938 724.557 9.10938ZM725.611 13H724.404L730.117 4.54492H731.324L725.611 13ZM724.557 8.25977C725.09 8.25977 725.4 7.71484 725.4 6.77148V6.76562C725.4 5.81641 725.09 5.27734 724.557 5.27734C724.018 5.27734 723.719 5.81641 723.719 6.76562V6.77148C723.719 7.71484 724.018 8.25977 724.557 8.25977ZM731.172 13.1172C729.988 13.1172 729.268 12.2148 729.268 10.7734V10.7676C729.268 9.32617 729.988 8.43555 731.172 8.43555C732.35 8.43555 733.07 9.32617 733.07 10.7676V10.7734C733.07 12.2148 732.35 13.1172 731.172 13.1172ZM731.172 12.2676C731.705 12.2676 732.016 11.7227 732.016 10.7734V10.7676C732.016 9.82422 731.705 9.28516 731.172 9.28516C730.633 9.28516 730.328 9.82422 730.328 10.7676V10.7734C730.328 11.7227 730.633 12.2676 731.172 12.2676Z" fill="#C7C7CC"/>
<path d="M703.938 57.8779C702.209 57.8779 701.043 56.8232 700.932 55.4346L700.926 55.3584H702.32L702.326 55.3994C702.438 56.0908 703.076 56.6416 703.943 56.6416C704.934 56.6416 705.613 55.9443 705.613 54.9482V54.9365C705.613 53.9521 704.922 53.2607 703.955 53.2607C703.48 53.2607 703.07 53.4014 702.76 53.6826C702.607 53.8115 702.467 53.9756 702.367 54.1631H701.072L701.482 49.2119H706.557V50.4541H702.66L702.426 53.0264H702.525C702.877 52.458 703.533 52.1182 704.33 52.1182C705.906 52.1182 707.049 53.29 707.049 54.9072V54.9189C707.049 56.6768 705.766 57.8779 703.938 57.8779ZM711.754 57.8779C709.744 57.8779 708.537 56.1729 708.537 53.4424V53.4307C708.537 50.7002 709.744 49.001 711.754 49.001C713.764 49.001 714.982 50.7002 714.982 53.4307V53.4424C714.982 56.1729 713.764 57.8779 711.754 57.8779ZM711.754 56.6533C712.832 56.6533 713.459 55.4463 713.459 53.4424V53.4307C713.459 51.4268 712.832 50.2314 711.754 50.2314C710.676 50.2314 710.061 51.4268 710.061 53.4307V53.4424C710.061 55.4463 710.676 56.6533 711.754 56.6533ZM718.416 53.7764C717.232 53.7764 716.518 52.8799 716.518 51.4385V51.4326C716.518 49.9912 717.232 49.0947 718.416 49.0947C719.594 49.0947 720.314 49.9912 720.314 51.4326V51.4385C720.314 52.8799 719.594 53.7764 718.416 53.7764ZM719.471 57.667H718.264L723.977 49.2119H725.184L719.471 57.667ZM718.416 52.9268C718.949 52.9268 719.26 52.3818 719.26 51.4385V51.4326C719.26 50.4834 718.949 49.9443 718.416 49.9443C717.877 49.9443 717.578 50.4834 717.578 51.4326V51.4385C717.578 52.3818 717.877 52.9268 718.416 52.9268ZM725.031 57.7842C723.848 57.7842 723.127 56.8818 723.127 55.4404V55.4346C723.127 53.9932 723.848 53.1025 725.031 53.1025C726.209 53.1025 726.93 53.9932 726.93 55.4346V55.4404C726.93 56.8818 726.209 57.7842 725.031 57.7842ZM725.031 56.9346C725.564 56.9346 725.875 56.3896 725.875 55.4404V55.4346C725.875 54.4912 725.564 53.9521 725.031 53.9521C724.492 53.9521 724.188 54.4912 724.188 55.4346V55.4404C724.188 56.3896 724.492 56.9346 725.031 56.9346Z" fill="#C7C7CC"/>
<path d="M703.984 102.544C701.975 102.544 700.768 100.839 700.768 98.1084V98.0967C700.768 95.3662 701.975 93.667 703.984 93.667C705.994 93.667 707.213 95.3662 707.213 98.0967V98.1084C707.213 100.839 705.994 102.544 703.984 102.544ZM703.984 101.319C705.062 101.319 705.689 100.112 705.689 98.1084V98.0967C705.689 96.0928 705.062 94.8975 703.984 94.8975C702.906 94.8975 702.291 96.0928 702.291 98.0967V98.1084C702.291 100.112 702.906 101.319 703.984 101.319ZM710.646 98.4424C709.463 98.4424 708.748 97.5459 708.748 96.1045V96.0986C708.748 94.6572 709.463 93.7607 710.646 93.7607C711.824 93.7607 712.545 94.6572 712.545 96.0986V96.1045C712.545 97.5459 711.824 98.4424 710.646 98.4424ZM711.701 102.333H710.494L716.207 93.8779H717.414L711.701 102.333ZM710.646 97.5928C711.18 97.5928 711.49 97.0479 711.49 96.1045V96.0986C711.49 95.1494 711.18 94.6104 710.646 94.6104C710.107 94.6104 709.809 95.1494 709.809 96.0986V96.1045C709.809 97.0479 710.107 97.5928 710.646 97.5928ZM717.262 102.45C716.078 102.45 715.357 101.548 715.357 100.106V100.101C715.357 98.6592 716.078 97.7686 717.262 97.7686C718.439 97.7686 719.16 98.6592 719.16 100.101V100.106C719.16 101.548 718.439 102.45 717.262 102.45ZM717.262 101.601C717.795 101.601 718.105 101.056 718.105 100.106V100.101C718.105 99.1572 717.795 98.6182 717.262 98.6182C716.723 98.6182 716.418 99.1572 716.418 100.101V100.106C716.418 101.056 716.723 101.601 717.262 101.601Z" fill="#C7C7CC"/>
<path d="M1 38.5C1 37.6716 1.67157 37 2.5 37C3.32843 37 4 37.6716 4 38.5V98H1V38.5Z" fill="#34C759"/>
<path d="M10.0449 64.5C10.0449 63.6716 10.7165 63 11.5449 63C12.3733 63 13.0449 63.6716 13.0449 64.5V98H10.0449V64.5Z" fill="#34C759"/>
<path d="M19.0898 67.5C19.0898 66.6716 19.7614 66 20.5898 66C21.4183 66 22.0898 66.6716 22.0898 67.5V98H19.0898V67.5Z" fill="#34C759"/>
<path d="M28.1328 65.5C28.1328 64.6716 28.8044 64 29.6328 64C30.4612 64 31.1328 64.6716 31.1328 65.5V98H28.1328V65.5Z" fill="#34C759"/>
<path d="M37.1777 55.5C37.1777 54.6716 37.8493 54 38.6777 54C39.5062 54 40.1777 54.6716 40.1777 55.5V98H37.1777V55.5Z" fill="#34C759"/>
<path d="M46.2227 50.5C46.2227 49.6716 46.8942 49 47.7227 49C48.5511 49 49.2227 49.6716 49.2227 50.5V98H46.2227V50.5Z" fill="#34C759"/>
<path d="M55.2676 47.5C55.2676 46.6716 55.9392 46 56.7676 46C57.596 46 58.2676 46.6716 58.2676 47.5V98H55.2676V47.5Z" fill="#34C759"/>
<path d="M64.3125 41.5C64.3125 40.6716 64.9841 40 65.8125 40C66.6409 40 67.3125 40.6716 67.3125 41.5V98H64.3125V41.5Z" fill="#34C759"/>
<path d="M73.3555 36.5C73.3555 35.6716 74.027 35 74.8555 35C75.6839 35 76.3555 35.6716 76.3555 36.5V98H73.3555V36.5Z" fill="#34C759"/>
<path d="M82.4004 32.5C82.4004 31.6716 83.072 31 83.9004 31C84.7288 31 85.4004 31.6716 85.4004 32.5V98H82.4004V32.5Z" fill="#34C759"/>
<path d="M91.4453 28.5C91.4453 27.6716 92.1169 27 92.9453 27C93.7737 27 94.4453 27.6716 94.4453 28.5V98H91.4453V28.5Z" fill="#34C759"/>
<path d="M100.49 27.5C100.49 26.6716 101.162 26 101.99 26C102.819 26 103.49 26.6716 103.49 27.5V98H100.49V27.5Z" fill="#34C759"/>
<path d="M109.535 26.5C109.535 25.6716 110.207 25 111.035 25C111.864 25 112.535 25.6716 112.535 26.5V98H109.535V26.5Z" fill="#34C759"/>
<path d="M118.578 26.5C118.578 25.6716 119.25 25 120.078 25C120.907 25 121.578 25.6716 121.578 26.5V98H118.578V26.5Z" fill="#34C759"/>
<path d="M127.623 25.5C127.623 24.6716 128.295 24 129.123 24C129.951 24 130.623 24.6716 130.623 25.5V98H127.623V25.5Z" fill="#34C759"/>
<path d="M136.668 24.5C136.668 23.6716 137.34 23 138.168 23C138.996 23 139.668 23.6716 139.668 24.5V98H136.668V24.5Z" fill="#34C759"/>
<path d="M145.713 23.5C145.713 22.6716 146.384 22 147.213 22C148.041 22 148.713 22.6716 148.713 23.5V98H145.713V23.5Z" fill="#34C759"/>
<path d="M154.758 20.5C154.758 19.6716 155.429 19 156.258 19C157.086 19 157.758 19.6716 157.758 20.5V98H154.758V20.5Z" fill="#34C759"/>
<path d="M163.801 13.5C163.801 12.6716 164.472 12 165.301 12C166.129 12 166.801 12.6716 166.801 13.5V98H163.801V13.5Z" fill="#34C759"/>
<path d="M172.846 11.5C172.846 10.6716 173.517 10 174.346 10C175.174 10 175.846 10.6716 175.846 11.5V98H172.846V11.5Z" fill="#34C759"/>
<path d="M181.891 10.5C181.891 9.67157 182.562 9 183.391 9C184.219 9 184.891 9.67157 184.891 10.5V98H181.891V10.5Z" fill="#34C759"/>
<path d="M190.936 10.5C190.936 9.67157 191.607 9 192.436 9C193.264 9 193.936 9.67157 193.936 10.5V98H190.936V10.5Z" fill="#34C759"/>
<path d="M199.98 10.5C199.98 9.67157 200.652 9 201.48 9C202.309 9 202.98 9.67157 202.98 10.5V98H199.98V10.5Z" fill="#34C759"/>
<path d="M209.023 10.5C209.023 9.67157 209.695 9 210.523 9C211.352 9 212.023 9.67157 212.023 10.5V98H209.023V10.5Z" fill="#34C759"/>
<path d="M218.068 10.5C218.068 9.67157 218.74 9 219.568 9C220.397 9 221.068 9.67157 221.068 10.5V98H218.068V10.5Z" fill="#34C759"/>
<path d="M227.113 10.5C227.113 9.67157 227.785 9 228.613 9C229.442 9 230.113 9.67157 230.113 10.5V98H227.113V10.5Z" fill="#34C759"/>
<path d="M236.158 10.5C236.158 9.67157 236.83 9 237.658 9C238.487 9 239.158 9.67157 239.158 10.5V98H236.158V10.5Z" fill="#34C759"/>
<path d="M245.203 13.5C245.203 12.6716 245.875 12 246.703 12C247.532 12 248.203 12.6716 248.203 13.5V98H245.203V13.5Z" fill="#34C759"/>
<path d="M254.248 16.5C254.248 15.6716 254.92 15 255.748 15C256.576 15 257.248 15.6716 257.248 16.5V98H254.248V16.5Z" fill="#34C759"/>
<path d="M263.291 17.5C263.291 16.6716 263.963 16 264.791 16C265.619 16 266.291 16.6716 266.291 17.5V98H263.291V17.5Z" fill="#34C759"/>
<path d="M272.336 18.5C272.336 17.6716 273.008 17 273.836 17C274.664 17 275.336 17.6716 275.336 18.5V98H272.336V18.5Z" fill="#34C759"/>
<path d="M281.381 21.5C281.381 20.6716 282.052 20 282.881 20C283.709 20 284.381 20.6716 284.381 21.5V98H281.381V21.5Z" fill="#34C759"/>
<path d="M290.426 25.5C290.426 24.6716 291.097 24 291.926 24C292.754 24 293.426 24.6716 293.426 25.5V98H290.426V25.5Z" fill="#34C759"/>
<path d="M299.471 25.5C299.471 24.6716 300.142 24 300.971 24C301.799 24 302.471 24.6716 302.471 25.5V98H299.471V25.5Z" fill="#34C759"/>
<path d="M308.514 32.5C308.514 31.6716 309.185 31 310.014 31C310.842 31 311.514 31.6716 311.514 32.5V98H308.514V32.5Z" fill="#34C759"/>
<path d="M317.559 32.5C317.559 31.6716 318.23 31 319.059 31C319.887 31 320.559 31.6716 320.559 32.5V98H317.559V32.5Z" fill="#34C759"/>
<path d="M326.604 32.5C326.604 31.6716 327.275 31 328.104 31C328.932 31 329.604 31.6716 329.604 32.5V98H326.604V32.5Z" fill="#34C759"/>
<path d="M335.648 32.5C335.648 31.6716 336.32 31 337.148 31C337.977 31 338.648 31.6716 338.648 32.5V98H335.648V32.5Z" fill="#34C759"/>
<path d="M344.691 32.5C344.691 31.6716 345.363 31 346.191 31C347.02 31 347.691 31.6716 347.691 32.5V98H344.691V32.5Z" fill="#34C759"/>
<path d="M353.736 34.5C353.736 33.6716 354.408 33 355.236 33C356.065 33 356.736 33.6716 356.736 34.5V98H353.736V34.5Z" fill="#34C759"/>
<path d="M362.781 34.5C362.781 33.6716 363.453 33 364.281 33C365.11 33 365.781 33.6716 365.781 34.5V98H362.781V34.5Z" fill="#34C759"/>
<path d="M371.826 36.5C371.826 35.6716 372.498 35 373.326 35C374.155 35 374.826 35.6716 374.826 36.5V98H371.826V36.5Z" fill="#34C759"/>
<path d="M380.871 37.5C380.871 36.6716 381.543 36 382.371 36C383.2 36 383.871 36.6716 383.871 37.5V98H380.871V37.5Z" fill="#34C759"/>
<path d="M389.914 38.5C389.914 37.6716 390.586 37 391.414 37C392.242 37 392.914 37.6716 392.914 38.5V98H389.914V38.5Z" fill="#34C759"/>
<path d="M398.959 41.5C398.959 40.6716 399.631 40 400.459 40C401.287 40 401.959 40.6716 401.959 41.5V98H398.959V41.5Z" fill="#34C759"/>
<path d="M408.004 42.5C408.004 41.6716 408.675 41 409.504 41C410.332 41 411.004 41.6716 411.004 42.5V98H408.004V42.5Z" fill="#34C759"/>
<path d="M417.049 46.5C417.049 45.6716 417.72 45 418.549 45C419.377 45 420.049 45.6716 420.049 46.5V98H417.049V46.5Z" fill="#34C759"/>
<path d="M426.094 46.5C426.094 45.6716 426.765 45 427.594 45C428.422 45 429.094 45.6716 429.094 46.5V98H426.094V46.5Z" fill="#34C759"/>
<path d="M435.137 45.5C435.137 44.6716 435.808 44 436.637 44C437.465 44 438.137 44.6716 438.137 45.5V98H435.137V45.5Z" fill="#34C759"/>
<path d="M444.182 49.5C444.182 48.6716 444.853 48 445.682 48C446.51 48 447.182 48.6716 447.182 49.5V98H444.182V49.5Z" fill="#34C759"/>
<path d="M453.227 55.5C453.227 54.6716 453.898 54 454.727 54C455.555 54 456.227 54.6716 456.227 55.5V98H453.227V55.5Z" fill="#34C759"/>
<path d="M462.271 55.5C462.271 54.6716 462.943 54 463.771 54C464.6 54 465.271 54.6716 465.271 55.5V98H462.271V55.5Z" fill="#34C759"/>
<path d="M471.316 66.5C471.316 65.6716 471.988 65 472.816 65C473.645 65 474.316 65.6716 474.316 66.5V98H471.316V66.5Z" fill="#34C759"/>
<path d="M480.359 69.5C480.359 68.6716 481.031 68 481.859 68C482.688 68 483.359 68.6716 483.359 69.5V98H480.359V69.5Z" fill="#34C759"/>
<path d="M489.404 69.5C489.404 68.6716 490.076 68 490.904 68C491.733 68 492.404 68.6716 492.404 69.5V98H489.404V69.5Z" fill="#34C759"/>
<path d="M498.449 69.5C498.449 68.6716 499.121 68 499.949 68C500.778 68 501.449 68.6716 501.449 69.5V98H498.449V69.5Z" fill="#34C759"/>
<path d="M507.494 78.5C507.494 77.6716 508.166 77 508.994 77C509.823 77 510.494 77.6716 510.494 78.5V98H507.494V78.5Z" fill="#34C759"/>
<path d="M516.539 58.5C516.539 57.6716 517.211 57 518.039 57C518.867 57 519.539 57.6716 519.539 58.5V98H516.539V58.5Z" fill="#34C759"/>
<path d="M525.582 46.5C525.582 45.6716 526.254 45 527.082 45C527.91 45 528.582 45.6716 528.582 46.5V98H525.582V46.5Z" fill="#34C759"/>
<path d="M534.627 36.5C534.627 35.6716 535.299 35 536.127 35C536.955 35 537.627 35.6716 537.627 36.5V98H534.627V36.5Z" fill="#34C759"/>
<path d="M543.672 44.5C543.672 43.6716 544.343 43 545.172 43C546 43 546.672 43.6716 546.672 44.5V98H543.672V44.5Z" fill="#34C759"/>
<path d="M552.717 30.5C552.717 29.6716 553.388 29 554.217 29C555.045 29 555.717 29.6716 555.717 30.5V98H552.717V30.5Z" fill="#34C759"/>
<path d="M561.762 34.5C561.762 33.6716 562.433 33 563.262 33C564.09 33 564.762 33.6716 564.762 34.5V98H561.762V34.5Z" fill="#34C759"/>
<path d="M570.807 25.5C570.807 24.6716 571.478 24 572.307 24C573.135 24 573.807 24.6716 573.807 25.5V98H570.807V25.5Z" fill="#34C759"/>
<path d="M579.85 20.5C579.85 19.6716 580.521 19 581.35 19C582.178 19 582.85 19.6716 582.85 20.5V98H579.85V20.5Z" fill="#34C759"/>
<path d="M588.895 15.5C588.895 14.6716 589.566 14 590.395 14C591.223 14 591.895 14.6716 591.895 15.5V98H588.895V15.5Z" fill="#34C759"/>
<path d="M597.939 12.5C597.939 11.6716 598.611 11 599.439 11C600.268 11 600.939 11.6716 600.939 12.5V98H597.939V12.5Z" fill="#34C759"/>
</svg>
