<svg width="94" height="105" viewBox="0 0 94 105" fill="none" xmlns="http://www.w3.org/2000/svg">
<path d="M7.49942 60C3.99996 60 2.99944 51 5.49942 49L20.5 22.5L36 9L57.5 11L70 20L86.9994 48C96.5 56.5 85.5 71 82.5 64.5C80 59 75.1306 58 76.4994 64.5C78.5 74 80.8125 87 69.9994 87C66 87 70 77.5 61.4994 81.5C53.769 85.1376 65.5006 90.5 68 95.5C70.3871 100.275 58.5 103.5 53.5 95.5C50.5 89 46 92 45 87.5C44.158 82.4731 44 79 40.5 80.5C32.0006 85 45 100.396 35.4994 100C23.5 99.5 26.7 77.5 22.5 76C15.5 73.5 23.5 87 16.5 84.5C5.00049 79.5 20 61 13.4994 56C9.99996 54 9.99996 60 7.49942 60Z" fill="#F9C000"/>
<path d="M29 2.57715C30.8564 1.50542 33.1436 1.50542 35 2.57715L42.9902 7.19043C44.8466 8.26222 45.9902 10.2431 45.9902 12.3867V21.6133C45.9902 23.7569 44.8466 25.7378 42.9902 26.8096L35 31.4229C33.1436 32.4946 30.8564 32.4946 29 31.4229L21.0098 26.8096C19.1534 25.7378 18.0098 23.7569 18.0098 21.6133V12.3867C18.0098 10.2431 19.1534 8.26222 21.0098 7.19043L29 2.57715Z" fill="#31AFF5" stroke="#F9C000" stroke-width="2"/>
<path d="M57 2.57715C58.8564 1.50542 61.1436 1.50542 63 2.57715L70.9902 7.19043C72.8466 8.26222 73.9902 10.2431 73.9902 12.3867V21.6133C73.9902 23.7569 72.8466 25.7378 70.9902 26.8096L63 31.4229C61.1436 32.4946 58.8564 32.4946 57 31.4229L49.0098 26.8096C47.1534 25.7378 46.0098 23.7569 46.0098 21.6133V12.3867C46.0098 10.2431 47.1534 8.26222 49.0098 7.19043L57 2.57715Z" fill="#288ED2" stroke="#F9C000" stroke-width="2"/>
<path d="M29 50.5771C30.8564 49.5054 33.1436 49.5054 35 50.5771L42.9902 55.1904C44.8466 56.2622 45.9902 58.2431 45.9902 60.3867V69.6133C45.9902 71.7569 44.8466 73.7378 42.9902 74.8096L35 79.4229C33.1436 80.4946 30.8564 80.4946 29 79.4229L21.0098 74.8096C19.1534 73.7378 18.0098 71.7569 18.0098 69.6133V60.3867C18.0098 58.2431 19.1534 56.2622 21.0098 55.1904L29 50.5771Z" fill="#D22839" stroke="#F9C000" stroke-width="2"/>
<path d="M57 50.5771C58.8564 49.5054 61.1436 49.5054 63 50.5771L70.9902 55.1904C72.8466 56.2622 73.9902 58.2431 73.9902 60.3867V69.6133C73.9902 71.7569 72.8466 73.7378 70.9902 74.8096L63 79.4229C61.1436 80.4946 58.8564 80.4946 57 79.4229L49.0098 74.8096C47.1534 73.7378 46.0098 71.7569 46.0098 69.6133V60.3867C46.0098 58.2431 47.1534 56.2622 49.0098 55.1904L57 50.5771Z" fill="#D12A89" stroke="#F9C000" stroke-width="2"/>
<path d="M43.5 27.4434C45.047 26.5502 46.953 26.5502 48.5 27.4434L56.4904 32.0566C58.0374 32.9498 58.9904 34.6004 58.9904 36.3868V45.6132C58.9904 47.3996 58.0374 49.0502 56.4904 49.9434L48.5 54.5566C46.953 55.4498 45.047 55.4498 43.5 54.5566L35.5096 49.9434C33.9626 49.0502 33.0096 47.3996 33.0096 45.6132V36.3868C33.0096 34.6004 33.9626 32.9498 35.5096 32.0566L43.5 27.4434Z" fill="#FFC300"/>
<path d="M71 26.5771C72.8564 25.5054 75.1436 25.5054 77 26.5771L84.9902 31.1904C86.8466 32.2622 87.9902 34.2431 87.9902 36.3867V45.6133C87.9902 47.7569 86.8466 49.7378 84.9902 50.8096L77 55.4229C75.1436 56.4946 72.8564 56.4946 71 55.4229L63.0098 50.8096C61.1534 49.7378 60.0098 47.7569 60.0098 45.6133V36.3867C60.0098 34.2431 61.1534 32.2622 63.0098 31.1904L71 26.5771Z" fill="#755CBA" stroke="#F9C000" stroke-width="2"/>
<path d="M15 26.5771C16.8564 25.5054 19.1436 25.5054 21 26.5771L28.9902 31.1904C30.8466 32.2622 31.9902 34.2431 31.9902 36.3867V45.6133C31.9902 47.7569 30.8466 49.7378 28.9902 50.8096L21 55.4229C19.1436 56.4946 16.8564 56.4946 15 55.4229L7.00977 50.8096C5.15337 49.7378 4.00978 47.7569 4.00977 45.6133V36.3867C4.00978 34.2431 5.15337 32.2622 7.00977 31.1904L15 26.5771Z" fill="#0F9B81" stroke="#F9C000" stroke-width="2"/>
<path d="M42.3135 50H48.663C52.5482 50 55 47.9666 55 44.8109C55 42.4159 53.0637 40.6072 50.6119 40.4948V40.3949C52.6237 40.1205 54.1576 38.5114 54.1576 36.4908C54.1576 33.709 52.0076 32 48.4367 32H42.3135C40.855 32 40 32.8731 40 34.395V47.605C40 49.1269 40.855 50 42.3135 50ZM44.6144 39.3346V35.2433H47.2171C48.7636 35.2433 49.6689 35.9916 49.6689 37.2515C49.6689 38.549 48.663 39.3346 46.9908 39.3346H44.6144ZM44.6144 46.7567V42.1163H47.3303C49.2289 42.1163 50.3101 42.9398 50.3101 44.4117C50.3101 45.9336 49.254 46.7567 47.3554 46.7567H44.6144Z" fill="white"/>
</svg>
