<svg width="94" height="105" viewBox="0 0 94 105" fill="none" xmlns="http://www.w3.org/2000/svg">
<path d="M7.40121 60.9128C3.8887 60.9128 2.88445 51.7517 5.39376 49.7159L20.4503 22.7416L36.008 9L57.5882 11.0358L70.1348 20.1969L87.1976 48.698C96.7336 57.3502 85.6926 72.1097 82.6814 65.4933C80.1721 59.8949 75.2845 58.877 76.6584 65.4933C78.6665 75.1634 80.9876 88.396 70.1342 88.396C66.1199 88.396 70.1348 78.726 61.6025 82.7976C53.8433 86.5003 65.6186 91.9587 68.1273 97.0482C70.5233 101.909 58.5919 105.191 53.5733 97.0482C50.5621 90.4318 46.0453 93.4855 45.0416 88.905C44.1964 83.7881 44.0379 80.2529 40.5248 81.7797C31.9937 86.3602 45.0416 102.032 35.5056 101.629C23.4614 101.12 26.6733 78.726 22.4577 77.1992C15.4316 74.6544 23.4614 88.396 16.4353 85.8513C4.89297 80.7618 19.9483 61.9307 13.4236 56.8412C9.91107 54.8054 9.91107 60.9128 7.40121 60.9128Z" fill="#FFC300"/>
<path d="M30.5 3.44338C32.047 2.55021 33.953 2.55021 35.5 3.44338L44.3564 8.55662C45.9034 9.44979 46.8564 11.1004 46.8564 12.8868V23.1132C46.8564 24.8996 45.9034 26.5502 44.3564 27.4434L35.5 32.5566C33.953 33.4498 32.047 33.4498 30.5 32.5566L21.6436 27.4434C20.0966 26.5502 19.1436 24.8996 19.1436 23.1132V12.8868C19.1436 11.1004 20.0966 9.44979 21.6436 8.55662L30.5 3.44338Z" fill="#31AFF5" stroke="#FFC300" stroke-width="2"/>
<path d="M58.5 3.44338C60.047 2.55021 61.953 2.55021 63.5 3.44338L72.3564 8.55662C73.9034 9.44979 74.8564 11.1004 74.8564 12.8868V23.1132C74.8564 24.8996 73.9034 26.5502 72.3564 27.4434L63.5 32.5566C61.953 33.4498 60.047 33.4498 58.5 32.5566L49.6436 27.4434C48.0966 26.5502 47.1436 24.8996 47.1436 23.1132V12.8868C47.1436 11.1004 48.0966 9.44979 49.6436 8.55662L58.5 3.44338Z" fill="#288ED2" stroke="#FFC300" stroke-width="2"/>
<path d="M30.5 51.4434C32.047 50.5502 33.953 50.5502 35.5 51.4434L44.3564 56.5566C45.9034 57.4498 46.8564 59.1004 46.8564 60.8868V71.1132C46.8564 72.8996 45.9034 74.5502 44.3564 75.4434L35.5 80.5566C33.953 81.4498 32.047 81.4498 30.5 80.5566L21.6436 75.4434C20.0966 74.5502 19.1436 72.8996 19.1436 71.1132V60.8868C19.1436 59.1004 20.0966 57.4498 21.6436 56.5566L30.5 51.4434Z" fill="#D22839" stroke="#FFC300" stroke-width="2"/>
<path d="M58.5 51.4434C60.047 50.5502 61.953 50.5502 63.5 51.4434L72.3564 56.5566C73.9034 57.4498 74.8564 59.1004 74.8564 60.8868V71.1132C74.8564 72.8996 73.9034 74.5502 72.3564 75.4434L63.5 80.5566C61.953 81.4498 60.047 81.4498 58.5 80.5566L49.6436 75.4434C48.0966 74.5502 47.1436 72.8996 47.1436 71.1132V60.8868C47.1436 59.1004 48.0966 57.4498 49.6436 56.5566L58.5 51.4434Z" fill="#D12A89" stroke="#FFC300" stroke-width="2"/>
<path d="M43.5 27.4434C45.047 26.5502 46.953 26.5502 48.5 27.4434L56.4904 32.0566C58.0374 32.9498 58.9904 34.6004 58.9904 36.3868V45.6132C58.9904 47.3996 58.0374 49.0502 56.4904 49.9434L48.5 54.5566C46.953 55.4498 45.047 55.4498 43.5 54.5566L35.5096 49.9434C33.9626 49.0502 33.0096 47.3996 33.0096 45.6132V36.3868C33.0096 34.6004 33.9626 32.9498 35.5096 32.0566L43.5 27.4434Z" fill="#FFC300"/>
<path d="M72.5 27.4434C74.047 26.5502 75.953 26.5502 77.5 27.4434L86.3564 32.5566C87.9034 33.4498 88.8564 35.1004 88.8564 36.8868V47.1132C88.8564 48.8996 87.9034 50.5502 86.3564 51.4434L77.5 56.5566C75.953 57.4498 74.047 57.4498 72.5 56.5566L63.6436 51.4434C62.0966 50.5502 61.1436 48.8996 61.1436 47.1132V36.8868C61.1436 35.1004 62.0966 33.4498 63.6436 32.5566L72.5 27.4434Z" fill="#755CBA" stroke="#FFC300" stroke-width="2"/>
<path d="M16.5 27.4434C18.047 26.5502 19.953 26.5502 21.5 27.4434L30.3564 32.5566C31.9034 33.4498 32.8564 35.1004 32.8564 36.8868V47.1132C32.8564 48.8996 31.9034 50.5502 30.3564 51.4434L21.5 56.5566C19.953 57.4498 18.047 57.4498 16.5 56.5566L7.64359 51.4434C6.09659 50.5502 5.14359 48.8996 5.14359 47.1132V36.8868C5.14359 35.1004 6.09659 33.4498 7.64359 32.5566L16.5 27.4434Z" fill="#0F9B81" stroke="#FFC300" stroke-width="2"/>
<path d="M42.3135 50H48.663C52.5482 50 55 47.9666 55 44.8109C55 42.4159 53.0637 40.6072 50.6119 40.4948V40.3949C52.6237 40.1205 54.1576 38.5114 54.1576 36.4908C54.1576 33.709 52.0076 32 48.4367 32H42.3135C40.855 32 40 32.8731 40 34.395V47.605C40 49.1269 40.855 50 42.3135 50ZM44.6144 39.3346V35.2433H47.2171C48.7636 35.2433 49.6689 35.9916 49.6689 37.2515C49.6689 38.549 48.663 39.3346 46.9908 39.3346H44.6144ZM44.6144 46.7567V42.1163H47.3303C49.2289 42.1163 50.3101 42.9398 50.3101 44.4117C50.3101 45.9336 49.254 46.7567 47.3554 46.7567H44.6144Z" fill="white"/>
</svg>
