<svg width="87" height="92" viewBox="0 0 87 92" fill="none" xmlns="http://www.w3.org/2000/svg">
<path d="M3.38858 51C-0.110883 51 -1.1114 42 1.38858 40L16.3892 13.5L31.8892 0L53.3892 2L65.8892 11L82.8886 39C92.3892 47.5 81.3892 62 78.3892 55.5C75.8892 50 71.0197 49 72.3886 55.5C74.3892 65 76.7017 78 65.8886 78C61.8892 78 65.8892 68.5 57.3886 72.5C49.6582 76.1376 61.3897 81.5 63.8892 86.5C66.2762 91.2752 54.3892 94.5 49.3892 86.5C46.3892 80 41.8892 83 40.8892 78.5C40.0471 73.4731 39.8892 70 36.3892 71.5C27.8897 76 40.8892 91.3959 31.3886 91C19.3892 90.5 22.5891 68.5 18.3891 67C11.3891 64.5 19.3891 78 12.3891 75.5C0.889655 70.5 15.8891 52 9.38858 47C5.88912 45 5.88912 51 3.38858 51Z" fill="#F9C000"/>
</svg>
