<svg width="15" height="24" viewBox="0 0 14.9658 23.9167" fill="none" xmlns="http://www.w3.org/2000/svg">
  <path d="M7.99561 0.416578L10.7178 4.31062C11.1938 4.98201 10.9619 5.58015 10.1074 5.58015L8.34961 5.58015L8.34961 3.70027C8.34961 3.10212 7.87354 2.63826 7.2998 2.63826C6.73828 2.63826 6.26221 3.10212 6.26221 3.70027L6.26221 5.58015L4.50439 5.58015C3.62549 5.58015 3.40576 4.98201 3.88184 4.29841L6.61621 0.416578C7.01904-0.144946 7.60498-0.132739 7.99561 0.416578Z" fill="currentColor" fill-opacity="0.85"/>
  <path d="M13.4033 21.4859L14.0015 21.8887C14.4287 22.1695 14.6118 22.5357 14.6118 22.8775C14.6118 23.4146 14.1724 23.8907 13.5498 23.8907C13.2935 23.8907 13.0127 23.8052 12.7197 23.6099L12.207 23.2681C10.3685 22.0476 8.44465 20.1602 7.3044 18.0127C7.95139 16.8117 8.34961 15.528 8.34961 14.2349L8.38397 14.8063C8.72269 17.6457 11.4922 20.2042 13.4033 21.4859Z" fill="currentColor" fill-opacity="0.85"/>
  <path d="M1.0498 23.8907C1.31836 23.8907 1.59912 23.8052 1.89209 23.6099L2.40479 23.2681C5.26123 21.3638 8.34961 17.836 8.34961 14.2349L8.34961 3.70027C8.34961 3.10212 7.87354 2.63826 7.2998 2.63826C6.73828 2.63826 6.26221 3.10212 6.26221 3.70027L6.26221 14.2349C6.26221 17.2989 3.24707 20.1187 1.2085 21.4859L0.610352 21.8887C0.170898 22.1695 0 22.5357 0 22.8775C0 23.4146 0.439453 23.8907 1.0498 23.8907Z" fill="currentColor" fill-opacity="0.85"/>
</svg>
