<svg width="23" height="19" viewBox="0 0 23 19" fill="none" xmlns="http://www.w3.org/2000/svg">
<path d="M11.7422 15.9609C10.1094 15.9609 9.03906 15.3203 8.57812 14.125L5.92188 16.4844C5.44531 16.8984 5.17969 17.1016 4.79688 17.1016C4.25 17.1016 3.94531 16.7188 3.94531 16.1172V14.0781H3.57031C1.24219 14.0781 -0.0078125 12.7969 -0.0078125 10.5078V4.51562C-0.0078125 2.22656 1.24219 0.9375 3.57031 0.9375H13.6328C15.9609 0.9375 17.2109 2.22656 17.2109 4.51562V4.88281H19C21.25 4.88281 22.4297 6.09375 22.4297 8.3125V12.5391C22.4297 14.75 21.25 15.9609 19 15.9609H18.8359V17.8359C18.8359 18.4297 18.5312 18.8125 17.9922 18.8125C17.6172 18.8125 17.3594 18.6016 16.8828 18.1953L14.2734 15.9609H11.7422ZM5.11719 13.4141V15.6719L7.61719 13.1953C7.85156 12.9531 8.03906 12.8594 8.32031 12.8359C8.32031 12.7422 8.3125 12.6406 8.3125 12.5391V8.3125C8.3125 6.09375 9.49219 4.88281 11.7422 4.88281H15.9531V4.52344C15.9531 3 15.2031 2.19531 13.6328 2.19531H3.57031C1.99219 2.19531 1.25 3 1.25 4.52344V10.5C1.25 12.0234 1.99219 12.8203 3.57031 12.8203H4.53125C4.95312 12.8203 5.11719 12.9844 5.11719 13.4141ZM11.7656 14.7031H14.2266C14.5469 14.7031 14.7656 14.7891 15.0234 15.0312L17.6641 17.3906V15.3438C17.6641 14.9062 17.9297 14.7031 18.2656 14.7031H18.9844C20.5078 14.7031 21.1719 13.9844 21.1719 12.5156V8.32812C21.1719 6.86719 20.5078 6.14062 18.9844 6.14062H11.7656C10.2344 6.14062 9.57812 6.86719 9.57812 8.32812V12.5234C9.57812 13.9844 10.2344 14.7031 11.7656 14.7031Z" fill="#272D31"/>
</svg>
