<svg width="42" height="42" viewBox="0 0 42 42" fill="none" xmlns="http://www.w3.org/2000/svg">
  <path
    d="M20.625 41.25C17.7865 41.25 15.1172 40.7096 12.6172 39.6289C10.1302 38.5612 7.94271 37.0833 6.05469 35.1953C4.16667 33.3073 2.68229 31.1198 1.60156 28.6328C0.533854 26.1328 0 23.4635 0 20.625C0 17.7734 0.533854 15.1042 1.60156 12.6172C2.68229 10.1172 4.16667 7.92318 6.05469 6.03516C7.94271 4.14714 10.1302 2.66927 12.6172 1.60156C15.1172 0.533854 17.7865 0 20.625 0C23.4766 0 26.1458 0.533854 28.6328 1.60156C31.1328 2.66927 33.3268 4.14714 35.2148 6.03516C37.1029 7.92318 38.5807 10.1172 39.6484 12.6172C40.7292 15.1042 41.2695 17.7734 41.2695 20.625C41.2695 23.4635 40.7292 26.1328 39.6484 28.6328C38.5807 31.1198 37.1029 33.3073 35.2148 35.1953C33.3268 37.0833 31.1328 38.5612 28.6328 39.6289C26.1458 40.7096 23.4766 41.25 20.625 41.25ZM18.4766 30.4102C18.9063 30.4102 19.2969 30.3125 19.6484 30.1172C20.013 29.9089 20.3255 29.6159 20.5859 29.2383L29.668 15.3711C29.8242 15.1237 29.9479 14.8698 30.0391 14.6094C30.1432 14.349 30.1953 14.0951 30.1953 13.8477C30.1953 13.2487 29.9674 12.7539 29.5117 12.3633C29.069 11.9727 28.5547 11.7773 27.9688 11.7773C27.2005 11.7773 26.556 12.194 26.0352 13.0273L18.4375 25.1172L15.0195 20.9375C14.7591 20.612 14.4857 20.3776 14.1992 20.2344C13.9258 20.0911 13.6068 20.0195 13.2422 20.0195C12.6563 20.0195 12.1484 20.2344 11.7188 20.6641C11.2891 21.0807 11.0742 21.5885 11.0742 22.1875C11.0742 22.474 11.1263 22.7474 11.2305 23.0078C11.3346 23.2682 11.4974 23.5352 11.7188 23.8086L16.2891 29.2773C16.6016 29.6549 16.9336 29.9414 17.2852 30.1367C17.6367 30.319 18.0339 30.4102 18.4766 30.4102Z"
    fill="#0F9B81"
  />
</svg>
