<svg width="25" height="25" viewBox="0 0 25.2563 24.9146" fill="none" xmlns="http://www.w3.org/2000/svg">
<path d="M12.4512 24.9023C19.3237 24.9023 24.9023 19.3237 24.9023 12.4512C24.9023 5.57861 19.3237 0 12.4512 0C5.57861 0 0 5.57861 0 12.4512C0 19.3237 5.57861 24.9023 12.4512 24.9023ZM12.4512 22.8271C6.71387 22.8271 2.0752 18.1885 2.0752 12.4512C2.0752 6.71387 6.71387 2.0752 12.4512 2.0752C18.1885 2.0752 22.8271 6.71387 22.8271 12.4512C22.8271 18.1885 18.1885 22.8271 12.4512 22.8271Z" fill="#1a7a1a"/>
<path d="M11.1084 18.2495C11.5112 18.2495 11.853 18.0542 12.0972 17.6758L17.6758 8.89893C17.8101 8.65479 17.9688 8.38623 17.9688 8.11768C17.9688 7.56836 17.4805 7.21436 16.9678 7.21436C16.6626 7.21436 16.3574 7.40967 16.1255 7.76367L11.0596 15.8936L8.65479 12.7808C8.36182 12.3901 8.09326 12.2925 7.75146 12.2925C7.22656 12.2925 6.81152 12.7197 6.81152 13.2568C6.81152 13.5254 6.92139 13.7817 7.09229 14.0137L10.0708 17.6758C10.376 18.0786 10.7056 18.2495 11.1084 18.2495Z" fill="#1a7a1a"/>
</svg>
