<svg width="29" height="29" viewBox="0 0 29 29" fill="none" xmlns="http://www.w3.org/2000/svg">
<path d="M0.939453 27.8086C0.324219 27.2109 0.341797 26.1914 0.939453 25.5938L12.1895 14.3262L0.939453 3.07617C0.341797 2.47852 0.341797 1.47656 0.939453 0.861328C1.53711 0.228516 2.57422 0.246094 3.17188 0.861328L14.4219 12.1113L25.6719 0.861328C26.2695 0.246094 27.2891 0.246094 27.9043 0.861328C28.5195 1.45898 28.502 2.47852 27.9043 3.07617L16.6543 14.3262L27.9043 25.5938C28.502 26.1914 28.502 27.1934 27.9043 27.8086C27.3066 28.4238 26.2695 28.4062 25.6719 27.8086L14.4219 16.5586L3.17188 27.8086C2.57422 28.4062 1.55469 28.4062 0.939453 27.8086Z" fill="#637684"/>
</svg>
