<svg width="17" height="17" viewBox="0 0 17 17" fill="none" xmlns="http://www.w3.org/2000/svg">
<path d="M15.583 1.14258C16.04 1.59961 16.3418 2.14453 16.4883 2.77734C16.6406 3.41016 16.7168 4.17187 16.7168 5.0625L16.7168 11.6455C16.7168 12.542 16.6406 13.3066 16.4883 13.9395C16.3418 14.5664 16.04 15.1084 15.583 15.5654C15.1201 16.0225 14.5693 16.3271 13.9307 16.4795C13.2979 16.6377 12.5391 16.7168 11.6543 16.7168L5.0625 16.7168C4.17773 16.7168 3.41895 16.6377 2.78613 16.4795C2.15332 16.3271 1.60547 16.0225 1.14258 15.5654C0.685547 15.1084 0.380859 14.5664 0.228516 13.9395C0.0761719 13.3066 0 12.542 0 11.6455L0 5.05371C0 4.16895 0.0761719 3.41309 0.228516 2.78613C0.380859 2.15332 0.685547 1.60547 1.14258 1.14258C1.59961 0.691406 2.14453 0.389648 2.77734 0.237305C3.41602 0.0791016 4.1748 0 5.05371 0L11.6543 0C12.5391 0 13.2979 0.0791016 13.9307 0.237305C14.5693 0.389648 15.1201 0.691406 15.583 1.14258ZM11.2236 10.9863C11.5049 10.9863 11.7246 10.8926 11.8828 10.7051C12.0469 10.5176 12.1289 10.2715 12.1289 9.9668V5.76562C12.1289 5.36719 12.0205 5.06543 11.8037 4.86035C11.5869 4.65527 11.2881 4.55273 10.9072 4.55273L6.68848 4.55273C6.37793 4.55273 6.12891 4.63477 5.94141 4.79883C5.75391 4.96289 5.66016 5.18555 5.66016 5.4668C5.66016 5.74219 5.75098 5.96191 5.93262 6.12598C6.12012 6.29004 6.36914 6.37207 6.67969 6.37207H8.01563L9.10547 6.23145L7.85742 7.33008L4.91309 10.2744C4.69043 10.4912 4.5791 10.7432 4.5791 11.0303C4.5791 11.3467 4.67871 11.5986 4.87793 11.7861C5.08301 11.9736 5.3291 12.0674 5.61621 12.0674C5.76855 12.0674 5.91211 12.041 6.04688 11.9883C6.18164 11.9355 6.30762 11.8506 6.4248 11.7334L9.34277 8.81543L10.4326 7.57617L10.3096 8.71875V9.9668C10.3096 10.2773 10.3916 10.5264 10.5557 10.7139C10.7197 10.8955 10.9424 10.9863 11.2236 10.9863Z" fill="currentColor"/>
</svg>
