<svg width="21" height="21" viewBox="0 0 21.5332 21.5332" fill="none" xmlns="http://www.w3.org/2000/svg">
  <path d="M8.47656 21.5332C7.94922 21.5332 7.55859 21.1777 7.47656 20.6504L7.11914 18.3691C6.74805 18.2285 6.36914 18.0527 6.01953 17.8535L3.98438 18.9082C3.52734 19.1426 3.04688 19.0723 2.7207 18.6738L0.949219 16.459C0.638672 16.0723 0.644531 15.5859 1.01172 15.2188L2.66602 13.6816C2.61328 13.3867 2.57812 13.0488 2.57812 12.7188V10.7676C2.57812 10.4375 2.61328 10.0996 2.66602 9.80469L1.01172 8.26758C0.644531 7.90039 0.638672 7.41406 0.949219 7.02734L2.7207 4.8125C3.04688 4.41406 3.52734 4.34375 3.98438 4.57812L6.01953 5.63281C6.36914 5.43359 6.74805 5.25781 7.11914 5.11719L7.47656 2.83594C7.55859 2.30859 7.94922 1.95312 8.47656 1.95312H11.0566C11.584 1.95312 11.9746 2.30859 12.0566 2.83594L12.4141 5.11719C12.7852 5.25781 13.1641 5.43359 13.5137 5.63281L15.5488 4.57812C16.0059 4.34375 16.4863 4.41406 16.8125 4.8125L18.584 7.02734C18.8945 7.41406 18.8887 7.90039 18.5215 8.26758L16.8672 9.80469C16.9199 10.0996 16.9551 10.4375 16.9551 10.7676V12.7188C16.9551 13.0488 16.9199 13.3867 16.8672 13.6816L18.5215 15.2188C18.8887 15.5859 18.8945 16.0723 18.584 16.459L16.8125 18.6738C16.4863 19.0723 16.0059 19.1426 15.5488 18.9082L13.5137 17.8535C13.1641 18.0527 12.7852 18.2285 12.4141 18.3691L12.0566 20.6504C11.9746 21.1777 11.584 21.5332 11.0566 21.5332H8.47656ZM9.7666 15.0195C11.1016 15.0195 12.2793 14.3926 13.0078 13.3984C13.4297 12.8359 13.6758 12.1445 13.6758 11.7461C13.6758 10.4121 12.498 8.4668 9.7666 8.4668C7.03516 8.4668 5.85742 10.4121 5.85742 11.7461C5.85742 12.1445 6.10352 12.8359 6.52539 13.3984C7.25391 14.3926 8.43164 15.0195 9.7666 15.0195Z" fill="currentColor" fill-opacity="0.85"/>
</svg>
