<svg xmlns="http://www.w3.org/2000/svg" viewBox="0 0 29.5044 25.6958">
 <path d="M11.0352 24.4141L18.1152 24.4141L18.1152 16.5283C18.1152 15.9668 17.749 15.6006 17.1875 15.6006L11.9751 15.6006C11.4136 15.6006 11.0352 15.9668 11.0352 16.5283ZM1.0498 13.0371C1.3916 13.0371 1.67236 12.854 1.92871 12.6465L14.1479 2.38037C14.2822 2.27051 14.4409 2.20947 14.5752 2.20947C14.7217 2.20947 14.8682 2.27051 15.0024 2.38037L27.2339 12.6465C27.478 12.854 27.7588 13.0371 28.1006 13.0371C28.7598 13.0371 29.1504 12.561 29.1504 12.0605C29.1504 11.7798 29.0405 11.4868 28.7598 11.2671L16.04 0.585938C15.5762 0.195312 15.0757 0 14.5752 0C14.0747 0 13.5742 0.195312 13.1104 0.585938L0.390625 11.2671C0.12207 11.4868 0 11.7798 0 12.0605C0 12.561 0.390625 13.0371 1.0498 13.0371ZM22.522 6.55518L25.5859 9.14307L25.5859 3.6377C25.5859 3.10059 25.2441 2.75879 24.707 2.75879L23.4009 2.75879C22.876 2.75879 22.522 3.10059 22.522 3.6377ZM6.32324 25.6714L22.8394 25.6714C24.5728 25.6714 25.5859 24.6826 25.5859 22.9736L25.5859 9.44824L23.6206 8.11768L23.6206 22.4854C23.6206 23.2788 23.1934 23.7061 22.4243 23.7061L6.73828 23.7061C5.95703 23.7061 5.52979 23.2788 5.52979 22.4854L5.52979 8.12988L3.56445 9.44824L3.56445 22.9736C3.56445 24.6948 4.57764 25.6714 6.32324 25.6714Z" fill="#272D31"/>
</svg>
