<svg width="21" height="17" viewBox="0 0 21.3867 16.7344" fill="none" xmlns="http://www.w3.org/2000/svg">
  <path d="M1.5625 3.125C0.699219 3.125 0 2.42578 0 1.5625C0 0.699219 0.699219 0 1.5625 0C2.42578 0 3.125 0.699219 3.125 1.5625C3.125 2.42578 2.42578 3.125 1.5625 3.125ZM6.25 2.34375C5.72266 2.34375 5.3125 1.93359 5.3125 1.40625C5.3125 0.878906 5.72266 0.46875 6.25 0.46875H20.3125C20.8398 0.46875 21.3867 0.878906 21.3867 1.40625C21.3867 1.93359 20.8398 2.34375 20.3125 2.34375H6.25ZM1.5625 9.92969C0.699219 9.92969 0 9.23047 0 8.36719C0 7.50391 0.699219 6.80469 1.5625 6.80469C2.42578 6.80469 3.125 7.50391 3.125 8.36719C3.125 9.23047 2.42578 9.92969 1.5625 9.92969ZM6.25 9.14844C5.72266 9.14844 5.3125 8.73828 5.3125 8.21094C5.3125 7.68359 5.72266 7.27344 6.25 7.27344H20.3125C20.8398 7.27344 21.3867 7.68359 21.3867 8.21094C21.3867 8.73828 20.8398 9.14844 20.3125 9.14844H6.25ZM1.5625 16.7344C0.699219 16.7344 0 16.0352 0 15.1719C0 14.3086 0.699219 13.6094 1.5625 13.6094C2.42578 13.6094 3.125 14.3086 3.125 15.1719C3.125 16.0352 2.42578 16.7344 1.5625 16.7344ZM6.25 15.9531C5.72266 15.9531 5.3125 15.543 5.3125 15.0156C5.3125 14.4883 5.72266 14.0781 6.25 14.0781H20.3125C20.8398 14.0781 21.3867 14.4883 21.3867 15.0156C21.3867 15.543 20.8398 15.9531 20.3125 15.9531H6.25Z" fill="currentColor" fill-opacity="0.85"/>
</svg>
