<svg width="25" height="30" viewBox="0 0 25.2563 29.8007" fill="none" xmlns="http://www.w3.org/2000/svg">
  <path d="M14.4775 0.868346C14.4775-0.01056 13.8794-0.230287 13.208 0.245788L9.32617 2.98016C8.75244 3.38299 8.76465 3.96893 9.32617 4.35956L13.2202 7.09393C13.8794 7.5578 14.4775 7.32587 14.4775 6.47137ZM22.8271 14.8942C22.8271 17.9338 21.521 20.6926 19.4092 22.5969C18.8599 23.0974 18.8843 23.6345 19.165 24.0251C19.4946 24.489 20.2148 24.6599 20.7642 24.1594C23.3154 21.8766 24.9023 18.5563 24.9023 14.8942C24.9023 8.02167 19.3359 2.45526 12.439 2.44305C11.8774 2.45526 11.4258 2.90692 11.4258 3.46844C11.4258 4.04217 11.8896 4.51825 12.4512 4.51825C18.1885 4.51825 22.8271 9.15692 22.8271 14.8942ZM10.4248 28.9079C10.4248 29.7868 11.0229 30.0187 11.6943 29.5305L15.5762 26.8083C16.1499 26.4055 16.1377 25.8195 15.5762 25.4289L11.6821 22.6945C11.0229 22.2307 10.4248 22.4504 10.4248 23.3171ZM2.0752 14.8942C2.0752 11.8425 3.38135 9.09589 5.50537 7.17938C6.04248 6.67889 6.01807 6.15399 5.7373 5.75116C5.40771 5.2995 4.6875 5.1286 4.13818 5.62909C1.58691 7.9118 0 11.2321 0 14.8942C0 21.7668 5.56641 27.3332 12.4634 27.3454C13.0249 27.3332 13.4888 26.8693 13.4888 26.3078C13.4888 25.7341 13.0127 25.2702 12.4512 25.2702C6.71387 25.2702 2.0752 20.6315 2.0752 14.8942Z" fill="currentColor" fill-opacity="0.85"/>
</svg>
