<svg width="128" height="151" viewBox="0 0 128 151" fill="none" xmlns="http://www.w3.org/2000/svg">
  <path d="M63.6475 150.952C62.1094 150.952 59.9854 150.293 58.0811 149.341C15.2344 126.929 0 115.356 0 88.6963V34.4971C0 24.0234 3.51562 19.7754 12.5977 15.8936C19.8486 12.8906 46.5088 3.58887 53.3203 1.68457C56.543 0.805664 60.4248 0 63.6475 0C66.7969 0 70.752 0.65918 73.9014 1.68457C80.7129 3.88184 107.373 12.8174 114.624 15.8936C123.706 19.7754 127.222 24.0234 127.222 34.4971V88.6963C127.222 115.356 112.061 127.002 69.1406 149.341C67.2363 150.293 65.1123 150.952 63.6475 150.952ZM63.6475 131.763C64.4531 131.763 65.2588 131.47 67.3096 130.298C99.0967 111.328 109.717 105.762 109.717 85.9131V36.9141C109.717 34.1309 109.131 32.959 107.007 32.1533C96.6064 28.2715 76.6113 21.3867 68.9941 18.5303C66.5039 17.7246 65.1123 17.3584 63.6475 17.3584C62.1826 17.3584 60.7178 17.7246 58.2275 18.5303C50.6104 21.3867 30.542 27.9785 20.2148 32.1533C18.0908 33.0322 17.5049 34.1309 17.5049 36.9141V85.9131C17.5049 105.396 27.0996 110.01 59.9121 130.298C61.9629 131.47 62.7686 131.763 63.6475 131.763ZM37.793 98.6572V71.1914C37.793 66.3574 39.6973 63.7939 43.5059 63.1348V55.5176C43.5059 42.1143 51.6357 33.0322 63.6475 33.0322C75.7324 33.0322 83.8623 42.1143 83.8623 55.5176V63.208C87.6709 63.7939 89.5752 66.3574 89.5752 71.1914V98.6572C89.5752 104.37 86.9385 107.08 81.665 107.08H45.7031C40.3564 107.08 37.793 104.37 37.793 98.6572ZM53.6865 62.8418H73.6816V54.9316C73.6816 47.6807 69.7998 42.9932 63.6475 42.9932C57.5684 42.9932 53.6865 47.6807 53.6865 54.9316V62.8418Z" fill="white"/>
</svg>
