<svg width="22" height="16" viewBox="0 0 22 16" fill="none" xmlns="http://www.w3.org/2000/svg">
  <path d="M0 8C0 7.45 0.15 6.97 0.45 6.56L5.36 1.64C5.66 1.34 6.01 1.19 6.42 1.19C6.84 1.19 7.19 1.34 7.47 1.64C7.75 1.93 7.89 2.29 7.89 2.72C7.89 3.15 7.74 3.51 7.43 3.82L5.28 5.97H16.72L14.57 3.82C14.26 3.51 14.11 3.15 14.11 2.72C14.11 2.29 14.25 1.93 14.53 1.64C14.81 1.34 15.16 1.19 15.58 1.19C15.99 1.19 16.34 1.34 16.64 1.64L21.55 6.56C21.85 6.97 22 7.45 22 8C22 8.55 21.85 9.03 21.55 9.44L16.64 14.36C16.34 14.66 15.99 14.81 15.58 14.81C15.16 14.81 14.81 14.66 14.53 14.36C14.25 14.07 14.11 13.71 14.11 13.28C14.11 12.85 14.26 12.49 14.57 12.18L16.72 10.03H5.28L7.43 12.18C7.74 12.49 7.89 12.85 7.89 13.28C7.89 13.71 7.75 14.07 7.47 14.36C7.19 14.66 6.84 14.81 6.42 14.81C6.01 14.81 5.66 14.66 5.36 14.36L0.45 9.44C0.15 9.03 0 8.55 0 8Z" fill="currentColor"/>
</svg>
