<svg xmlns="http://www.w3.org/2000/svg" viewBox="0 0 30.4565 23.645">
 <path d="M0.57373 19.9219C0.57373 22.3389 1.85547 23.5962 4.30908 23.5962L19.3115 23.5962C21.7529 23.5962 23.0347 22.3389 23.0347 19.9219L23.0347 15.6128C23.0347 15.4175 23.1689 15.3198 23.4009 15.4785C24.1699 16.0278 25.061 16.4185 26.0864 16.4185C28.3936 16.4185 30.4565 14.563 30.4565 11.8408C30.4565 9.13086 28.3936 7.27539 26.0864 7.27539C25.061 7.27539 24.1699 7.66602 23.4009 8.21533C23.1689 8.37402 23.0347 8.27637 23.0347 8.08105L23.0347 3.67432C23.0347 1.25732 21.7529 0 19.3115 0L4.30908 0C1.85547 0 0.57373 1.25732 0.57373 3.67432L0.57373 9.06982C0.57373 10.0952 1.24512 10.7056 2.0874 10.7056C2.55127 10.7056 3.02734 10.5103 3.50342 10.0708C4.10156 9.53369 4.77295 9.2041 5.49316 9.2041C6.88477 9.2041 8.05664 10.2417 8.05664 11.8164C8.05664 13.3911 6.88477 14.4287 5.49316 14.4287C4.77295 14.4287 4.10156 14.0869 3.50342 13.5498C3.02734 13.1226 2.55127 12.9272 2.0874 12.9272C1.24512 12.9272 0.57373 13.5376 0.57373 14.5508ZM2.53906 19.8242L2.53906 15.7593C2.53906 15.1855 2.83203 15.4053 3.06396 15.5518C3.80859 16.0278 4.62646 16.3818 5.59082 16.3818C7.88574 16.3818 9.96094 14.5386 9.96094 11.8164C9.96094 9.09424 7.88574 7.25098 5.59082 7.25098C4.62646 7.25098 3.80859 7.60498 3.06396 8.08105C2.83203 8.22754 2.53906 8.44727 2.53906 7.87354L2.53906 3.77197C2.53906 2.6123 3.21045 1.96533 4.3457 1.96533L19.2749 1.96533C20.4102 1.96533 21.0693 2.6123 21.0693 3.77197L21.0693 9.06982C21.0693 10.0952 21.7407 10.7422 22.583 10.7422C23.0469 10.7422 23.5229 10.5469 23.999 10.1074C24.5972 9.57031 25.2686 9.22852 25.9888 9.22852C27.3804 9.22852 28.5522 10.2661 28.5522 11.8408C28.5522 13.4277 27.3804 14.4653 25.9888 14.4653C25.2686 14.4653 24.5972 14.1235 23.999 13.5864C23.5229 13.147 23.0469 12.9517 22.583 12.9517C21.7407 12.9517 21.0693 13.5986 21.0693 14.624L21.0693 19.8242C21.0693 20.9961 20.4102 21.6309 19.2749 21.6309L4.3457 21.6309C3.21045 21.6309 2.53906 20.9961 2.53906 19.8242Z" fill="#637684" fill-opacity="0.85"/>
</svg>
