<svg width="12" height="20" viewBox="0 0 12 20" fill="none" xmlns="http://www.w3.org/2000/svg">
  <path d="M5.85 12.89C5.15 12.89 4.7 12.5 4.68 11.73C4.65 10.56 4.97 9.88 6.1 9.09C7.2 8.31 7.73 7.53 7.73 6.44C7.73 5.1 6.7 4.17 5.33 4.17C4.2 4.17 3.35 4.75 2.93 5.65C2.71 6.11 2.38 6.39 1.88 6.39C1.27 6.39 0.8 5.93 0.8 5.3C0.8 5.08 0.85 4.85 0.96 4.62C1.63 3.09 3.28 2 5.4 2C8.05 2 10.13 3.67 10.13 6.14C10.13 7.78 9.33 8.88 7.97 9.83C6.93 10.56 6.63 11.03 6.63 11.86C6.63 12.44 6.35 12.89 5.85 12.89ZM5.85 17.64C5.12 17.64 4.5 17.06 4.5 16.33C4.5 15.59 5.12 15.01 5.85 15.01C6.59 15.01 7.2 15.59 7.2 16.33C7.2 17.06 6.59 17.64 5.85 17.64Z" fill="currentColor" fill-opacity="0.85"/>
</svg>
