<svg width="16" height="14" viewBox="0 0 16 14" fill="none" xmlns="http://www.w3.org/2000/svg">
<path d="M11.75 3.63281C11.4271 3.86198 11.0651 3.97656 10.6641 3.97656C10.263 3.97656 9.90104 3.86198 9.57812 3.63281C9.25521 3.39844 9.02865 3.09896 8.89844 2.73438H0.625C0.447917 2.73438 0.296875 2.67448 0.171875 2.55469C0.0520833 2.42969 -0.0078125 2.27865 -0.0078125 2.10156C-0.0078125 1.92448 0.0520833 1.77604 0.171875 1.65625C0.296875 1.53646 0.447917 1.47656 0.625 1.47656H8.89844C9.02865 1.10677 9.25521 0.804688 9.57812 0.570312C9.90104 0.335938 10.263 0.21875 10.6641 0.21875C11.0651 0.21875 11.4271 0.335938 11.75 0.570312C12.0729 0.804688 12.3021 1.10677 12.4375 1.47656H15.1328C15.2943 1.47656 15.4349 1.53906 15.5547 1.66406C15.6745 1.78385 15.7344 1.92969 15.7344 2.10156C15.7344 2.27344 15.6745 2.42188 15.5547 2.54688C15.4349 2.67188 15.2943 2.73438 15.1328 2.73438H12.4297C12.2995 3.09896 12.0729 3.39844 11.75 3.63281ZM10.0156 2.75C10.1927 2.92708 10.4089 3.01562 10.6641 3.01562C10.9193 3.01562 11.1354 2.92708 11.3125 2.75C11.4896 2.57292 11.5781 2.35417 11.5781 2.09375C11.5781 1.83333 11.4896 1.61719 11.3125 1.44531C11.1354 1.26823 10.9193 1.17969 10.6641 1.17969C10.4089 1.17969 10.1927 1.26823 10.0156 1.44531C9.83854 1.6224 9.75 1.83854 9.75 2.09375C9.75 2.34896 9.83854 2.56771 10.0156 2.75ZM0.59375 6.24219H3.38281C3.51823 5.8776 3.7474 5.58073 4.07031 5.35156C4.39323 5.11719 4.7526 5 5.14844 5C5.54948 5 5.91146 5.11719 6.23438 5.35156C6.55729 5.58073 6.78646 5.8776 6.92188 6.24219H15.1016C15.2786 6.24219 15.4271 6.30469 15.5469 6.42969C15.6719 6.54948 15.7344 6.69792 15.7344 6.875C15.7344 7.05208 15.6719 7.20052 15.5469 7.32031C15.4271 7.4401 15.2786 7.5 15.1016 7.5H6.92188C6.79167 7.86979 6.5651 8.17188 6.24219 8.40625C5.91927 8.64062 5.55469 8.75781 5.14844 8.75781C4.7474 8.75781 4.38542 8.64062 4.0625 8.40625C3.73958 8.17188 3.51302 7.86979 3.38281 7.5H0.59375C0.432292 7.5 0.291667 7.4401 0.171875 7.32031C0.0520833 7.19531 -0.0078125 7.04688 -0.0078125 6.875C-0.0078125 6.70312 0.0520833 6.55469 0.171875 6.42969C0.291667 6.30469 0.432292 6.24219 0.59375 6.24219ZM5.14844 7.78906C5.40885 7.78906 5.625 7.70052 5.79688 7.52344C5.97396 7.34635 6.0625 7.13021 6.0625 6.875C6.0625 6.61458 5.97396 6.39844 5.79688 6.22656C5.625 6.04948 5.40885 5.96094 5.14844 5.96094C4.89323 5.96094 4.67708 6.04948 4.5 6.22656C4.32292 6.40365 4.23438 6.61979 4.23438 6.875C4.23438 7.13021 4.32292 7.34635 4.5 7.52344C4.67708 7.70052 4.89323 7.78906 5.14844 7.78906ZM11.75 13.1719C11.4271 13.4062 11.0651 13.5234 10.6641 13.5234C10.263 13.5234 9.90104 13.4062 9.57812 13.1719C9.25521 12.9427 9.02865 12.6432 8.89844 12.2734H0.625C0.447917 12.2734 0.296875 12.2135 0.171875 12.0938C0.0520833 11.974 -0.0078125 11.8255 -0.0078125 11.6484C-0.0078125 11.4714 0.0520833 11.3229 0.171875 11.2031C0.296875 11.0781 0.447917 11.0156 0.625 11.0156H8.89844C9.02865 10.6458 9.25521 10.3464 9.57812 10.1172C9.90104 9.88802 10.263 9.77344 10.6641 9.77344C11.0651 9.77344 11.4271 9.88802 11.75 10.1172C12.0729 10.3464 12.2995 10.6458 12.4297 11.0156H15.1328C15.2943 11.0156 15.4349 11.0781 15.5547 11.2031C15.6745 11.3281 15.7344 11.4766 15.7344 11.6484C15.7344 11.8203 15.6745 11.9688 15.5547 12.0938C15.4349 12.2135 15.2943 12.2734 15.1328 12.2734H12.4297C12.2995 12.6432 12.0729 12.9427 11.75 13.1719ZM10.0156 12.2969C10.1927 12.474 10.4089 12.5625 10.6641 12.5625C10.9193 12.5625 11.1354 12.474 11.3125 12.2969C11.4896 12.1198 11.5781 11.9036 11.5781 11.6484C11.5781 11.388 11.4896 11.1719 11.3125 11C11.1406 10.8229 10.9245 10.7344 10.6641 10.7344C10.4089 10.7344 10.1927 10.8229 10.0156 11C9.83854 11.1719 9.75 11.388 9.75 11.6484C9.75 11.9036 9.83854 12.1198 10.0156 12.2969Z" fill="#272D31"/>
</svg>
