<svg width="17" height="18" viewBox="0 0 17 18" fill="none" xmlns="http://www.w3.org/2000/svg">
<path d="M15.8242 1.43848C16.2812 1.89551 16.583 2.44043 16.7295 3.07324C16.8818 3.70605 16.958 4.46777 16.958 5.3584L16.958 11.9414C16.958 12.8379 16.8818 13.6025 16.7295 14.2354C16.583 14.8623 16.2813 15.4043 15.8242 15.8613C15.3613 16.3184 14.8105 16.623 14.1719 16.7754C13.5391 16.9336 12.7803 17.0127 11.8955 17.0127L5.30371 17.0127C4.41895 17.0127 3.66016 16.9336 3.02734 16.7754C2.39453 16.623 1.84668 16.3184 1.38379 15.8613C0.926758 15.4043 0.62207 14.8623 0.469727 14.2354C0.317383 13.6025 0.241211 12.8379 0.241211 11.9414L0.241211 5.34961C0.241211 4.46484 0.317383 3.70898 0.469727 3.08203C0.62207 2.44922 0.926758 1.90137 1.38379 1.43848C1.84082 0.987305 2.38574 0.685547 3.01855 0.533203C3.65723 0.375 4.41602 0.295898 5.29492 0.295898L11.8955 0.295898C12.7803 0.295898 13.5391 0.375 14.1719 0.533203C14.8105 0.685547 15.3613 0.987305 15.8242 1.43848ZM11.4648 11.2822C11.7461 11.2822 11.9658 11.1885 12.124 11.001C12.2881 10.8135 12.3701 10.5674 12.3701 10.2627V6.06152C12.3701 5.66309 12.2617 5.36133 12.0449 5.15625C11.8281 4.95117 11.5293 4.84863 11.1484 4.84863L6.92969 4.84863C6.61914 4.84863 6.37012 4.93066 6.18262 5.09473C5.99512 5.25879 5.90137 5.48145 5.90137 5.7627C5.90137 6.03809 5.99219 6.25781 6.17383 6.42187C6.36133 6.58594 6.61035 6.66797 6.9209 6.66797H8.25684L9.34668 6.52734L8.09863 7.62598L5.1543 10.5703C4.93164 10.7871 4.82031 11.0391 4.82031 11.3262C4.82031 11.6426 4.91992 11.8945 5.11914 12.082C5.32422 12.2695 5.57031 12.3633 5.85742 12.3633C6.00977 12.3633 6.15332 12.3369 6.28809 12.2842C6.42285 12.2314 6.54883 12.1465 6.66602 12.0293L9.58398 9.11133L10.6738 7.87207L10.5508 9.01465V10.2627C10.5508 10.5732 10.6328 10.8223 10.7969 11.0098C10.9609 11.1914 11.1836 11.2822 11.4648 11.2822Z" fill="#8992A4"/>
</svg>
