<svg width="153" height="148" viewBox="0 0 153 148" fill="none" xmlns="http://www.w3.org/2000/svg">
  <path d="M14.0283 48.623C9.39453 48.623 6.72852 45.1953 6.72852 41.7676C6.72852 39.2285 8.06152 36.9434 11.1084 35.166L67.7295 2.53906C70.459 0.952148 73.6328 0 76.6162 0C79.5996 0 82.7734 0.952148 85.5664 2.53906L142.188 35.166C145.171 36.9434 146.567 39.2285 146.567 41.7676C146.567 45.1953 143.838 48.623 139.204 48.623H14.0283ZM74.9023 15.2344L38.5303 35.5469H114.702L78.3936 15.2344C77.8223 14.917 77.1875 14.7266 76.6162 14.7266C76.1084 14.7266 75.4102 14.917 74.9023 15.2344ZM17.3291 128.477C14.2188 128.477 12.3779 126.636 12.3779 123.525V122.573C12.3779 119.526 14.2822 117.749 17.3291 117.749H20.0586V64.2383H17.3291C14.2822 64.2383 12.3779 62.4609 12.3779 59.3506V58.4619C12.3779 55.3516 14.2188 53.4473 17.3291 53.4473H35.1025C38.2129 53.4473 40.1172 55.3516 40.1172 58.4619V59.3506C40.1172 62.4609 38.2129 64.2383 35.1025 64.2383H32.373V117.749H35.1025C38.2129 117.749 40.1172 119.526 40.1172 122.573V123.525C40.1172 126.636 38.2129 128.477 35.1025 128.477H17.3291ZM50.9082 128.477C47.7979 128.477 45.957 126.636 45.957 123.525V122.573C45.957 119.526 47.8613 117.749 50.9082 117.749H53.6377V64.2383H50.9082C47.8613 64.2383 45.957 62.4609 45.957 59.3506V58.4619C45.957 55.3516 47.7979 53.4473 50.9082 53.4473H68.7451C71.792 53.4473 73.6963 55.3516 73.6963 58.4619V59.3506C73.6963 62.4609 71.792 64.2383 68.7451 64.2383H65.9521V117.749H68.7451C71.792 117.749 73.6963 119.526 73.6963 122.573V123.525C73.6963 126.636 71.792 128.477 68.7451 128.477H50.9082ZM84.5508 128.477C81.4404 128.477 79.5996 126.636 79.5996 123.525V122.573C79.5996 119.526 81.4404 117.749 84.5508 117.749H87.3438V64.2383H84.5508C81.4404 64.2383 79.5996 62.4609 79.5996 59.3506V58.4619C79.5996 55.3516 81.4404 53.4473 84.5508 53.4473H102.324C105.435 53.4473 107.275 55.3516 107.275 58.4619V59.3506C107.275 62.4609 105.371 64.2383 102.324 64.2383H99.5947V117.749H102.324C105.371 117.749 107.275 119.526 107.275 122.573V123.525C107.275 126.636 105.435 128.477 102.324 128.477H84.5508ZM118.13 128.477C115.02 128.477 113.179 126.636 113.179 123.525V122.573C113.179 119.526 115.02 117.749 118.13 117.749H120.923V64.2383H118.13C115.02 64.2383 113.179 62.4609 113.179 59.3506V58.4619C113.179 55.3516 115.02 53.4473 118.13 53.4473H135.903C139.014 53.4473 140.854 55.3516 140.854 58.4619V59.3506C140.854 62.4609 138.95 64.2383 135.903 64.2383H133.174V117.749H135.903C138.95 117.749 140.854 119.526 140.854 122.573V123.525C140.854 126.636 139.014 128.477 135.903 128.477H118.13ZM6.91895 147.139C3.17383 147.139 0 144.028 0 140.22C0 136.475 3.17383 133.364 6.91895 133.364H145.361C149.043 133.364 152.28 136.475 152.28 140.22C152.28 144.092 149.043 147.139 145.361 147.139H6.91895Z" fill="white"/>
</svg>
