<svg width="48" height="49" viewBox="0 0 48 49" fill="none" xmlns="http://www.w3.org/2000/svg">
<path d="M37.9935 30.3405C38.6123 29.9833 39.3747 29.9833 39.9935 30.3405L45.9869 33.8008C46.6057 34.1581 46.9869 34.8187 46.9869 35.5333V42.4538C46.9869 43.1683 46.6057 43.829 45.9869 44.1863L39.9935 47.6465C39.3747 48.0037 38.6123 48.0037 37.9935 47.6465L32 44.1863C31.3812 43.829 31 43.1683 31 42.4538V35.5333C31 34.8187 31.3812 34.1581 32 33.8008L37.9935 30.3405Z" fill="#FFC500" stroke="#C69900" stroke-width="2"/>
<path d="M36.9941 36.9935C38.0987 36.9935 38.9941 36.0981 38.9941 34.9935C38.9941 33.889 38.0987 32.9935 36.9941 32.9935C35.8896 32.9935 34.9941 33.889 34.9941 34.9935C34.9941 36.0981 35.8896 36.9935 36.9941 36.9935Z" fill="#C69900"/>
<path d="M7.99349 30.3405C8.61229 29.9833 9.37469 29.9833 9.99349 30.3405L15.987 33.8008C16.6058 34.1581 16.987 34.8187 16.987 35.5333V42.4538C16.987 43.1683 16.6058 43.829 15.987 44.1863L9.99349 47.6465C9.37469 48.0037 8.61229 48.0037 7.99349 47.6465L2 44.1863C1.38119 43.829 1 43.1683 1 42.4538V35.5333C1 34.8187 1.38119 34.1581 2 33.8008L7.99349 30.3405Z" fill="#FFC500" stroke="#C69900" stroke-width="2"/>
<path d="M10.9941 36.9935C12.0987 36.9935 12.9941 36.0981 12.9941 34.9935C12.9941 33.889 12.0987 32.9935 10.9941 32.9935C9.88957 32.9935 8.99414 33.889 8.99414 34.9935C8.99414 36.0981 9.88957 36.9935 10.9941 36.9935Z" fill="#C69900"/>
<path d="M15.6741 9.99349C15.317 9.37469 15.317 8.61229 15.6741 7.99349L19.1344 2C19.4917 1.38119 20.1523 1 20.8669 1H27.7874C28.5019 1 29.1626 1.38119 29.5199 2L32.9801 7.99349C33.3373 8.61229 33.3373 9.37469 32.9801 9.99349L29.5199 15.987C29.1626 16.6058 28.5019 16.987 27.7874 16.987H20.8669C20.1523 16.987 19.4917 16.6058 19.1344 15.987L15.6741 9.99349Z" fill="#FFC500" stroke="#C69900" stroke-width="2"/>
<path d="M21.6602 15.6602C22.7647 15.6602 23.6602 14.7647 23.6602 13.6602C23.6602 12.5556 22.7647 11.6602 21.6602 11.6602C20.5556 11.6602 19.6602 12.5556 19.6602 13.6602C19.6602 14.7647 20.5556 15.6602 21.6602 15.6602Z" fill="#C69900"/>
<path d="M26.9941 15.6602C28.0987 15.6602 28.9941 14.7647 28.9941 13.6602C28.9941 12.5556 28.0987 11.6602 26.9941 11.6602C25.8896 11.6602 24.9941 12.5556 24.9941 13.6602C24.9941 14.7647 25.8896 15.6602 26.9941 15.6602Z" fill="#C69900"/>
<path d="M21.9926 13.3268L11.3262 34.6602M26.6593 13.3268L36.9926 34.6602" stroke="#C69900" stroke-width="2" stroke-linecap="round"/>
</svg>
