<svg width="29" height="29" viewBox="0 0 29 29" fill="none" xmlns="http://www.w3.org/2000/svg">
<path d="M0.615234 27.5801C0 26.9824 0.0175781 25.9629 0.615234 25.3652L11.8652 14.0977L0.615234 2.84766C0.0175781 2.25 0.0175781 1.24805 0.615234 0.632812C1.21289 0 2.25 0.0175781 2.84766 0.632812L14.0977 11.8828L25.3477 0.632812C25.9453 0.0175781 26.9648 0.0175781 27.5801 0.632812C28.1953 1.23047 28.1777 2.25 27.5801 2.84766L16.3301 14.0977L27.5801 25.3652C28.1777 25.9629 28.1777 26.9648 27.5801 27.5801C26.9824 28.1953 25.9453 28.1777 25.3477 27.5801L14.0977 16.3301L2.84766 27.5801C2.25 28.1777 1.23047 28.1777 0.615234 27.5801Z" fill="#637684"/>
</svg>
