<svg width="94" height="105" viewBox="0 0 94 105" fill="none" xmlns="http://www.w3.org/2000/svg">
<path d="M43.1819 12.9229C44.8816 11.7631 47.1184 11.7631 48.8181 12.9229L62.8707 22.5112C64.2359 23.4428 65.0526 24.9887 65.0526 26.6414V47.3586C65.0526 49.0113 64.2359 50.5572 62.8707 51.4888L48.8181 61.0771C47.1184 62.2369 44.8816 62.2369 43.1819 61.0771L29.1293 51.4888C27.7641 50.5572 26.9474 49.0113 26.9474 47.3586V26.6414C26.9474 24.9887 27.7641 23.4428 29.1293 22.5112L43.1819 12.9229Z" fill="#FFC300"/>
<path d="M58.5 51.4434C60.047 50.5502 61.953 50.5502 63.5 51.4434L72.3564 56.5566C73.9034 57.4498 74.8564 59.1004 74.8564 60.8868V71.1132C74.8564 72.8996 73.9034 74.5502 72.3564 75.4434L63.5 80.5566C61.953 81.4498 60.047 81.4498 58.5 80.5566L49.6436 75.4434C48.0966 74.5502 47.1436 72.8996 47.1436 71.1132V60.8868C47.1436 59.1004 48.0966 57.4498 49.6436 56.5566L58.5 51.4434Z" fill="#D12A89" stroke="#FFC300" stroke-width="2"/>
<path d="M72.5 27.4434C74.047 26.5502 75.953 26.5502 77.5 27.4434L86.3564 32.5566C87.9034 33.4498 88.8564 35.1004 88.8564 36.8868V47.1132C88.8564 48.8996 87.9034 50.5502 86.3564 51.4434L77.5 56.5566C75.953 57.4498 74.047 57.4498 72.5 56.5566L63.6436 51.4434C62.0966 50.5502 61.1436 48.8996 61.1436 47.1132V36.8868C61.1436 35.1004 62.0966 33.4498 63.6436 32.5566L72.5 27.4434Z" fill="#755CBA" stroke="#FFC300" stroke-width="2"/>
<path d="M58.5 3.44338C60.047 2.55021 61.953 2.55021 63.5 3.44338L72.3564 8.55662C73.9034 9.44979 74.8564 11.1004 74.8564 12.8868V23.1132C74.8564 24.8996 73.9034 26.5502 72.3564 27.4434L63.5 32.5566C61.953 33.4498 60.047 33.4498 58.5 32.5566L49.6436 27.4434C48.0966 26.5502 47.1436 24.8996 47.1436 23.1132V12.8868C47.1436 11.1004 48.0966 9.44979 49.6436 8.55662L58.5 3.44338Z" fill="#288ED2" stroke="#FFC300" stroke-width="2"/>
<path d="M30.5 3.44338C32.047 2.55021 33.953 2.55021 35.5 3.44338L44.3564 8.55662C45.9034 9.44979 46.8564 11.1004 46.8564 12.8868V23.1132C46.8564 24.8996 45.9034 26.5502 44.3564 27.4434L35.5 32.5566C33.953 33.4498 32.047 33.4498 30.5 32.5566L21.6436 27.4434C20.0966 26.5502 19.1436 24.8996 19.1436 23.1132V12.8868C19.1436 11.1004 20.0966 9.44979 21.6436 8.55662L30.5 3.44338Z" fill="#31AFF5" stroke="#FFC300" stroke-width="2"/>
<path d="M16.5 27.4434C18.047 26.5502 19.953 26.5502 21.5 27.4434L30.3564 32.5566C31.9034 33.4498 32.8564 35.1004 32.8564 36.8868V47.1132C32.8564 48.8996 31.9034 50.5502 30.3564 51.4434L21.5 56.5566C19.953 57.4498 18.047 57.4498 16.5 56.5566L7.64359 51.4434C6.09659 50.5502 5.14359 48.8996 5.14359 47.1132V36.8868C5.14359 35.1004 6.09659 33.4498 7.64359 32.5566L16.5 27.4434Z" fill="#0F9B81" stroke="#FFC300" stroke-width="2"/>
<path d="M30.5 51.4434C32.047 50.5502 33.953 50.5502 35.5 51.4434L44.3564 56.5566C45.9034 57.4498 46.8564 59.1004 46.8564 60.8868V71.1132C46.8564 72.8996 45.9034 74.5502 44.3564 75.4434L35.5 80.5566C33.953 81.4498 32.047 81.4498 30.5 80.5566L21.6436 75.4434C20.0966 74.5502 19.1436 72.8996 19.1436 71.1132V60.8868C19.1436 59.1004 20.0966 57.4498 21.6436 56.5566L30.5 51.4434Z" fill="#D22839" stroke="#FFC300" stroke-width="2"/>
<path d="M42.3135 50H48.663C52.5482 50 55 47.9666 55 44.8109C55 42.4159 53.0637 40.6072 50.6119 40.4948V40.3949C52.6237 40.1205 54.1576 38.5114 54.1576 36.4908C54.1576 33.709 52.0076 32 48.4367 32H42.3135C40.855 32 40 32.8731 40 34.395V47.605C40 49.1269 40.855 50 42.3135 50ZM44.6144 39.3346V35.2433H47.2171C48.7636 35.2433 49.6689 35.9916 49.6689 37.2515C49.6689 38.549 48.663 39.3346 46.9908 39.3346H44.6144ZM44.6144 46.7567V42.1163H47.3303C49.2289 42.1163 50.3101 42.9398 50.3101 44.4117C50.3101 45.9336 49.254 46.7567 47.3554 46.7567H44.6144Z" fill="white"/>
</svg>
