<svg width="54" height="40" viewBox="0 0 54 40" fill="none" xmlns="http://www.w3.org/2000/svg">
  <path
    fill-rule="evenodd"
    clip-rule="evenodd"
    d="M51.1021 6.36117C51.1021 2.85043 48.273 0 44.7886 0L6.3136 0C2.82904 0 0 2.85043 0 6.36117L0 19.0835C0 22.5945 2.82904 25.4447 6.3136 25.4447L44.7886 25.4447C48.273 25.4447 51.1021 22.5945 51.1021 19.0835V6.36117Z"
    fill="white"
  />
  <path
    fill-rule="evenodd"
    clip-rule="evenodd"
    d="M49.8542 21.2355C52.3704 23.771 56.3716 33.3697 50.7727 34.2754C45.1092 35.1913 47.889 24.3922 39.1558 29.182C37.3143 30.192 38.5158 32.339 38.9475 33.2087C39.3568 34.0333 44.5786 37.0824 43.0093 38.639C42.3657 39.2774 40.6966 40.9766 37.5304 38.9387C33.3093 36.2222 36.144 35.2282 31.8101 34.505C29.4589 34.1127 29.9765 31.0269 27.2921 31.0269C26.6259 31.0269 25.2586 32.2932 25.6953 32.8099C27.7415 35.2306 28.0385 36.1138 27.7392 37.3303C27.4439 38.5304 27.1365 38.802 26.8006 39.0218C20.643 43.0513 18.53 33.4531 14.6964 31.5217C11.7984 30.0617 13.4661 33.4976 13.5292 34.2873C13.6262 35.5059 12.3007 37.1057 10.8302 36.3346C7.43134 34.5522 10.1915 31.3857 8.24549 27.3083C7.50688 25.7607 5.23199 25.6661 4.39676 27.5051C2.11488 32.5291 0.319153 27.0937 0.319153 26.103C0.319153 23.3272 1.54803 22.9877 1.54803 20.1867"
    fill="white"
  />
  <path
    d="M20.1811 24.2559H27.0983C31.3309 24.2559 34.0019 22.0062 34.0019 18.5148C34.0019 15.865 31.8925 13.864 29.2214 13.7397V13.629C31.4131 13.3255 33.0842 11.5453 33.0842 9.30969C33.0842 6.23206 30.7419 4.34123 26.8518 4.34123L20.1811 4.34123C18.5922 4.34123 17.6607 5.30723 17.6607 6.99097L17.6607 21.6061C17.6607 23.2899 18.5922 24.2559 20.1811 24.2559ZM22.6877 12.456V7.92952H25.5231C27.2079 7.92952 28.1942 8.75747 28.1942 10.1514C28.1942 11.5868 27.0983 12.456 25.2766 12.456H22.6877ZM22.6877 20.6676V15.5336H25.6464C27.7147 15.5336 28.8927 16.4447 28.8927 18.0731C28.8927 19.7569 27.7421 20.6676 25.6738 20.6676H22.6877Z"
    fill="#008fcf"
  />
</svg>
