<svg width="869" height="138" viewBox="0 0 869 138" fill="none" xmlns="http://www.w3.org/2000/svg">
<rect width="868" height="138" transform="translate(1)" fill="white"/>
<path d="M94.9873 7V135.988" stroke="#C7C7CC" stroke-width="0.5" stroke-dasharray="2.01 2.01"/>
<path d="M188.975 7V135.988" stroke="#C7C7CC" stroke-width="0.5" stroke-dasharray="2.01 2.01"/>
<path d="M282.962 7V135.988" stroke="#C7C7CC" stroke-width="0.5" stroke-dasharray="2.01 2.01"/>
<path d="M376.949 7V135.988" stroke="#C7C7CC" stroke-width="0.5" stroke-dasharray="2.01 2.01"/>
<path d="M470.937 7V135.988" stroke="#C7C7CC" stroke-width="0.5" stroke-dasharray="2.01 2.01"/>
<path d="M564.924 7V135.988" stroke="#C7C7CC" stroke-width="0.5" stroke-dasharray="2.01 2.01"/>
<path d="M658.911 7V135.988" stroke="#C7C7CC" stroke-width="0.5" stroke-dasharray="2.01 2.01"/>
<path d="M1 29.6895H829" stroke="#C7C7CC" stroke-width="0.5"/>
<path d="M1 52.5015H829" stroke="#C7C7CC" stroke-width="0.5"/>
<path d="M1 75.3135H829" stroke="#C7C7CC" stroke-width="0.5"/>
<path d="M1 98.1255H829" stroke="#C7C7CC" stroke-width="0.5"/>
<mask id="path-12-outside-1_2925_417" maskUnits="userSpaceOnUse" x="0" y="6.04492" width="830" height="132" fill="black">
<rect fill="white" y="6.04492" width="830" height="132"/>
<path d="M1 7.04492H829V137.878H1V7.04492Z"/>
</mask>
<path d="M1 7.04492V6.54492H0.5V7.04492H1ZM829 7.04492H829.5V6.54492H829V7.04492ZM1 7.04492V7.54492H829V7.04492V6.54492H1V7.04492ZM829 7.04492H828.5V137.878H829H829.5V7.04492H829ZM1 137.878H1.5V7.04492H1H0.5V137.878H1Z" fill="#C7C7CC" mask="url(#path-12-outside-1_2925_417)"/>
<path opacity="0.3" d="M197 7H223V111.8C223 112.92 223 113.48 222.782 113.908C222.59 114.284 222.284 114.59 221.908 114.782C221.48 115 220.92 115 219.8 115H200.2C199.08 115 198.52 115 198.092 114.782C197.716 114.59 197.41 114.284 197.218 113.908C197 113.48 197 112.92 197 111.8V7Z" fill="#34C759"/>
<path opacity="0.3" d="M190 7H196V111C196 111.92 196 112.38 195.853 112.743C195.648 113.248 195.248 113.648 194.743 113.853C194.38 114 193.92 114 193 114C192.08 114 191.62 114 191.257 113.853C190.752 113.648 190.352 113.248 190.147 112.743C190 112.38 190 111.92 190 111V7Z" fill="#34C759"/>
<path opacity="0.3" d="M180 7H189V110.8C189 111.92 189 112.48 188.782 112.908C188.59 113.284 188.284 113.59 187.908 113.782C187.48 114 186.92 114 185.8 114H183.2C182.08 114 181.52 114 181.092 113.782C180.716 113.59 180.41 113.284 180.218 112.908C180 112.48 180 111.92 180 110.8V7Z" fill="#34C759"/>
<rect x="197" y="110" width="26" height="5" rx="2" fill="#34C759"/>
<rect x="190" y="110.433" width="6" height="4.30492" rx="2" fill="#34C759"/>
<rect x="180" y="110.433" width="9" height="4.30492" rx="2" fill="#34C759"/>
<path d="M213.166 103.003C213.471 102.983 213.77 103.062 214.024 103.223L214.489 103.518V103.698C214.524 103.754 214.555 103.811 214.582 103.87L214.627 103.981L214.663 104.096C214.726 104.327 214.734 104.57 214.688 104.804L214.659 104.92L213.37 109.5H215.09C215.357 109.5 215.612 109.575 215.832 109.709L215.924 109.77L216.011 109.837C216.15 109.953 216.263 110.093 216.35 110.245L216.439 110.435L216.503 110.632C216.552 110.833 216.56 111.042 216.527 111.246C216.484 111.517 216.366 111.778 216.18 111.994L216.181 111.995L208.86 120.494L208.861 120.495C208.671 120.716 208.415 120.881 208.121 120.956L207.993 120.982C207.687 121.031 207.381 120.978 207.114 120.84L207.003 120.776C206.715 120.593 206.51 120.321 206.402 120.019C206.295 119.717 206.283 119.388 206.37 119.081L207.66 114.5H205.94C205.673 114.5 205.418 114.425 205.197 114.291L205.105 114.229C204.927 114.101 204.783 113.938 204.68 113.755L204.59 113.565C204.488 113.307 204.458 113.025 204.502 112.754L204.549 112.553C204.609 112.354 204.709 112.166 204.85 112.004H204.851L212.169 103.505L212.254 103.414C212.462 103.21 212.731 103.066 213.035 103.018L213.166 103.003Z" fill="#34C759" stroke="white" stroke-width="2"/>
<path opacity="0.3" d="M14.0835 7.04492H81.0835V107.845C81.0835 108.965 81.0835 109.525 80.8655 109.953C80.6738 110.329 80.3678 110.635 79.9915 110.827C79.5637 111.045 79.0036 111.045 77.8835 111.045H17.2835C16.1634 111.045 15.6033 111.045 15.1755 110.827C14.7992 110.635 14.4932 110.329 14.3015 109.953C14.0835 109.525 14.0835 108.965 14.0835 107.845V7.04492Z" fill="#34C759"/>
<rect x="51.3721" y="109.521" width="29.6282" height="4.41167" rx="2" fill="#34C759"/>
<rect x="14" y="109.521" width="37.3719" height="4.41167" rx="2" fill="#34C759"/>
<path d="M69.166 102.003C69.4706 101.983 69.7704 102.062 70.0244 102.223L70.4893 102.518V102.698C70.5236 102.754 70.5554 102.811 70.582 102.87L70.627 102.981L70.6631 103.096C70.726 103.327 70.7343 103.57 70.6875 103.804L70.6592 103.92L69.3701 108.5H71.0898C71.3566 108.5 71.612 108.575 71.832 108.709L71.9238 108.77L72.0107 108.837C72.1496 108.953 72.2634 109.093 72.3496 109.245L72.4395 109.435L72.5029 109.632C72.5523 109.833 72.5602 110.042 72.5273 110.246C72.4836 110.517 72.366 110.778 72.1797 110.994L72.1807 110.995L64.8604 119.494L64.8613 119.495C64.6714 119.716 64.4152 119.881 64.1211 119.956L63.9932 119.982C63.6875 120.031 63.3806 119.978 63.1143 119.84L63.0029 119.776C62.7152 119.593 62.5104 119.321 62.4023 119.019C62.2946 118.717 62.2835 118.388 62.3701 118.081L63.6602 113.5H61.9404C61.6734 113.5 61.4175 113.425 61.1973 113.291L61.1055 113.229C60.9268 113.101 60.7832 112.938 60.6797 112.755L60.5898 112.565C60.4877 112.307 60.4582 112.025 60.502 111.754L60.5488 111.553C60.6089 111.354 60.7095 111.166 60.8496 111.004H60.8506L68.1689 102.505L68.2539 102.414C68.4618 102.21 68.7314 102.066 69.0352 102.018L69.166 102.003Z" fill="#34C759" stroke="white" stroke-width="2"/>
<path d="M35.166 103.003C35.4706 102.983 35.7704 103.062 36.0244 103.223L36.4893 103.518V103.698C36.5236 103.754 36.5554 103.811 36.582 103.87L36.627 103.981L36.6631 104.096C36.726 104.327 36.7343 104.57 36.6875 104.804L36.6592 104.92L35.3701 109.5H37.0898C37.3566 109.5 37.612 109.575 37.832 109.709L37.9238 109.77L38.0107 109.837C38.1496 109.953 38.2634 110.093 38.3496 110.245L38.4395 110.435L38.5029 110.632C38.5523 110.833 38.5602 111.042 38.5273 111.246C38.4836 111.517 38.366 111.778 38.1797 111.994L38.1807 111.995L30.8604 120.494L30.8613 120.495C30.6714 120.716 30.4152 120.881 30.1211 120.956L29.9932 120.982C29.6875 121.031 29.3806 120.978 29.1143 120.84L29.0029 120.776C28.7152 120.593 28.5104 120.321 28.4023 120.019C28.2946 119.717 28.2835 119.388 28.3701 119.081L29.6602 114.5H27.9404C27.6734 114.5 27.4175 114.425 27.1973 114.291L27.1055 114.229C26.9268 114.101 26.7832 113.938 26.6797 113.755L26.5898 113.565C26.4877 113.307 26.4582 113.025 26.502 112.754L26.5488 112.553C26.6089 112.354 26.7095 112.166 26.8496 112.004H26.8506L34.1689 103.505L34.2539 103.414C34.4618 103.21 34.7314 103.066 35.0352 103.018L35.166 103.003Z" fill="#34C759" stroke="white" stroke-width="2"/>
<path d="M8.98438 134.211C6.97461 134.211 5.76758 132.506 5.76758 129.775V129.764C5.76758 127.033 6.97461 125.334 8.98438 125.334C10.9941 125.334 12.2129 127.033 12.2129 129.764V129.775C12.2129 132.506 10.9941 134.211 8.98438 134.211ZM8.98438 132.986C10.0625 132.986 10.6895 131.779 10.6895 129.775V129.764C10.6895 127.76 10.0625 126.564 8.98438 126.564C7.90625 126.564 7.29102 127.76 7.29102 129.764V129.775C7.29102 131.779 7.90625 132.986 8.98438 132.986ZM16.9648 134.211C14.9551 134.211 13.748 132.506 13.748 129.775V129.764C13.748 127.033 14.9551 125.334 16.9648 125.334C18.9746 125.334 20.1934 127.033 20.1934 129.764V129.775C20.1934 132.506 18.9746 134.211 16.9648 134.211ZM16.9648 132.986C18.043 132.986 18.6699 131.779 18.6699 129.775V129.764C18.6699 127.76 18.043 126.564 16.9648 126.564C15.8867 126.564 15.2715 127.76 15.2715 129.764V129.775C15.2715 131.779 15.8867 132.986 16.9648 132.986Z" fill="#C7C7CC"/>
<path d="M111.984 134.211C109.975 134.211 108.768 132.506 108.768 129.775V129.764C108.768 127.033 109.975 125.334 111.984 125.334C113.994 125.334 115.213 127.033 115.213 129.764V129.775C115.213 132.506 113.994 134.211 111.984 134.211ZM111.984 132.986C113.062 132.986 113.689 131.779 113.689 129.775V129.764C113.689 127.76 113.062 126.564 111.984 126.564C110.906 126.564 110.291 127.76 110.291 129.764V129.775C110.291 131.779 110.906 132.986 111.984 132.986ZM119.865 134.17C118.014 134.17 116.801 133.162 116.689 131.715L116.684 131.645H118.125L118.131 131.709C118.213 132.424 118.875 132.934 119.865 132.934C120.844 132.934 121.494 132.389 121.494 131.604V131.592C121.494 130.701 120.838 130.209 119.754 130.209H118.758V129.084H119.725C120.656 129.084 121.277 128.557 121.277 127.818V127.807C121.277 127.033 120.756 126.576 119.854 126.576C118.963 126.576 118.348 127.051 118.271 127.807L118.266 127.865H116.859L116.865 127.801C116.994 126.336 118.148 125.375 119.854 125.375C121.594 125.375 122.725 126.283 122.725 127.607V127.619C122.725 128.668 121.969 129.365 120.955 129.576V129.605C122.197 129.723 123.023 130.461 123.023 131.633V131.645C123.023 133.133 121.74 134.17 119.865 134.17Z" fill="#C7C7CC"/>
<path d="M214.984 134.211C212.975 134.211 211.768 132.506 211.768 129.775V129.764C211.768 127.033 212.975 125.334 214.984 125.334C216.994 125.334 218.213 127.033 218.213 129.764V129.775C218.213 132.506 216.994 134.211 214.984 134.211ZM214.984 132.986C216.062 132.986 216.689 131.779 216.689 129.775V129.764C216.689 127.76 216.062 126.564 214.984 126.564C213.906 126.564 213.291 127.76 213.291 129.764V129.775C213.291 131.779 213.906 132.986 214.984 132.986ZM223.094 134.211C221.289 134.211 219.719 132.928 219.719 129.881V129.869C219.719 127.021 221.002 125.334 223.129 125.334C224.682 125.334 225.842 126.254 226.111 127.549L226.123 127.613H224.641L224.617 127.555C224.395 126.963 223.873 126.576 223.129 126.576C221.787 126.576 221.219 127.889 221.154 129.506C221.154 129.57 221.148 129.635 221.148 129.699H221.266C221.576 129.031 222.314 128.439 223.475 128.439C225.098 128.439 226.234 129.623 226.234 131.229V131.24C226.234 132.957 224.928 134.211 223.094 134.211ZM221.412 131.258C221.412 132.225 222.145 132.98 223.082 132.98C224.02 132.98 224.758 132.236 224.758 131.293V131.281C224.758 130.303 224.061 129.6 223.1 129.6C222.145 129.6 221.412 130.291 221.412 131.246V131.258Z" fill="#C7C7CC"/>
<path d="M317.984 134.211C315.975 134.211 314.768 132.506 314.768 129.775V129.764C314.768 127.033 315.975 125.334 317.984 125.334C319.994 125.334 321.213 127.033 321.213 129.764V129.775C321.213 132.506 319.994 134.211 317.984 134.211ZM317.984 132.986C319.062 132.986 319.689 131.779 319.689 129.775V129.764C319.689 127.76 319.062 126.564 317.984 126.564C316.906 126.564 316.291 127.76 316.291 129.764V129.775C316.291 131.779 316.906 132.986 317.984 132.986ZM325.865 125.334C327.67 125.334 329.24 126.617 329.24 129.664V129.676C329.24 132.523 327.957 134.211 325.83 134.211C324.277 134.211 323.117 133.291 322.848 131.996L322.836 131.932H324.324L324.342 131.99C324.564 132.582 325.086 132.969 325.83 132.969C327.172 132.969 327.74 131.656 327.805 130.039C327.805 129.975 327.811 129.91 327.811 129.846H327.693C327.383 130.514 326.645 131.105 325.484 131.105C323.861 131.105 322.725 129.922 322.725 128.316V128.305C322.725 126.588 324.031 125.334 325.865 125.334ZM325.859 129.945C326.814 129.945 327.547 129.254 327.547 128.299V128.287C327.547 127.32 326.814 126.564 325.877 126.564C324.945 126.564 324.201 127.309 324.201 128.252V128.264C324.201 129.242 324.898 129.945 325.859 129.945Z" fill="#C7C7CC"/>
<path d="M419.953 134V127.033H419.854L417.75 128.521V127.098L419.959 125.545H421.465V134H419.953ZM423.814 134V132.98L426.592 130.145C427.74 128.984 428.062 128.557 428.062 127.906V127.889C428.062 127.109 427.529 126.547 426.65 126.547C425.754 126.547 425.15 127.139 425.15 128.012L425.145 128.035L423.738 128.029L423.732 128.012C423.732 126.436 424.963 125.334 426.727 125.334C428.373 125.334 429.557 126.336 429.557 127.76V127.777C429.557 128.738 429.094 129.5 427.553 130.982L425.859 132.623V132.746H429.686V134H423.814Z" fill="#C7C7CC"/>
<path d="M522.953 134V127.033H522.854L520.75 128.521V127.098L522.959 125.545H524.465V134H522.953ZM529.867 134.211C528.139 134.211 526.973 133.156 526.861 131.768L526.855 131.691H528.25L528.256 131.732C528.367 132.424 529.006 132.975 529.873 132.975C530.863 132.975 531.543 132.277 531.543 131.281V131.27C531.543 130.285 530.852 129.594 529.885 129.594C529.41 129.594 529 129.734 528.689 130.016C528.537 130.145 528.396 130.309 528.297 130.496H527.002L527.412 125.545H532.486V126.787H528.59L528.355 129.359H528.455C528.807 128.791 529.463 128.451 530.26 128.451C531.836 128.451 532.979 129.623 532.979 131.24V131.252C532.979 133.01 531.695 134.211 529.867 134.211Z" fill="#C7C7CC"/>
<path d="M625.953 134V127.033H625.854L623.75 128.521V127.098L625.959 125.545H627.465V134H625.953ZM632.973 134.17C631.027 134.17 629.674 133.162 629.674 131.715V131.703C629.674 130.619 630.465 129.781 631.59 129.553V129.518C630.623 129.26 629.979 128.551 629.979 127.643V127.631C629.979 126.33 631.221 125.375 632.973 125.375C634.725 125.375 635.967 126.33 635.967 127.631V127.643C635.967 128.551 635.322 129.26 634.355 129.518V129.553C635.486 129.781 636.271 130.619 636.271 131.703V131.715C636.271 133.162 634.918 134.17 632.973 134.17ZM632.973 129.037C633.857 129.037 634.473 128.521 634.473 127.783V127.771C634.473 127.033 633.857 126.518 632.973 126.518C632.088 126.518 631.473 127.033 631.473 127.771V127.783C631.473 128.521 632.088 129.037 632.973 129.037ZM632.973 133.016C633.986 133.016 634.707 132.43 634.707 131.615V131.604C634.707 130.783 633.992 130.191 632.973 130.191C631.947 130.191 631.238 130.783 631.238 131.604V131.615C631.238 132.43 631.959 133.016 632.973 133.016Z" fill="#C7C7CC"/>
<path d="M726.885 134V132.98L729.662 130.145C730.811 128.984 731.133 128.557 731.133 127.906V127.889C731.133 127.109 730.6 126.547 729.721 126.547C728.824 126.547 728.221 127.139 728.221 128.012L728.215 128.035L726.809 128.029L726.803 128.012C726.803 126.436 728.033 125.334 729.797 125.334C731.443 125.334 732.627 126.336 732.627 127.76V127.777C732.627 128.738 732.164 129.5 730.623 130.982L728.93 132.623V132.746H732.756V134H726.885ZM736.5 134V127.033H736.4L734.297 128.521V127.098L736.506 125.545H738.012V134H736.5Z" fill="#C7C7CC"/>
<path d="M837.953 13V6.0332H837.854L835.75 7.52148V6.09766L837.959 4.54492H839.465V13H837.953ZM844.914 13.2109C842.904 13.2109 841.697 11.5059 841.697 8.77539V8.76367C841.697 6.0332 842.904 4.33398 844.914 4.33398C846.924 4.33398 848.143 6.0332 848.143 8.76367V8.77539C848.143 11.5059 846.924 13.2109 844.914 13.2109ZM844.914 11.9863C845.992 11.9863 846.619 10.7793 846.619 8.77539V8.76367C846.619 6.75977 845.992 5.56445 844.914 5.56445C843.836 5.56445 843.221 6.75977 843.221 8.76367V8.77539C843.221 10.7793 843.836 11.9863 844.914 11.9863ZM852.895 13.2109C850.885 13.2109 849.678 11.5059 849.678 8.77539V8.76367C849.678 6.0332 850.885 4.33398 852.895 4.33398C854.904 4.33398 856.123 6.0332 856.123 8.76367V8.77539C856.123 11.5059 854.904 13.2109 852.895 13.2109ZM852.895 11.9863C853.973 11.9863 854.6 10.7793 854.6 8.77539V8.76367C854.6 6.75977 853.973 5.56445 852.895 5.56445C851.816 5.56445 851.201 6.75977 851.201 8.76367V8.77539C851.201 10.7793 851.816 11.9863 852.895 11.9863ZM859.557 9.10938C858.373 9.10938 857.658 8.21289 857.658 6.77148V6.76562C857.658 5.32422 858.373 4.42773 859.557 4.42773C860.734 4.42773 861.455 5.32422 861.455 6.76562V6.77148C861.455 8.21289 860.734 9.10938 859.557 9.10938ZM860.611 13H859.404L865.117 4.54492H866.324L860.611 13ZM859.557 8.25977C860.09 8.25977 860.4 7.71484 860.4 6.77148V6.76562C860.4 5.81641 860.09 5.27734 859.557 5.27734C859.018 5.27734 858.719 5.81641 858.719 6.76562V6.77148C858.719 7.71484 859.018 8.25977 859.557 8.25977ZM866.172 13.1172C864.988 13.1172 864.268 12.2148 864.268 10.7734V10.7676C864.268 9.32617 864.988 8.43555 866.172 8.43555C867.35 8.43555 868.07 9.32617 868.07 10.7676V10.7734C868.07 12.2148 867.35 13.1172 866.172 13.1172ZM866.172 12.2676C866.705 12.2676 867.016 11.7227 867.016 10.7734V10.7676C867.016 9.82422 866.705 9.28516 866.172 9.28516C865.633 9.28516 865.328 9.82422 865.328 10.7676V10.7734C865.328 11.7227 865.633 12.2676 866.172 12.2676Z" fill="#C7C7CC"/>
<path d="M838.938 57.8774C837.209 57.8774 836.043 56.8228 835.932 55.4341L835.926 55.3579H837.32L837.326 55.3989C837.438 56.0903 838.076 56.6411 838.943 56.6411C839.934 56.6411 840.613 55.9438 840.613 54.9478V54.936C840.613 53.9517 839.922 53.2603 838.955 53.2603C838.48 53.2603 838.07 53.4009 837.76 53.6821C837.607 53.811 837.467 53.9751 837.367 54.1626H836.072L836.482 49.2114H841.557V50.4536H837.66L837.426 53.0259H837.525C837.877 52.4575 838.533 52.1177 839.33 52.1177C840.906 52.1177 842.049 53.2896 842.049 54.9067V54.9185C842.049 56.6763 840.766 57.8774 838.938 57.8774ZM846.754 57.8774C844.744 57.8774 843.537 56.1724 843.537 53.4419V53.4302C843.537 50.6997 844.744 49.0005 846.754 49.0005C848.764 49.0005 849.982 50.6997 849.982 53.4302V53.4419C849.982 56.1724 848.764 57.8774 846.754 57.8774ZM846.754 56.6528C847.832 56.6528 848.459 55.4458 848.459 53.4419V53.4302C848.459 51.4263 847.832 50.231 846.754 50.231C845.676 50.231 845.061 51.4263 845.061 53.4302V53.4419C845.061 55.4458 845.676 56.6528 846.754 56.6528ZM853.416 53.7759C852.232 53.7759 851.518 52.8794 851.518 51.438V51.4321C851.518 49.9907 852.232 49.0942 853.416 49.0942C854.594 49.0942 855.314 49.9907 855.314 51.4321V51.438C855.314 52.8794 854.594 53.7759 853.416 53.7759ZM854.471 57.6665H853.264L858.977 49.2114H860.184L854.471 57.6665ZM853.416 52.9263C853.949 52.9263 854.26 52.3813 854.26 51.438V51.4321C854.26 50.4829 853.949 49.9438 853.416 49.9438C852.877 49.9438 852.578 50.4829 852.578 51.4321V51.438C852.578 52.3813 852.877 52.9263 853.416 52.9263ZM860.031 57.7837C858.848 57.7837 858.127 56.8813 858.127 55.4399V55.4341C858.127 53.9927 858.848 53.1021 860.031 53.1021C861.209 53.1021 861.93 53.9927 861.93 55.4341V55.4399C861.93 56.8813 861.209 57.7837 860.031 57.7837ZM860.031 56.9341C860.564 56.9341 860.875 56.3892 860.875 55.4399V55.4341C860.875 54.4907 860.564 53.9517 860.031 53.9517C859.492 53.9517 859.188 54.4907 859.188 55.4341V55.4399C859.188 56.3892 859.492 56.9341 860.031 56.9341Z" fill="#C7C7CC"/>
<path d="M838.984 102.544C836.975 102.544 835.768 100.839 835.768 98.1089V98.0972C835.768 95.3667 836.975 93.6675 838.984 93.6675C840.994 93.6675 842.213 95.3667 842.213 98.0972V98.1089C842.213 100.839 840.994 102.544 838.984 102.544ZM838.984 101.32C840.062 101.32 840.689 100.113 840.689 98.1089V98.0972C840.689 96.0933 840.062 94.8979 838.984 94.8979C837.906 94.8979 837.291 96.0933 837.291 98.0972V98.1089C837.291 100.113 837.906 101.32 838.984 101.32ZM845.646 98.4429C844.463 98.4429 843.748 97.5464 843.748 96.105V96.0991C843.748 94.6577 844.463 93.7612 845.646 93.7612C846.824 93.7612 847.545 94.6577 847.545 96.0991V96.105C847.545 97.5464 846.824 98.4429 845.646 98.4429ZM846.701 102.333H845.494L851.207 93.8784H852.414L846.701 102.333ZM845.646 97.5933C846.18 97.5933 846.49 97.0483 846.49 96.105V96.0991C846.49 95.1499 846.18 94.6108 845.646 94.6108C845.107 94.6108 844.809 95.1499 844.809 96.0991V96.105C844.809 97.0483 845.107 97.5933 845.646 97.5933ZM852.262 102.451C851.078 102.451 850.357 101.548 850.357 100.107V100.101C850.357 98.6597 851.078 97.769 852.262 97.769C853.439 97.769 854.16 98.6597 854.16 100.101V100.107C854.16 101.548 853.439 102.451 852.262 102.451ZM852.262 101.601C852.795 101.601 853.105 101.056 853.105 100.107V100.101C853.105 99.1577 852.795 98.6187 852.262 98.6187C851.723 98.6187 851.418 99.1577 851.418 100.101V100.107C851.418 101.056 851.723 101.601 852.262 101.601Z" fill="#C7C7CC"/>
<path d="M1 38.5C1 37.6716 1.67157 37 2.5 37C3.32843 37 4 37.6716 4 38.5V98H1V38.5Z" fill="#34C759"/>
<path d="M11.7188 64.5C11.7188 63.6716 12.3903 63 13.2188 63C14.0472 63 14.7188 63.6716 14.7188 64.5V98H11.7188V64.5Z" fill="#34C759"/>
<path d="M22.4375 67.5C22.4375 66.6716 23.1091 66 23.9375 66C24.7659 66 25.4375 66.6716 25.4375 67.5V98H22.4375V67.5Z" fill="#34C759"/>
<path d="M33.1562 65.5C33.1562 64.6716 33.8278 64 34.6562 64C35.4847 64 36.1562 64.6716 36.1562 65.5V98H33.1562V65.5Z" fill="#34C759"/>
<path d="M43.8745 55.5C43.8745 54.6716 44.5461 54 45.3745 54C46.2029 54 46.8745 54.6716 46.8745 55.5V98H43.8745V55.5Z" fill="#34C759"/>
<path d="M54.5933 50.5C54.5933 49.6716 55.2648 49 56.0933 49C56.9217 49 57.5933 49.6716 57.5933 50.5V98H54.5933V50.5Z" fill="#34C759"/>
<path d="M65.312 47.5C65.312 46.6716 65.9836 46 66.812 46C67.6404 46 68.312 46.6716 68.312 47.5V98H65.312V47.5Z" fill="#34C759"/>
<path d="M76.0308 41.5C76.0308 40.6716 76.7023 40 77.5308 40C78.3592 40 79.0308 40.6716 79.0308 41.5V98H76.0308V41.5Z" fill="#34C759"/>
<path d="M86.7495 36.5C86.7495 35.6716 87.4211 35 88.2495 35C89.0779 35 89.7495 35.6716 89.7495 36.5V98H86.7495V36.5Z" fill="#34C759"/>
<path d="M97.4683 32.5C97.4683 31.6716 98.1398 31 98.9683 31C99.7967 31 100.468 31.6716 100.468 32.5V98H97.4683V32.5Z" fill="#34C759"/>
<path d="M108.187 28.5C108.187 27.6716 108.859 27 109.687 27C110.515 27 111.187 27.6716 111.187 28.5V98H108.187V28.5Z" fill="#34C759"/>
<path d="M118.905 27.5C118.905 26.6716 119.577 26 120.405 26C121.234 26 121.905 26.6716 121.905 27.5V98H118.905V27.5Z" fill="#34C759"/>
<path d="M129.624 26.5C129.624 25.6716 130.296 25 131.124 25C131.952 25 132.624 25.6716 132.624 26.5V98H129.624V26.5Z" fill="#34C759"/>
<path d="M140.343 26.5C140.343 25.6716 141.014 25 141.843 25C142.671 25 143.343 25.6716 143.343 26.5V98H140.343V26.5Z" fill="#34C759"/>
<path d="M151.062 25.5C151.062 24.6716 151.733 24 152.562 24C153.39 24 154.062 24.6716 154.062 25.5V98H151.062V25.5Z" fill="#34C759"/>
<path d="M161.78 24.5C161.78 23.6716 162.452 23 163.28 23C164.109 23 164.78 23.6716 164.78 24.5V98H161.78V24.5Z" fill="#34C759"/>
<path d="M172.499 23.5C172.499 22.6716 173.171 22 173.999 22C174.827 22 175.499 22.6716 175.499 23.5V98H172.499V23.5Z" fill="#34C759"/>
<path d="M183.218 20.5C183.218 19.6716 183.889 19 184.718 19C185.546 19 186.218 19.6716 186.218 20.5V98H183.218V20.5Z" fill="#34C759"/>
<path d="M193.937 13.5C193.937 12.6716 194.608 12 195.437 12C196.265 12 196.937 12.6716 196.937 13.5V98H193.937V13.5Z" fill="#34C759"/>
<path d="M204.655 11.5C204.655 10.6716 205.327 10 206.155 10C206.984 10 207.655 10.6716 207.655 11.5V98H204.655V11.5Z" fill="#34C759"/>
<path d="M215.374 10.5C215.374 9.67157 216.045 9 216.874 9C217.702 9 218.374 9.67157 218.374 10.5V98H215.374V10.5Z" fill="#34C759"/>
<path d="M226.092 10.5C226.092 9.67157 226.764 9 227.592 9C228.421 9 229.092 9.67157 229.092 10.5V98H226.092V10.5Z" fill="#34C759"/>
<path d="M236.811 10.5C236.811 9.67157 237.483 9 238.311 9C239.139 9 239.811 9.67157 239.811 10.5V98H236.811V10.5Z" fill="#34C759"/>
<path d="M247.53 10.5C247.53 9.67157 248.201 9 249.03 9C249.858 9 250.53 9.67157 250.53 10.5V98H247.53V10.5Z" fill="#34C759"/>
<path d="M258.249 10.5C258.249 9.67157 258.92 9 259.749 9C260.577 9 261.249 9.67157 261.249 10.5V98H258.249V10.5Z" fill="#34C759"/>
<path d="M268.967 10.5C268.967 9.67157 269.639 9 270.467 9C271.296 9 271.967 9.67157 271.967 10.5V98H268.967V10.5Z" fill="#34C759"/>
<path d="M279.686 10.5C279.686 9.67157 280.358 9 281.186 9C282.014 9 282.686 9.67157 282.686 10.5V98H279.686V10.5Z" fill="#34C759"/>
<path d="M290.404 13.5C290.404 12.6716 291.076 12 291.904 12C292.733 12 293.404 12.6716 293.404 13.5V98H290.404V13.5Z" fill="#34C759"/>
<path d="M301.123 16.5C301.123 15.6716 301.795 15 302.623 15C303.451 15 304.123 15.6716 304.123 16.5V98H301.123V16.5Z" fill="#34C759"/>
<path d="M311.842 17.5C311.842 16.6716 312.513 16 313.342 16C314.17 16 314.842 16.6716 314.842 17.5V98H311.842V17.5Z" fill="#34C759"/>
<path d="M322.561 18.5C322.561 17.6716 323.232 17 324.061 17C324.889 17 325.561 17.6716 325.561 18.5V98H322.561V18.5Z" fill="#34C759"/>
<path d="M333.279 21.5C333.279 20.6716 333.951 20 334.779 20C335.608 20 336.279 20.6716 336.279 21.5V98H333.279V21.5Z" fill="#34C759"/>
<path d="M343.998 25.5C343.998 24.6716 344.67 24 345.498 24C346.326 24 346.998 24.6716 346.998 25.5V98H343.998V25.5Z" fill="#34C759"/>
<path d="M354.717 25.5C354.717 24.6716 355.388 24 356.217 24C357.045 24 357.717 24.6716 357.717 25.5V98H354.717V25.5Z" fill="#34C759"/>
<path d="M365.436 32.5C365.436 31.6716 366.107 31 366.936 31C367.764 31 368.436 31.6716 368.436 32.5V98H365.436V32.5Z" fill="#34C759"/>
<path d="M376.154 32.5C376.154 31.6716 376.825 31 377.654 31C378.482 31 379.154 31.6716 379.154 32.5V98H376.154V32.5Z" fill="#34C759"/>
<path d="M386.873 32.5C386.873 31.6716 387.544 31 388.373 31C389.201 31 389.873 31.6716 389.873 32.5V98H386.873V32.5Z" fill="#34C759"/>
<path d="M397.591 32.5C397.591 31.6716 398.263 31 399.091 31C399.92 31 400.591 31.6716 400.591 32.5V98H397.591V32.5Z" fill="#34C759"/>
<path d="M408.31 32.5C408.31 31.6716 408.982 31 409.81 31C410.638 31 411.31 31.6716 411.31 32.5V98H408.31V32.5Z" fill="#34C759"/>
<path d="M419.029 34.5C419.029 33.6716 419.7 33 420.529 33C421.357 33 422.029 33.6716 422.029 34.5V98H419.029V34.5Z" fill="#34C759"/>
<path d="M429.748 34.5C429.748 33.6716 430.419 33 431.248 33C432.076 33 432.748 33.6716 432.748 34.5V98H429.748V34.5Z" fill="#34C759"/>
<path d="M440.466 36.5C440.466 35.6716 441.138 35 441.966 35C442.795 35 443.466 35.6716 443.466 36.5V98H440.466V36.5Z" fill="#34C759"/>
<path d="M451.185 37.5C451.185 36.6716 451.856 36 452.685 36C453.513 36 454.185 36.6716 454.185 37.5V98H451.185V37.5Z" fill="#34C759"/>
<path d="M461.903 38.5C461.903 37.6716 462.575 37 463.403 37C464.232 37 464.903 37.6716 464.903 38.5V98H461.903V38.5Z" fill="#34C759"/>
<path d="M472.622 41.5C472.622 40.6716 473.294 40 474.122 40C474.95 40 475.622 40.6716 475.622 41.5V98H472.622V41.5Z" fill="#34C759"/>
<path d="M483.341 42.5C483.341 41.6716 484.012 41 484.841 41C485.669 41 486.341 41.6716 486.341 42.5V98H483.341V42.5Z" fill="#34C759"/>
<path d="M494.06 46.5C494.06 45.6716 494.731 45 495.56 45C496.388 45 497.06 45.6716 497.06 46.5V98H494.06V46.5Z" fill="#34C759"/>
<path d="M504.778 46.5C504.778 45.6716 505.45 45 506.278 45C507.107 45 507.778 45.6716 507.778 46.5V98H504.778V46.5Z" fill="#34C759"/>
<path d="M515.497 45.5C515.497 44.6716 516.169 44 516.997 44C517.825 44 518.497 44.6716 518.497 45.5V98H515.497V45.5Z" fill="#34C759"/>
<path d="M526.216 49.5C526.216 48.6716 526.887 48 527.716 48C528.544 48 529.216 48.6716 529.216 49.5V98H526.216V49.5Z" fill="#34C759"/>
<path d="M536.935 55.5C536.935 54.6716 537.606 54 538.435 54C539.263 54 539.935 54.6716 539.935 55.5V98H536.935V55.5Z" fill="#34C759"/>
<path d="M547.653 55.5C547.653 54.6716 548.324 54 549.153 54C549.981 54 550.653 54.6716 550.653 55.5V98H547.653V55.5Z" fill="#34C759"/>
<path d="M558.372 66.5C558.372 65.6716 559.043 65 559.872 65C560.7 65 561.372 65.6716 561.372 66.5V98H558.372V66.5Z" fill="#34C759"/>
<path d="M569.09 69.5C569.09 68.6716 569.762 68 570.59 68C571.419 68 572.09 68.6716 572.09 69.5V98H569.09V69.5Z" fill="#34C759"/>
<path d="M579.809 69.5C579.809 68.6716 580.481 68 581.309 68C582.138 68 582.809 68.6716 582.809 69.5V98H579.809V69.5Z" fill="#34C759"/>
<path d="M590.528 69.5C590.528 68.6716 591.199 68 592.028 68C592.856 68 593.528 68.6716 593.528 69.5V98H590.528V69.5Z" fill="#34C759"/>
<path d="M601.247 78.5C601.247 77.6716 601.918 77 602.747 77C603.575 77 604.247 77.6716 604.247 78.5V98H601.247V78.5Z" fill="#34C759"/>
<path d="M611.965 58.5C611.965 57.6716 612.637 57 613.465 57C614.294 57 614.965 57.6716 614.965 58.5V98H611.965V58.5Z" fill="#34C759"/>
<path d="M622.684 46.5C622.684 45.6716 623.355 45 624.184 45C625.012 45 625.684 45.6716 625.684 46.5V98H622.684V46.5Z" fill="#34C759"/>
<path d="M633.402 36.5C633.402 35.6716 634.074 35 634.902 35C635.731 35 636.402 35.6716 636.402 36.5V98H633.402V36.5Z" fill="#34C759"/>
<path d="M644.121 44.5C644.121 43.6716 644.793 43 645.621 43C646.45 43 647.121 43.6716 647.121 44.5V98H644.121V44.5Z" fill="#34C759"/>
<path d="M654.84 30.5C654.84 29.6716 655.511 29 656.34 29C657.168 29 657.84 29.6716 657.84 30.5V98H654.84V30.5Z" fill="#34C759"/>
<path d="M665.559 34.5C665.559 33.6716 666.23 33 667.059 33C667.887 33 668.559 33.6716 668.559 34.5V98H665.559V34.5Z" fill="#34C759"/>
<path d="M676.277 25.5C676.277 24.6716 676.949 24 677.777 24C678.606 24 679.277 24.6716 679.277 25.5V98H676.277V25.5Z" fill="#34C759"/>
<path d="M686.996 20.5C686.996 19.6716 687.668 19 688.496 19C689.325 19 689.996 19.6716 689.996 20.5V98H686.996V20.5Z" fill="#34C759"/>
<path d="M697.715 15.5C697.715 14.6716 698.386 14 699.215 14C700.043 14 700.715 14.6716 700.715 15.5V98H697.715V15.5Z" fill="#34C759"/>
<path d="M708.434 12.5C708.434 11.6716 709.105 11 709.934 11C710.762 11 711.434 11.6716 711.434 12.5V98H708.434V12.5Z" fill="#34C759"/>
</svg>
