<svg width="130" height="130" viewBox="0 0 130 130" fill="none" xmlns="http://www.w3.org/2000/svg">
<rect width="13" height="13" fill="#FFBF00"/>
<rect y="13" width="13" height="13" fill="#B8CA1F"/>
<rect y="26" width="13" height="13" fill="#F3CC05"/>
<rect y="39" width="13" height="13" fill="#BCCA1D"/>
<rect y="52" width="13" height="13" fill="#31C264"/>
<rect y="65" width="13" height="13" fill="#21AB95"/>
<rect y="78" width="13" height="13" fill="#49C750"/>
<rect y="91" width="13" height="13" fill="#2CBB72"/>
<rect y="104" width="13" height="13" fill="#007AFF"/>
<rect y="117" width="13" height="13" fill="#1092CC"/>
<rect x="13" width="13" height="13" fill="#FFB800"/>
<rect x="13" y="13" width="13" height="13" fill="#FFC800"/>
<rect x="13" y="26" width="13" height="13" fill="#C7CB19"/>
<rect x="13" y="39" width="13" height="13" fill="#8BC933"/>
<rect x="13" y="52" width="13" height="13" fill="#7BC93A"/>
<rect x="13" y="65" width="13" height="13" fill="#A0CA2A"/>
<rect x="13" y="78" width="13" height="13" fill="#2BB977"/>
<rect x="13" y="91" width="13" height="13" fill="#25B08A"/>
<rect x="13" y="104" width="13" height="13" fill="#1AA0AD"/>
<rect x="13" y="117" width="13" height="13" fill="#037FF5"/>
<rect x="26" width="13" height="13" fill="#FFBD00"/>
<rect x="26" y="13" width="13" height="13" fill="#FFAA00"/>
<rect x="26" y="26" width="13" height="13" fill="#FFC700"/>
<rect x="26" y="39" width="13" height="13" fill="#E4CB0C"/>
<rect x="26" y="52" width="13" height="13" fill="#69C842"/>
<rect x="26" y="65" width="13" height="13" fill="#69C842"/>
<rect x="26" y="78" width="13" height="13" fill="#3FC754"/>
<rect x="26" y="91" width="13" height="13" fill="#2EBE6C"/>
<rect x="26" y="104" width="13" height="13" fill="#24AF8C"/>
<rect x="26" y="117" width="13" height="13" fill="#28B580"/>
<rect x="39" width="13" height="13" fill="#FFB100"/>
<rect x="39" y="13" width="13" height="13" fill="#FFC100"/>
<rect x="39" y="26" width="13" height="13" fill="#FFC400"/>
<rect x="39" y="39" width="13" height="13" fill="#FFC000"/>
<rect x="39" y="52" width="13" height="13" fill="#D8CB11"/>
<rect x="39" y="65" width="13" height="13" fill="#9AC92C"/>
<rect x="39" y="78" width="13" height="13" fill="#B8CA1F"/>
<rect x="39" y="91" width="13" height="13" fill="#2DBD70"/>
<rect x="39" y="104" width="13" height="13" fill="#57C84A"/>
<rect x="39" y="117" width="13" height="13" fill="#49C750"/>
<rect x="52" width="13" height="13" fill="#FF9800"/>
<rect x="52" y="13" width="13" height="13" fill="#FFAC00"/>
<rect x="52" y="26" width="13" height="13" fill="#FFAD00"/>
<rect x="52" y="39" width="13" height="13" fill="#E5CB0B"/>
<rect x="52" y="52" width="13" height="13" fill="#D1CB14"/>
<rect x="52" y="65" width="13" height="13" fill="#A6CA27"/>
<rect x="52" y="78" width="13" height="13" fill="#FFCB00"/>
<rect x="52" y="91" width="13" height="13" fill="#9BCA2C"/>
<rect x="52" y="104" width="13" height="13" fill="#7BC93A"/>
<rect x="52" y="117" width="13" height="13" fill="#1FA89B"/>
<rect x="65" width="13" height="13" fill="#FF9600"/>
<rect x="65" y="13" width="13" height="13" fill="#FF8C05"/>
<rect x="65" y="26" width="13" height="13" fill="#FFA500"/>
<rect x="65" y="39" width="13" height="13" fill="#FFA200"/>
<rect x="65" y="52" width="13" height="13" fill="#FFBE00"/>
<rect x="65" y="65" width="13" height="13" fill="#D4CB13"/>
<rect x="65" y="78" width="13" height="13" fill="#FFCB00"/>
<rect x="65" y="91" width="13" height="13" fill="#71C83E"/>
<rect x="65" y="104" width="13" height="13" fill="#3BC756"/>
<rect x="65" y="117" width="13" height="13" fill="#77C93B"/>
<rect x="78" width="13" height="13" fill="#FF6A17"/>
<rect x="78" y="13" width="13" height="13" fill="#FF6C16"/>
<rect x="78" y="26" width="13" height="13" fill="#FF9201"/>
<rect x="78" y="39" width="13" height="13" fill="#FF9900"/>
<rect x="78" y="52" width="13" height="13" fill="#FFA300"/>
<rect x="78" y="65" width="13" height="13" fill="#FFAA00"/>
<rect x="78" y="78" width="13" height="13" fill="#F0CC06"/>
<rect x="78" y="91" width="13" height="13" fill="#FFCA00"/>
<rect x="78" y="104" width="13" height="13" fill="#64C844"/>
<rect x="78" y="117" width="13" height="13" fill="#C6CB19"/>
<rect x="91" width="13" height="13" fill="#FF8309"/>
<rect x="91" y="13" width="13" height="13" fill="#FF7810"/>
<rect x="91" y="26" width="13" height="13" fill="#FF9900"/>
<rect x="91" y="39" width="13" height="13" fill="#FFA000"/>
<rect x="91" y="52" width="13" height="13" fill="#FFA000"/>
<rect x="91" y="65" width="13" height="13" fill="#FFC400"/>
<rect x="91" y="78" width="13" height="13" fill="#FFBF00"/>
<rect x="91" y="91" width="13" height="13" fill="#FFC900"/>
<rect x="91" y="104" width="13" height="13" fill="#A1CA29"/>
<rect x="91" y="117" width="13" height="13" fill="#F1CC06"/>
<rect x="104" width="13" height="13" fill="#FF651A"/>
<rect x="104" y="13" width="13" height="13" fill="#FF611C"/>
<rect x="104" y="26" width="13" height="13" fill="#FF6619"/>
<rect x="104" y="39" width="13" height="13" fill="#FF8A06"/>
<rect x="104" y="52" width="13" height="13" fill="#FF9B00"/>
<rect x="104" y="65" width="13" height="13" fill="#FFB700"/>
<rect x="104" y="78" width="13" height="13" fill="#FFA100"/>
<rect x="104" y="91" width="13" height="13" fill="#E6CB0B"/>
<rect x="104" y="104" width="13" height="13" fill="#FFC200"/>
<rect x="104" y="117" width="13" height="13" fill="#FDCC01"/>
<rect x="117" width="13" height="13" fill="#FF462A"/>
<rect x="117" y="13" width="13" height="13" fill="#FF3B30"/>
<rect x="117" y="26" width="13" height="13" fill="#FF7B0E"/>
<rect x="117" y="39" width="13" height="13" fill="#FF9800"/>
<rect x="117" y="52" width="13" height="13" fill="#FFA100"/>
<rect x="117" y="65" width="13" height="13" fill="#FFA800"/>
<rect x="117" y="78" width="13" height="13" fill="#FFB600"/>
<rect x="117" y="91" width="13" height="13" fill="#FFAE00"/>
<rect x="117" y="104" width="13" height="13" fill="#FFB600"/>
<rect x="117" y="117" width="13" height="13" fill="#FFBC00"/>
</svg>
