<svg width="1920" height="1008" viewBox="0 0 1920 1008" fill="none" xmlns="http://www.w3.org/2000/svg">
<g filter="url(#filter0_d_2268_3)">
<path d="M22.9569 183.862C15.5727 123.163 -28.5 34.1858 -28.5 -2.5L16.0047 -24.5977H107.437L305.673 -26.7989L613.633 -29H1012.3H1354.64H1841.82H1940.5V-2.5C1978.28 27.7673 1853.33 135.226 1822.8 175.707C1792.27 216.187 1797.21 271.991 1774.02 317.205C1755.19 353.912 1729.58 394.16 1719.49 435.127C1714.13 456.872 1712.92 481.691 1697.55 499.077C1665.98 534.776 1634.97 511.457 1595.44 499.077C1536.26 480.546 1487.26 484.793 1429.02 509.508C1404.7 519.832 1414.85 540.715 1416.86 563.027C1420.5 603.585 1423.5 646.847 1417.73 687.299C1413.51 716.839 1384.25 735.786 1361.55 750.487L1360.37 751.249C1345.15 761.112 1330.41 751.903 1316.05 743.992C1285.69 727.267 1260.25 695.009 1222.63 695.009C1197.83 695.009 1188.84 738.732 1186.13 758.506C1180.23 801.629 1188.6 872.403 1159.85 909.083C1126.54 951.57 1071.75 925.342 1040.14 897.745C999.411 862.189 975.353 805.471 929.122 776.874C908.228 763.95 867.81 755.695 845.045 767.577C826.25 777.386 813.66 793.469 799.421 809.983C768.347 846.023 740.079 883.182 712.954 922.69C684.127 964.677 652.012 1009.68 599.548 992.082C541.362 972.56 520.468 894.325 520.468 837.876C520.468 820.234 519.323 715.496 477.451 734.921C459.053 743.457 444.007 775.847 434.435 792.975C423.562 812.431 409.883 828.998 397.502 846.947C389.139 859.072 327.37 882.502 314.946 865.996C288.514 830.882 289.204 775.873 283.444 733.787C277.515 690.466 271.171 647.838 266.281 604.3C262.423 569.953 268.764 442.022 203.712 477.76C185.355 487.845 176.67 502.812 162.651 517.445C149.316 531.365 111.549 539.963 95.0851 526.743C61.5284 499.799 44.0725 449.81 31.647 409.048C9.13229 335.187 32.0962 258.987 22.9569 183.862Z" fill="white"/>
<path d="M22.9569 183.862C15.5727 123.163 -28.5 34.1858 -28.5 -2.5L16.0047 -24.5977H107.437L305.673 -26.7989L613.633 -29H1012.3H1354.64H1841.82H1940.5V-2.5C1978.28 27.7673 1853.33 135.226 1822.8 175.707C1792.27 216.187 1797.21 271.991 1774.02 317.205C1755.19 353.912 1729.58 394.16 1719.49 435.127C1714.13 456.872 1712.92 481.691 1697.55 499.077C1665.98 534.776 1634.97 511.457 1595.44 499.077C1536.26 480.546 1487.26 484.793 1429.02 509.508C1404.7 519.832 1414.85 540.715 1416.86 563.027C1420.5 603.585 1423.5 646.847 1417.73 687.299C1413.51 716.839 1384.25 735.786 1361.55 750.487L1360.37 751.249C1345.15 761.112 1330.41 751.903 1316.05 743.992C1285.69 727.267 1260.25 695.009 1222.63 695.009C1197.83 695.009 1188.84 738.732 1186.13 758.506C1180.23 801.629 1188.6 872.403 1159.85 909.083C1126.54 951.57 1071.75 925.342 1040.14 897.745C999.411 862.189 975.353 805.471 929.122 776.874C908.228 763.95 867.81 755.695 845.045 767.577C826.25 777.386 813.66 793.469 799.421 809.983C768.347 846.023 740.079 883.182 712.954 922.69C684.127 964.677 652.012 1009.68 599.548 992.082C541.362 972.56 520.468 894.325 520.468 837.876C520.468 820.234 519.323 715.496 477.451 734.921C459.053 743.457 444.007 775.847 434.435 792.975C423.562 812.431 409.883 828.998 397.502 846.947C389.139 859.072 327.37 882.502 314.946 865.996C288.514 830.882 289.204 775.873 283.444 733.787C277.515 690.466 271.171 647.838 266.281 604.3C262.423 569.953 268.764 442.022 203.712 477.76C185.355 487.845 176.67 502.812 162.651 517.445C149.316 531.365 111.549 539.963 95.0851 526.743C61.5284 499.799 44.0725 449.81 31.647 409.048C9.13229 335.187 32.0962 258.987 22.9569 183.862Z" stroke="white" stroke-width="3" stroke-linecap="round"/>
</g>
<defs>
<filter id="filter0_d_2268_3" x="-38" y="-36.5" width="1995.05" height="1044" filterUnits="userSpaceOnUse" color-interpolation-filters="sRGB">
<feFlood flood-opacity="0" result="BackgroundImageFix"/>
<feColorMatrix in="SourceAlpha" type="matrix" values="0 0 0 0 0 0 0 0 0 0 0 0 0 0 0 0 0 0 127 0" result="hardAlpha"/>
<feOffset dy="2"/>
<feGaussianBlur stdDeviation="4"/>
<feComposite in2="hardAlpha" operator="out"/>
<feColorMatrix type="matrix" values="0 0 0 0 0 0 0 0 0 0 0 0 0 0 0 0 0 0 0.25 0"/>
<feBlend mode="normal" in2="BackgroundImageFix" result="effect1_dropShadow_2268_3"/>
<feBlend mode="normal" in="SourceGraphic" in2="effect1_dropShadow_2268_3" result="shape"/>
</filter>
</defs>
</svg>
