<svg width="463" height="124" viewBox="0 0 463 124" fill="none" xmlns="http://www.w3.org/2000/svg">
<rect width="463" height="124" rx="14" fill="white"/>
<rect x="115.553" y="16" width="99.6645" height="48" rx="8" fill="#F2F2F7"/>
<path d="M124.353 33V32.1523L127.825 28.5293C129.158 27.1416 129.466 26.6084 129.466 25.7881V25.7744C129.459 24.7695 128.7 24.0449 127.627 24.0449C126.396 24.0449 125.48 24.8926 125.48 25.9521V25.9863H124.291V25.9453C124.291 24.2363 125.768 22.9717 127.606 22.9717C129.391 22.9717 130.696 24.168 130.696 25.7129V25.7266C130.696 26.8066 130.197 27.6201 128.386 29.4727L126.041 31.8789V31.9062H130.86V33H124.353ZM135.721 33.1641C133.451 33.1641 132.104 31.2021 132.104 28.0713V28.0576C132.104 24.9268 133.451 22.9717 135.721 22.9717C137.99 22.9717 139.351 24.9268 139.351 28.0576V28.0713C139.351 31.2021 137.99 33.1641 135.721 33.1641ZM135.721 32.0908C137.225 32.0908 138.113 30.5459 138.113 28.0713V28.0576C138.113 25.583 137.225 24.0518 135.721 24.0518C134.217 24.0518 133.342 25.583 133.342 28.0576V28.0713C133.342 30.5459 134.217 32.0908 135.721 32.0908ZM140.636 33V32.1523L144.108 28.5293C145.441 27.1416 145.749 26.6084 145.749 25.7881V25.7744C145.742 24.7695 144.983 24.0449 143.91 24.0449C142.68 24.0449 141.764 24.8926 141.764 25.9521V25.9863H140.574V25.9453C140.574 24.2363 142.051 22.9717 143.89 22.9717C145.674 22.9717 146.979 24.168 146.979 25.7129V25.7266C146.979 26.8066 146.48 27.6201 144.669 29.4727L142.324 31.8789V31.9062H147.144V33H140.636ZM148.565 33V32.1523L152.038 28.5293C153.371 27.1416 153.679 26.6084 153.679 25.7881V25.7744C153.672 24.7695 152.913 24.0449 151.84 24.0449C150.609 24.0449 149.693 24.8926 149.693 25.9521V25.9863H148.504V25.9453C148.504 24.2363 149.98 22.9717 151.819 22.9717C153.604 22.9717 154.909 24.168 154.909 25.7129V25.7266C154.909 26.8066 154.41 27.6201 152.599 29.4727L150.254 31.8789V31.9062H155.073V33H148.565ZM159.523 33V23.1357H160.945L164.363 31.4482H164.404L167.822 23.1357H169.244V33H168.096V25.3779H168.055L164.903 33H163.864L160.713 25.3779H160.672V33H159.523ZM174.439 33.1641C172.17 33.1641 170.823 31.2021 170.823 28.0713V28.0576C170.823 24.9268 172.17 22.9717 174.439 22.9717C176.709 22.9717 178.069 24.9268 178.069 28.0576V28.0713C178.069 31.2021 176.709 33.1641 174.439 33.1641ZM174.439 32.0908C175.943 32.0908 176.832 30.5459 176.832 28.0713V28.0576C176.832 25.583 175.943 24.0518 174.439 24.0518C172.936 24.0518 172.061 25.583 172.061 28.0576V28.0713C172.061 30.5459 172.936 32.0908 174.439 32.0908ZM182.882 33.1641C180.995 33.1641 179.648 31.9883 179.505 30.3818L179.498 30.3066H180.708L180.715 30.3613C180.838 31.3389 181.713 32.084 182.896 32.084C184.235 32.084 185.165 31.1543 185.165 29.8281V29.8145C185.158 28.5156 184.222 27.5859 182.916 27.5859C182.246 27.5859 181.672 27.7842 181.234 28.1807C181.057 28.3447 180.899 28.5361 180.77 28.7617H179.683L180.188 23.1357H185.835V24.2295H181.2L180.865 27.5449H180.893C181.357 26.8818 182.178 26.5264 183.135 26.5264C185.028 26.5264 186.396 27.9004 186.396 29.7939V29.8076C186.389 31.7832 184.933 33.1641 182.882 33.1641ZM193.067 33V24.4414H193.04L190.429 26.2598V25.0225L193.054 23.1357H194.257V33H193.067ZM200.156 33.1641C198.064 33.1641 196.574 31.9883 196.574 30.334V30.3203C196.574 29.1035 197.429 28.0918 198.693 27.7979V27.7705C197.613 27.4355 196.93 26.6152 196.93 25.5762V25.5625C196.93 24.0723 198.29 22.9717 200.156 22.9717C202.022 22.9717 203.383 24.0723 203.383 25.5625V25.5762C203.383 26.6152 202.699 27.4355 201.619 27.7705V27.7979C202.884 28.0918 203.738 29.1035 203.738 30.3203V30.334C203.738 31.9883 202.248 33.1641 200.156 33.1641ZM200.156 27.3125C201.346 27.3125 202.159 26.6357 202.159 25.6787V25.665C202.159 24.708 201.346 24.0312 200.156 24.0312C198.967 24.0312 198.153 24.708 198.153 25.665V25.6787C198.153 26.6357 198.967 27.3125 200.156 27.3125ZM200.156 32.0908C201.517 32.0908 202.487 31.3252 202.487 30.2588V30.2451C202.487 29.165 201.523 28.3926 200.156 28.3926C198.789 28.3926 197.825 29.165 197.825 30.2451V30.2588C197.825 31.3252 198.796 32.0908 200.156 32.0908Z" fill="#8E8E93"/>
<path d="M150.281 56V44.6133H150.223L146.629 47.0547V44.4375L150.271 41.9082H153.201V56H150.281ZM161.609 56.2441C158.416 56.2441 156.326 54.5645 156.131 52.1328L156.121 52.0059H158.934L158.953 52.1133C159.08 53.1191 160.076 53.8711 161.6 53.8711C163.113 53.8711 164.09 53.0605 164.09 51.9082V51.8887C164.09 50.541 163.084 49.7988 161.385 49.7988H159.773V47.6992H161.346C162.82 47.6992 163.777 46.918 163.777 45.7754V45.7559C163.777 44.6133 162.967 43.9297 161.58 43.9297C160.203 43.9297 159.266 44.6426 159.148 45.7363L159.139 45.8242H156.434L156.443 45.707C156.639 43.2656 158.621 41.6641 161.58 41.6641C164.617 41.6641 166.57 43.1484 166.57 45.3652V45.3848C166.57 47.1426 165.281 48.2852 163.631 48.627V48.6855C165.721 48.8809 167.088 50.0918 167.088 52.0059V52.0254C167.088 54.5449 164.9 56.2441 161.609 56.2441ZM174.461 56.2441C171.102 56.2441 168.777 54.5742 168.777 52.1523V52.1328C168.777 50.3066 170.135 48.959 172.029 48.5879V48.5293C170.398 48.1289 169.295 46.9473 169.295 45.4434V45.4238C169.295 43.2461 171.414 41.6641 174.461 41.6641C177.498 41.6641 179.627 43.2461 179.627 45.4238V45.4434C179.627 46.9473 178.514 48.1289 176.893 48.5293V48.5879C178.777 48.959 180.135 50.3066 180.135 52.1328V52.1523C180.135 54.5742 177.82 56.2441 174.461 56.2441ZM174.461 47.6406C175.789 47.6406 176.707 46.8496 176.707 45.7168V45.6973C176.707 44.5742 175.779 43.793 174.461 43.793C173.143 43.793 172.205 44.5742 172.205 45.6973V45.7168C172.205 46.8496 173.133 47.6406 174.461 47.6406ZM174.461 54.0957C175.994 54.0957 177.078 53.1973 177.078 51.957V51.9375C177.078 50.6875 176.014 49.7793 174.461 49.7793C172.908 49.7793 171.834 50.6875 171.834 51.9375V51.957C171.834 53.1973 172.918 54.0957 174.461 54.0957Z" fill="#1C1C1E"/>
<path d="M165.385 64V108" stroke="#FF3B30" stroke-width="2"/>
<path d="M26.3421 48C26.3421 48.6921 25.9458 49.418 25.1047 50.0112C24.2663 50.6026 23.0554 51 21.6711 51C20.2867 51 19.0758 50.6026 18.2374 50.0112C17.3963 49.418 17 48.6921 17 48C17 47.3079 17.3963 46.582 18.2374 45.9888C19.0758 45.3974 20.2867 45 21.6711 45C23.0554 45 24.2663 45.3974 25.1047 45.9888C25.9458 46.582 26.3421 47.3079 26.3421 48Z" stroke="#007AFF" stroke-width="2"/>
<path d="M40.5179 66C40.5179 66.6921 40.1216 67.418 39.2805 68.0112C38.442 68.6026 37.2312 69 35.8468 69C34.4625 69 33.2516 68.6026 32.4132 68.0112C31.5721 67.418 31.1758 66.6921 31.1758 66C31.1758 65.3079 31.5721 64.582 32.4132 63.9888C33.2516 63.3974 34.4625 63 35.8468 63C37.2312 63 38.442 63.3974 39.2805 63.9888C40.1216 64.582 40.5179 65.3079 40.5179 66Z" stroke="#007AFF" stroke-width="2"/>
<path d="M54.6976 70C54.6976 70.6921 54.3013 71.418 53.4602 72.0112C52.6217 72.6026 51.4109 73 50.0265 73C48.6421 73 47.4313 72.6026 46.5929 72.0112C45.7517 71.418 45.3555 70.6921 45.3555 70C45.3555 69.3079 45.7517 68.582 46.5929 67.9888C47.4313 67.3974 48.6421 67 50.0265 67C51.4109 67 52.6217 67.3974 53.4602 67.9888C54.3013 68.582 54.6976 69.3079 54.6976 70Z" stroke="#007AFF" stroke-width="2"/>
<path d="M68.8734 65C68.8734 65.6921 68.4771 66.418 67.636 67.0112C66.7975 67.6026 65.5867 68 64.2023 68C62.8179 68 61.6071 67.6026 60.7686 67.0112C59.9275 66.418 59.5312 65.6921 59.5312 65C59.5312 64.3079 59.9275 63.582 60.7686 62.9888C61.6071 62.3974 62.8179 62 64.2023 62C65.5867 62 66.7975 62.3974 67.636 62.9888C68.4771 63.582 68.8734 64.3079 68.8734 65Z" stroke="#007AFF" stroke-width="2"/>
<path d="M84.471 69C84.471 69.6921 84.0747 70.418 83.2336 71.0112C82.3952 71.6026 81.1843 72 79.8 72C78.4156 72 77.2048 71.6026 76.3663 71.0112C75.5252 70.418 75.1289 69.6921 75.1289 69C75.1289 68.3079 75.5252 67.582 76.3663 66.9888C77.2048 66.3974 78.4156 66 79.8 66C81.1843 66 82.3952 66.3974 83.2336 66.9888C84.0747 67.582 84.471 68.3079 84.471 69Z" stroke="#007AFF" stroke-width="2"/>
<path d="M98.6487 71C98.6487 71.6921 98.2525 72.418 97.4113 73.0112C96.5729 73.6026 95.3621 74 93.9777 74C92.5933 74 91.3825 73.6026 90.544 73.0112C89.7029 72.418 89.3066 71.6921 89.3066 71C89.3066 70.3079 89.7029 69.582 90.544 68.9888C91.3825 68.3974 92.5933 68 93.9777 68C95.3621 68 96.5729 68.3974 97.4113 68.9888C98.2525 69.582 98.6487 70.3079 98.6487 71Z" stroke="#007AFF" stroke-width="2"/>
<path d="M112.825 38C112.825 38.6921 112.428 39.418 111.587 40.0112C110.749 40.6026 109.538 41 108.153 41C106.769 41 105.558 40.6026 104.72 40.0112C103.879 39.418 103.482 38.6921 103.482 38C103.482 37.3079 103.879 36.582 104.72 35.9888C105.558 35.3974 106.769 35 108.153 35C109.538 35 110.749 35.3974 111.587 35.9888C112.428 36.582 112.825 37.3079 112.825 38Z" stroke="#007AFF" stroke-width="2"/>
<path d="M127.004 47C127.004 47.6921 126.608 48.418 125.767 49.0112C124.928 49.6026 123.718 50 122.333 50C120.949 50 119.738 49.6026 118.9 49.0112C118.058 48.418 117.662 47.6921 117.662 47C117.662 46.3079 118.058 45.582 118.9 44.9888C119.738 44.3974 120.949 44 122.333 44C123.718 44 124.928 44.3974 125.767 44.9888C126.608 45.582 127.004 46.3079 127.004 47Z" stroke="#007AFF" stroke-width="2"/>
<path d="M141.18 64C141.18 64.6921 140.784 65.418 139.943 66.0112C139.104 66.6026 137.893 67 136.509 67C135.125 67 133.914 66.6026 133.075 66.0112C132.234 65.418 131.838 64.6921 131.838 64C131.838 63.3079 132.234 62.582 133.075 61.9888C133.914 61.3974 135.125 61 136.509 61C137.893 61 139.104 61.3974 139.943 61.9888C140.784 62.582 141.18 63.3079 141.18 64Z" stroke="#007AFF" stroke-width="2"/>
<path d="M156.776 67C156.776 67.6921 156.379 68.418 155.538 69.0112C154.7 69.6026 153.489 70 152.105 70C150.72 70 149.509 69.6026 148.671 69.0112C147.83 68.418 147.434 67.6921 147.434 67C147.434 66.3079 147.83 65.582 148.671 64.9888C149.509 64.3974 150.72 64 152.105 64C153.489 64 154.7 64.3974 155.538 64.9888C156.379 65.582 156.776 66.3079 156.776 67Z" stroke="#007AFF" stroke-width="2"/>
<path d="M170.953 59C170.953 59.6921 170.557 60.418 169.716 61.0112C168.878 61.6026 167.667 62 166.282 62C164.898 62 163.687 61.6026 162.849 61.0112C162.008 60.418 161.611 59.6921 161.611 59C161.611 58.3079 162.008 57.582 162.849 56.9888C163.687 56.3974 164.898 56 166.282 56C167.667 56 168.878 56.3974 169.716 56.9888C170.557 57.582 170.953 58.3079 170.953 59Z" stroke="#007AFF" stroke-width="2"/>
<path d="M185.131 69C185.131 69.6921 184.735 70.418 183.894 71.0112C183.055 71.6026 181.844 72 180.46 72C179.076 72 177.865 71.6026 177.026 71.0112C176.185 70.418 175.789 69.6921 175.789 69C175.789 68.3079 176.185 67.582 177.026 66.9888C177.865 66.3974 179.076 66 180.46 66C181.844 66 183.055 66.3974 183.894 66.9888C184.735 67.582 185.131 68.3079 185.131 69Z" stroke="#007AFF" stroke-width="2"/>
<path d="M200.729 70C200.729 70.6921 200.333 71.418 199.491 72.0112C198.653 72.6026 197.442 73 196.058 73C194.673 73 193.463 72.6026 192.624 72.0112C191.783 71.418 191.387 70.6921 191.387 70C191.387 69.3079 191.783 68.582 192.624 67.9888C193.463 67.3974 194.673 67 196.058 67C197.442 67 198.653 67.3974 199.491 67.9888C200.333 68.582 200.729 69.3079 200.729 70Z" stroke="#007AFF" stroke-width="2"/>
<path d="M214.905 42C214.905 42.6921 214.508 43.418 213.667 44.0112C212.829 44.6026 211.618 45 210.234 45C208.849 45 207.638 44.6026 206.8 44.0112C205.959 43.418 205.562 42.6921 205.562 42C205.562 41.3079 205.959 40.582 206.8 39.9888C207.638 39.3974 208.849 39 210.234 39C211.618 39 212.829 39.3974 213.667 39.9888C214.508 40.582 214.905 41.3079 214.905 42Z" stroke="#007AFF" stroke-width="2"/>
<path d="M229.08 42C229.08 42.6921 228.684 43.418 227.843 44.0112C227.005 44.6026 225.794 45 224.409 45C223.025 45 221.814 44.6026 220.976 44.0112C220.135 43.418 219.738 42.6921 219.738 42C219.738 41.3079 220.135 40.582 220.976 39.9888C221.814 39.3974 223.025 39 224.409 39C225.794 39 227.005 39.3974 227.843 39.9888C228.684 40.582 229.08 41.3079 229.08 42Z" stroke="#007AFF" stroke-width="2"/>
<path d="M243.26 65C243.26 65.6921 242.864 66.418 242.023 67.0112C241.184 67.6026 239.973 68 238.589 68C237.205 68 235.994 67.6026 235.155 67.0112C234.314 66.418 233.918 65.6921 233.918 65C233.918 64.3079 234.314 63.582 235.155 62.9888C235.994 62.3974 237.205 62 238.589 62C239.973 62 241.184 62.3974 242.023 62.9888C242.864 63.582 243.26 64.3079 243.26 65Z" stroke="#007AFF" stroke-width="2"/>
<path d="M258.856 51C258.856 51.6921 258.459 52.418 257.618 53.0112C256.78 53.6026 255.569 54 254.185 54C252.8 54 251.59 53.6026 250.751 53.0112C249.91 52.418 249.514 51.6921 249.514 51C249.514 50.3079 249.91 49.582 250.751 48.9888C251.59 48.3974 252.8 48 254.185 48C255.569 48 256.78 48.3974 257.618 48.9888C258.459 49.582 258.856 50.3079 258.856 51Z" stroke="#007AFF" stroke-width="2"/>
<path d="M273.034 57C273.034 57.6921 272.637 58.418 271.796 59.0112C270.958 59.6026 269.747 60 268.362 60C266.978 60 265.767 59.6026 264.929 59.0112C264.088 58.418 263.691 57.6921 263.691 57C263.691 56.3079 264.088 55.582 264.929 54.9888C265.767 54.3974 266.978 54 268.362 54C269.747 54 270.958 54.3974 271.796 54.9888C272.637 55.582 273.034 56.3079 273.034 57Z" stroke="#007AFF" stroke-width="2"/>
<path d="M287.211 54C287.211 54.6921 286.815 55.418 285.974 56.0112C285.135 56.6026 283.925 57 282.54 57C281.156 57 279.945 56.6026 279.107 56.0112C278.265 55.418 277.869 54.6921 277.869 54C277.869 53.3079 278.265 52.582 279.107 51.9888C279.945 51.3974 281.156 51 282.54 51C283.925 51 285.135 51.3974 285.974 51.9888C286.815 52.582 287.211 53.3079 287.211 54Z" stroke="#007AFF" stroke-width="2"/>
<path d="M301.387 55C301.387 55.6921 300.991 56.418 300.15 57.0112C299.311 57.6026 298.1 58 296.716 58C295.332 58 294.121 57.6026 293.282 57.0112C292.441 56.418 292.045 55.6921 292.045 55C292.045 54.3079 292.441 53.582 293.282 52.9888C294.121 52.3974 295.332 52 296.716 52C298.1 52 299.311 52.3974 300.15 52.9888C300.991 53.582 301.387 54.3079 301.387 55Z" stroke="#007AFF" stroke-width="2"/>
<path d="M315.567 23C315.567 23.6921 315.17 24.418 314.329 25.0112C313.491 25.6026 312.28 26 310.896 26C309.511 26 308.3 25.6026 307.462 25.0112C306.621 24.418 306.225 23.6921 306.225 23C306.225 22.3079 306.621 21.582 307.462 20.9888C308.3 20.3974 309.511 20 310.896 20C312.28 20 313.491 20.3974 314.329 20.9888C315.17 21.582 315.567 22.3079 315.567 23Z" stroke="#007AFF" stroke-width="2"/>
<path d="M331.16 23C331.16 23.6921 330.764 24.418 329.923 25.0112C329.085 25.6026 327.874 26 326.489 26C325.105 26 323.894 25.6026 323.056 25.0112C322.215 24.418 321.818 23.6921 321.818 23C321.818 22.3079 322.215 21.582 323.056 20.9888C323.894 20.3974 325.105 20 326.489 20C327.874 20 329.085 20.3974 329.923 20.9888C330.764 21.582 331.16 22.3079 331.16 23Z" stroke="#007AFF" stroke-width="2"/>
<path d="M345.338 47C345.338 47.6921 344.942 48.418 344.101 49.0112C343.262 49.6026 342.052 50 340.667 50C339.283 50 338.072 49.6026 337.233 49.0112C336.392 48.418 335.996 47.6921 335.996 47C335.996 46.3079 336.392 45.582 337.233 44.9888C338.072 44.3974 339.283 44 340.667 44C342.052 44 343.262 44.3974 344.101 44.9888C344.942 45.582 345.338 46.3079 345.338 47Z" stroke="#007AFF" stroke-width="2"/>
<path d="M359.516 57C359.516 57.6921 359.12 58.418 358.279 59.0112C357.44 59.6026 356.229 60 354.845 60C353.461 60 352.25 59.6026 351.411 59.0112C350.57 58.418 350.174 57.6921 350.174 57C350.174 56.3079 350.57 55.582 351.411 54.9888C352.25 54.3974 353.461 54 354.845 54C356.229 54 357.44 54.3974 358.279 54.9888C359.12 55.582 359.516 56.3079 359.516 57Z" stroke="#007AFF" stroke-width="2"/>
<path d="M373.694 59C373.694 59.6921 373.297 60.418 372.456 61.0112C371.618 61.6026 370.407 62 369.023 62C367.638 62 366.427 61.6026 365.589 61.0112C364.748 60.418 364.352 59.6921 364.352 59C364.352 58.3079 364.748 57.582 365.589 56.9888C366.427 56.3974 367.638 56 369.023 56C370.407 56 371.618 56.3974 372.456 56.9888C373.297 57.582 373.694 58.3079 373.694 59Z" stroke="#007AFF" stroke-width="2"/>
<path d="M387.873 64C387.873 64.6921 387.477 65.418 386.636 66.0112C385.798 66.6026 384.587 67 383.202 67C381.818 67 380.607 66.6026 379.769 66.0112C378.928 65.418 378.531 64.6921 378.531 64C378.531 63.3079 378.928 62.582 379.769 61.9888C380.607 61.3974 381.818 61 383.202 61C384.587 61 385.798 61.3974 386.636 61.9888C387.477 62.582 387.873 63.3079 387.873 64Z" stroke="#007AFF" stroke-width="2"/>
<path d="M403.467 56C403.467 56.6921 403.071 57.418 402.23 58.0112C401.391 58.6026 400.18 59 398.796 59C397.412 59 396.201 58.6026 395.362 58.0112C394.521 57.418 394.125 56.6921 394.125 56C394.125 55.3079 394.521 54.582 395.362 53.9888C396.201 53.3974 397.412 53 398.796 53C400.18 53 401.391 53.3974 402.23 53.9888C403.071 54.582 403.467 55.3079 403.467 56Z" stroke="#007AFF" stroke-width="2"/>
<path d="M417.643 32C417.643 32.6921 417.247 33.418 416.405 34.0112C415.567 34.6026 414.356 35 412.972 35C411.587 35 410.377 34.6026 409.538 34.0112C408.697 33.418 408.301 32.6921 408.301 32C408.301 31.3079 408.697 30.582 409.538 29.9888C410.377 29.3974 411.587 29 412.972 29C414.356 29 415.567 29.3974 416.405 29.9888C417.247 30.582 417.643 31.3079 417.643 32Z" stroke="#007AFF" stroke-width="2"/>
<path d="M431.823 20C431.823 20.6921 431.426 21.418 430.585 22.0112C429.747 22.6026 428.536 23 427.152 23C425.767 23 424.556 22.6026 423.718 22.0112C422.877 21.418 422.48 20.6921 422.48 20C422.48 19.3079 422.877 18.582 423.718 17.9888C424.556 17.3974 425.767 17 427.152 17C428.536 17 429.747 17.3974 430.585 17.9888C431.426 18.582 431.823 19.3079 431.823 20Z" stroke="#007AFF" stroke-width="2"/>
<path d="M445.998 56C445.998 56.6921 445.602 57.418 444.761 58.0112C443.923 58.6026 442.712 59 441.327 59C439.943 59 438.732 58.6026 437.894 58.0112C437.053 57.418 436.656 56.6921 436.656 56C436.656 55.3079 437.053 54.582 437.894 53.9888C438.732 53.3974 439.943 53 441.327 53C442.712 53 443.923 53.3974 444.761 53.9888C445.602 54.582 445.998 55.3079 445.998 56Z" stroke="#007AFF" stroke-width="2"/>
<path d="M429.277 23C434.24 31 439.202 46 440.619 53" stroke="#007AFF" stroke-width="2"/>
<path d="M415.1 29C416.754 26 420.487 20 422.188 20" stroke="#007AFF" stroke-width="2"/>
<path d="M400.213 53L410.846 35.5" stroke="#007AFF" stroke-width="2"/>
<path d="M386.744 63.5C389.343 62.5 394.825 60.1 395.96 58.5" stroke="#007AFF" stroke-width="2"/>
<path d="M373.275 60.5L378.946 63.5" stroke="#007AFF" stroke-width="2"/>
<path d="M359.1 58.5H364.771" stroke="#007AFF" stroke-width="2"/>
<path d="M343.504 49.5C344.449 50.8333 347.332 54 351.302 56" stroke="#007AFF" stroke-width="2"/>
<path d="M328.617 26L338.542 44.5" stroke="#007AFF" stroke-width="2"/>
<path d="M313.73 20.4991C315.621 19.3325 320.11 17.6991 322.946 20.4991" stroke="#007AFF" stroke-width="2"/>
<path d="M298.137 52C301.917 44 309.479 27.6 309.479 26" stroke="#007AFF" stroke-width="2"/>
<path d="M286.793 54C287.974 55.1667 290.904 57.4 293.173 57" stroke="#007AFF" stroke-width="2"/>
<path d="M272.613 56.5L277.575 54.5" stroke="#007AFF" stroke-width="2"/>
<path d="M258.438 52.5L264.109 55.5" stroke="#007AFF" stroke-width="2"/>
<path d="M242.844 63.5L250.641 53.5" stroke="#007AFF" stroke-width="2"/>
<path d="M226.537 45L235.753 63" stroke="#007AFF" stroke-width="2"/>
<path d="M213.068 39.9993C214.486 38.666 218.031 36.7993 220.866 39.9993" stroke="#007AFF" stroke-width="2"/>
<path d="M207.399 45L197.475 67" stroke="#007AFF" stroke-width="2"/>
<path d="M184.713 70.5C186.367 71.3333 190.242 72.8 192.511 72" stroke="#007AFF" stroke-width="2"/>
<path d="M170.537 61L176.917 66.5" stroke="#007AFF" stroke-width="2"/>
<path d="M155.65 65L162.03 60" stroke="#007AFF" stroke-width="2"/>
<path d="M140.764 66C142.654 66.6667 146.86 67.8 148.561 67" stroke="#007AFF" stroke-width="2"/>
<path d="M125.168 49.5L134.383 61.5" stroke="#007AFF" stroke-width="2"/>
<path d="M120.206 44.5C118.552 42.5 114.819 38.4 113.117 38" stroke="#007AFF" stroke-width="2"/>
<path d="M95.3945 68L106.028 40.5" stroke="#007AFF" stroke-width="2"/>
<path d="M83.3438 70.5C84.5252 71.3333 87.4553 72.9 89.7237 72.5" stroke="#007AFF" stroke-width="2"/>
<path d="M68.4573 65.4736L74.9478 67.4842" stroke="#007AFF" stroke-width="2"/>
<path d="M54.2812 69.5L59.9523 66.5" stroke="#007AFF" stroke-width="2"/>
<path d="M39.3926 68.5C40.574 69 43.5041 70 45.7725 70" stroke="#007AFF" stroke-width="2"/>
<line y1="-1" x2="16.3552" y2="-1" transform="matrix(0.6068 0.794854 -0.934847 0.355052 21.6699 51)" stroke="#007AFF" stroke-width="2"/>
</svg>
